<svg width="30" height="30" viewBox="0 0 30 30" fill="none" xmlns="http://www.w3.org/2000/svg">
<path d="M9.375 8.4375C9.375 7.32498 9.7049 6.23745 10.323 5.31242C10.9411 4.38739 11.8196 3.66642 12.8474 3.24068C13.8752 2.81494 15.0062 2.70354 16.0974 2.92059C17.1885 3.13763 18.1908 3.67336 18.9775 4.46003C19.7641 5.2467 20.2999 6.24898 20.5169 7.34012C20.734 8.43126 20.6226 9.56226 20.1968 10.5901C19.7711 11.6179 19.0501 12.4964 18.1251 13.1145C17.2001 13.7326 16.1125 14.0625 15 14.0625C13.5082 14.0625 12.0774 13.4699 11.0225 12.415C9.96763 11.3601 9.375 9.92935 9.375 8.4375ZM24.375 27.1875H5.625C4.87908 27.1875 4.16371 26.8912 3.63626 26.3637C3.10882 25.8363 2.8125 25.1209 2.8125 24.375C2.8125 22.1372 3.70145 19.9911 5.28379 18.4088C6.86612 16.8265 9.01224 15.9375 11.25 15.9375H18.75C20.9878 15.9375 23.1339 16.8265 24.7162 18.4088C26.2986 19.9911 27.1875 22.1372 27.1875 24.375C27.1875 25.1209 26.8912 25.8363 26.3637 26.3637C25.8363 26.8912 25.1209 27.1875 24.375 27.1875Z" fill="white"/>
</svg>
