<svg width="350" height="343" viewBox="0 0 350 343" fill="none" xmlns="http://www.w3.org/2000/svg">
<path d="M169.574 254.983L266.271 310.871L242.097 199.426L338.795 119.823L216.747 111.697L169.573 0.417725L122.4 111.697L0.352295 119.823L101.079 199.426L72.8757 310.871L169.574 254.983Z" fill="#F5C518"/>
<path d="M169.574 0.417725V68.0806V167.585L217.923 111.863L169.574 0.417725Z" fill="#DAA520"/>
<path d="M338.795 119.823L270.3 139.724L169.573 167.585L242.097 199.427L338.795 119.823Z" fill="#DAA520"/>
<path d="M0.352709 119.822L76.9051 143.703L169.574 167.584L121.225 111.862L0.352709 119.822Z" fill="#DAA520"/>
<path d="M270.3 314.851L225.98 247.188L169.573 167.585L169.573 255.149L270.3 314.851Z" fill="#DAA520"/>
<path d="M72.8765 310.871L113.167 255.148L145.4 207.386L170.026 168.046L101.08 199.426L72.8765 310.871Z" fill="#DAA520"/>
</svg>
