<svg width="54" height="52" viewBox="0 0 54 52" fill="none" xmlns="http://www.w3.org/2000/svg">
<path d="M52.875 36.8332L41.625 47.6666L33.75 40.0832L37.125 36.8332L41.625 41.1666L49.5 33.5833L52.875 36.8332ZM13.5 4.33325C12.3065 4.33325 11.1619 4.7898 10.318 5.60246C9.47411 6.41511 9 7.51731 9 8.66658V43.3332C9 45.7383 11.0025 47.6666 13.5 47.6666H31.0725C30.2625 46.3232 29.7 44.8499 29.43 43.3332H13.5V8.66658H29.25V19.4999H40.5V28.3399C41.2425 28.2316 42.0075 28.1666 42.75 28.1666C43.515 28.1666 44.2575 28.2316 45 28.3399V17.3333L31.5 4.33325M18 25.9999V30.3333H36V25.9999M18 34.6666V38.9999H29.25V34.6666H18Z" fill="#4D0F0F"/>
</svg>
