<svg width="24" height="25" viewBox="0 0 24 25" fill="none" xmlns="http://www.w3.org/2000/svg">
<path d="M12 18.21L16 14.21L14.6 12.81L13 14.41V10.21H11V14.41L9.4 12.81L8 14.21L12 18.21ZM5 21.21C4.45 21.21 3.97933 21.0143 3.588 20.623C3.19667 20.2316 3.00067 19.7606 3 19.21V6.73497C3 6.50163 3.03767 6.27663 3.113 6.05997C3.18833 5.8433 3.30067 5.6433 3.45 5.45997L4.7 3.93497C4.88333 3.70163 5.11233 3.5223 5.387 3.39697C5.66167 3.27163 5.94933 3.2093 6.25 3.20997H17.75C18.05 3.20997 18.3377 3.27263 18.613 3.39797C18.8883 3.5233 19.1173 3.7023 19.3 3.93497L20.55 5.45997C20.7 5.6433 20.8127 5.8433 20.888 6.05997C20.9633 6.27663 21.0007 6.50163 21 6.73497V19.21C21 19.76 20.8043 20.231 20.413 20.623C20.0217 21.015 19.5507 21.2106 19 21.21H5ZM5.4 6.20997H18.6L17.75 5.20997H6.25L5.4 6.20997Z" fill="white"/>
</svg>
