<svg width="20" height="13" viewBox="0 0 20 13" fill="none" xmlns="http://www.w3.org/2000/svg">
<path fill-rule="evenodd" clip-rule="evenodd" d="M0 2.87695C0 2.03795 1.11759e-08 1.29195 0.013 0.626953H19.987C20 1.29195 20 2.03795 20 2.87695V4.87695C20 8.64795 20 10.534 18.828 11.705C17.656 12.876 15.771 12.877 12 12.877H8C4.229 12.877 2.343 12.877 1.172 11.705C0.000999928 10.533 0 8.64795 0 4.87695V2.87695ZM15 4.87695C15.2652 4.87695 15.5196 4.7716 15.7071 4.58406C15.8946 4.39652 16 4.14217 16 3.87695C16 3.61174 15.8946 3.35738 15.7071 3.16985C15.5196 2.98231 15.2652 2.87695 15 2.87695C14.7348 2.87695 14.4804 2.98231 14.2929 3.16985C14.1054 3.35738 14 3.61174 14 3.87695C14 4.14217 14.1054 4.39652 14.2929 4.58406C14.4804 4.7716 14.7348 4.87695 15 4.87695ZM15 8.87695C15.2652 8.87695 15.5196 8.7716 15.7071 8.58406C15.8946 8.39652 16 8.14217 16 7.87695C16 7.61174 15.8946 7.35738 15.7071 7.16985C15.5196 6.98231 15.2652 6.87695 15 6.87695C14.7348 6.87695 14.4804 6.98231 14.2929 7.16985C14.1054 7.35738 14 7.61174 14 7.87695C14 8.14217 14.1054 8.39652 14.2929 8.58406C14.4804 8.7716 14.7348 8.87695 15 8.87695ZM11 3.87695C11 4.14217 10.8946 4.39652 10.7071 4.58406C10.5196 4.7716 10.2652 4.87695 10 4.87695C9.73478 4.87695 9.48043 4.7716 9.29289 4.58406C9.10536 4.39652 9 4.14217 9 3.87695C9 3.61174 9.10536 3.35738 9.29289 3.16985C9.48043 2.98231 9.73478 2.87695 10 2.87695C10.2652 2.87695 10.5196 2.98231 10.7071 3.16985C10.8946 3.35738 11 3.61174 11 3.87695ZM11 7.87695C11 8.14217 10.8946 8.39652 10.7071 8.58406C10.5196 8.7716 10.2652 8.87695 10 8.87695C9.73478 8.87695 9.48043 8.7716 9.29289 8.58406C9.10536 8.39652 9 8.14217 9 7.87695C9 7.61174 9.10536 7.35738 9.29289 7.16985C9.48043 6.98231 9.73478 6.87695 10 6.87695C10.2652 6.87695 10.5196 6.98231 10.7071 7.16985C10.8946 7.35738 11 7.61174 11 7.87695ZM5 4.87695C5.26522 4.87695 5.51957 4.7716 5.70711 4.58406C5.89464 4.39652 6 4.14217 6 3.87695C6 3.61174 5.89464 3.35738 5.70711 3.16985C5.51957 2.98231 5.26522 2.87695 5 2.87695C4.73478 2.87695 4.48043 2.98231 4.29289 3.16985C4.10536 3.35738 4 3.61174 4 3.87695C4 4.14217 4.10536 4.39652 4.29289 4.58406C4.48043 4.7716 4.73478 4.87695 5 4.87695ZM5 8.87695C5.26522 8.87695 5.51957 8.7716 5.70711 8.58406C5.89464 8.39652 6 8.14217 6 7.87695C6 7.61174 5.89464 7.35738 5.70711 7.16985C5.51957 6.98231 5.26522 6.87695 5 6.87695C4.73478 6.87695 4.48043 6.98231 4.29289 7.16985C4.10536 7.35738 4 7.61174 4 7.87695C4 8.14217 4.10536 8.39652 4.29289 8.58406C4.48043 8.7716 4.73478 8.87695 5 8.87695Z" fill="white"/>
</svg>
