<svg width="23" height="21" viewBox="0 0 23 21" fill="none"
    xmlns="http://www.w3.org/2000/svg">
    <path d="M14.8867 0.5C15.4933 0.5 15.7967 0.499766 16.0684 0.578125C16.4197 0.679515 16.7365 0.875663 16.9844 1.14453C17.176 1.3525 17.3117 1.62429 17.583 2.16699L18.6094 4.21875C19.002 5.00393 19.8048 5.5 20.6826 5.5C21.9624 5.50013 22.9999 6.53759 23 7.81738V14.5C23 17.3284 22.9998 18.7424 22.1211 19.6211C21.2424 20.4998 19.8284 20.5 17 20.5H6.5C3.67157 20.5 2.25759 20.4998 1.37891 19.6211C0.500227 18.7424 0.5 17.3284 0.5 14.5V7.81738C0.500132 6.53759 1.53759 5.50013 2.81738 5.5C3.69524 5.5 4.49804 5.00393 4.89062 4.21875L5.91699 2.16699C6.18834 1.62429 6.32397 1.3525 6.51562 1.14453C6.76347 0.875663 7.0803 0.679515 7.43164 0.578125C7.7033 0.499766 8.00673 0.5 8.61328 0.5H14.8867ZM11.75 6.75C8.98858 6.75 6.75 8.98858 6.75 11.75C6.75 14.5114 8.98858 16.75 11.75 16.75C14.5114 16.75 16.75 14.5114 16.75 11.75C16.75 8.98858 14.5114 6.75 11.75 6.75ZM11.75 7.75C13.9591 7.75 15.75 9.54086 15.75 11.75C15.75 13.9591 13.9591 15.75 11.75 15.75C9.54086 15.75 7.75 13.9591 7.75 11.75C7.75 9.54086 9.54086 7.75 11.75 7.75Z" fill="#222222"/>
</svg>
