<svg width="30" height="30" viewBox="0 0 30 30" fill="none"
    xmlns="http://www.w3.org/2000/svg">
    <circle cx="15" cy="11.25" r="5" fill="black"/>
    <circle cx="21.25" cy="11.25" r="3.75" fill="black"/>
    <circle cx="8.75" cy="11.25" r="3.75" fill="black"/>
    <path fill-rule="evenodd" clip-rule="evenodd" d="M21.9607 22.5H25.1451C25.7368 22.5 26.1906 21.9914 26.06 21.4144C25.6549 19.6245 24.4649 16.25 21.2501 16.25C20.1425 16.25 19.2753 16.6506 18.5977 17.2489C20.4823 18.4717 21.4568 20.6128 21.9607 22.5Z" fill="black"/>
    <path fill-rule="evenodd" clip-rule="evenodd" d="M11.4023 17.2489C10.7247 16.6506 9.85749 16.25 8.74988 16.25C5.53516 16.25 4.34513 19.6245 3.94004 21.4144C3.80944 21.9914 4.26323 22.5 4.85485 22.5H8.03932C8.54318 20.6128 9.51766 18.4717 11.4023 17.2489Z" fill="black"/>
    <path d="M15 17.5C19.8232 17.5 20.9243 21.9665 21.1756 24.0058C21.2432 24.554 20.8023 25 20.25 25H9.75C9.19772 25 8.7568 24.554 8.82436 24.0058C9.07574 21.9665 10.1768 17.5 15 17.5Z" fill="black"/>
</svg>
