<svg width="30" height="31" viewBox="0 0 30 31" fill="none"
    xmlns="http://www.w3.org/2000/svg">
    <path d="M23 19.5H7" stroke="#33363F" stroke-width="2" stroke-linecap="round"/>
    <path d="M15 9.5L15.2865 10.5038L16.299 10.25L15.5729 11L16.299 11.75L15.2865 11.4962L15 12.5L14.7135 11.4962L13.701 11.75L14.4271 11L13.701 10.25L14.7135 10.5038L15 9.5Z" stroke="#33363F" stroke-width="2" stroke-linecap="round" stroke-linejoin="round"/>
    <path d="M8.5 9.5L8.78647 10.5038L9.79904 10.25L9.07295 11L9.79904 11.75L8.78647 11.4962L8.5 12.5L8.21353 11.4962L7.20096 11.75L7.92705 11L7.20096 10.25L8.21353 10.5038L8.5 9.5Z" stroke="#33363F" stroke-width="2" stroke-linecap="round" stroke-linejoin="round"/>
    <path d="M21.5 9.5L21.7865 10.5038L22.799 10.25L22.0729 11L22.799 11.75L21.7865 11.4962L21.5 12.5L21.2135 11.4962L20.201 11.75L20.9271 11L20.201 10.25L21.2135 10.5038L21.5 9.5Z" stroke="#33363F" stroke-width="2" stroke-linecap="round" stroke-linejoin="round"/>
</svg>
