<svg width="155" height="155" viewBox="0 0 155 155" fill="none"
    xmlns="http://www.w3.org/2000/svg">
    <path d="M100 62.5C100 74.9264 89.9264 85 77.5 85C65.0736 85 55 74.9264 55 62.5C55 50.0736 65.0736 40 77.5 40C89.9264 40 100 50.0736 100 62.5Z" fill="#4D0F0F" stroke="#4D0F0F" stroke-width="9" stroke-linecap="round"/>
    <circle cx="77.5" cy="77.5" r="67.5" stroke="#4D0F0F" stroke-width="19"/>
    <path d="M122.301 123.696C122.684 123.459 122.863 122.994 122.727 122.564C119.843 113.433 113.8 105.375 105.479 99.5842C96.9356 93.64 86.4682 90.418 75.7 90.418C64.9317 90.418 54.4643 93.6399 45.9213 99.5842C37.5994 105.375 31.5565 113.433 28.6731 122.564C28.5374 122.994 28.7159 123.459 29.0993 123.696L54.6596 139.505C67.5531 147.479 83.8468 147.479 96.7402 139.505L122.301 123.696Z" fill="#4D0F0F"/>
</svg>

