<svg width="211" height="63" viewBox="0 0 211 63" fill="none" xmlns="http://www.w3.org/2000/svg">
<g clip-path="url(#clip0_929_21968)">
<path d="M54.8744 17.6665V12.2498H6.12435V50.1665H3.41602V55.5832H19.666V36.6248C19.666 36.1834 19.7906 25.7915 30.4994 25.7915C40.8479 25.7915 41.3137 35.5469 41.3327 36.6248V55.5832H57.5827V50.1665H54.8744V17.6665ZM3.41602 1.4165H57.5827V6.83317H3.41602V1.4165Z" fill="#A98018"/>
<path d="M16.4764 6.075C16.2131 6.075 15.9756 6.02917 15.7639 5.9375C15.5539 5.84583 15.3806 5.715 15.2439 5.545C15.1089 5.37333 15.0231 5.17 14.9864 4.935L15.6114 4.84C15.6648 5.05333 15.7739 5.21833 15.9389 5.335C16.1056 5.45167 16.2973 5.51 16.5139 5.51C16.6423 5.51 16.7631 5.49 16.8764 5.45C16.9898 5.41 17.0814 5.35167 17.1514 5.275C17.2231 5.19833 17.2589 5.10417 17.2589 4.9925C17.2589 4.9425 17.2506 4.89667 17.2339 4.855C17.2173 4.81167 17.1923 4.77333 17.1589 4.74C17.1273 4.70667 17.0856 4.67667 17.0339 4.65C16.9839 4.62167 16.9256 4.5975 16.8589 4.5775L15.9289 4.3025C15.8489 4.27917 15.7623 4.24833 15.6689 4.21C15.5773 4.17 15.4898 4.11583 15.4064 4.0475C15.3248 3.9775 15.2573 3.88917 15.2039 3.7825C15.1523 3.67417 15.1264 3.54083 15.1264 3.3825C15.1264 3.15083 15.1848 2.95667 15.3014 2.8C15.4198 2.64167 15.5781 2.52333 15.7764 2.445C15.9764 2.36667 16.1981 2.32833 16.4414 2.33C16.6881 2.33167 16.9081 2.37417 17.1014 2.4575C17.2948 2.53917 17.4564 2.65833 17.5864 2.815C17.7164 2.97167 17.8081 3.16083 17.8614 3.3825L17.2139 3.495C17.1873 3.36833 17.1356 3.26083 17.0589 3.1725C16.9839 3.0825 16.8914 3.01417 16.7814 2.9675C16.6731 2.92083 16.5573 2.89583 16.4339 2.8925C16.3139 2.89083 16.2023 2.90917 16.0989 2.9475C15.9973 2.98417 15.9148 3.0375 15.8514 3.1075C15.7898 3.1775 15.7589 3.25917 15.7589 3.3525C15.7589 3.44083 15.7856 3.51333 15.8389 3.57C15.8923 3.625 15.9581 3.66917 16.0364 3.7025C16.1164 3.73417 16.1973 3.76083 16.2789 3.7825L16.9239 3.9625C17.0123 3.98583 17.1114 4.0175 17.2214 4.0575C17.3314 4.0975 17.4373 4.15333 17.5389 4.225C17.6406 4.29667 17.7239 4.39083 17.7889 4.5075C17.8556 4.62417 17.8889 4.7725 17.8889 4.9525C17.8889 5.13917 17.8498 5.30333 17.7714 5.445C17.6948 5.585 17.5906 5.70167 17.4589 5.795C17.3273 5.88833 17.1764 5.95833 17.0064 6.005C16.8381 6.05167 16.6614 6.075 16.4764 6.075ZM18.1801 6L19.3151 2.4H20.1976L21.3326 6H20.7126L19.6826 2.77H19.8176L18.8001 6H18.1801ZM18.8126 5.22V4.6575H20.7026V5.22H18.8126ZM21.7846 6V2.4H22.3946L24.0646 4.9375V2.4H24.6746V6H24.0646L22.3946 3.4625V6H21.7846ZM26.2384 6V2.965H25.0734V2.4H28.0059V2.965H26.8409V6H26.2384ZM28.058 6L29.193 2.4H30.0755L31.2105 6H30.5905L29.5605 2.77H29.6955L28.678 6H28.058ZM28.6905 5.22V4.6575H30.5805V5.22H28.6905ZM32.6635 6V2.4H34.151C34.186 2.4 34.231 2.40167 34.286 2.405C34.341 2.40667 34.3918 2.41167 34.4385 2.42C34.6468 2.45167 34.8185 2.52083 34.9535 2.6275C35.0901 2.73417 35.191 2.86917 35.256 3.0325C35.3226 3.19417 35.356 3.37417 35.356 3.5725C35.356 3.86583 35.2818 4.11833 35.1335 4.33C34.9851 4.54 34.7576 4.67 34.451 4.72L34.1935 4.7425H33.266V6H32.6635ZM34.731 6L34.021 4.535L34.6335 4.4L35.4135 6H34.731ZM33.266 4.18H34.126C34.1593 4.18 34.1968 4.17833 34.2385 4.175C34.2801 4.17167 34.3185 4.165 34.3535 4.155C34.4535 4.13 34.5318 4.08583 34.5885 4.0225C34.6468 3.95917 34.6876 3.8875 34.711 3.8075C34.736 3.7275 34.7485 3.64917 34.7485 3.5725C34.7485 3.49583 34.736 3.4175 34.711 3.3375C34.6876 3.25583 34.6468 3.18333 34.5885 3.12C34.5318 3.05667 34.4535 3.0125 34.3535 2.9875C34.3185 2.9775 34.2801 2.97167 34.2385 2.97C34.1968 2.96667 34.1593 2.965 34.126 2.965H33.266V4.18ZM37.4868 6.075C37.1268 6.075 36.8184 5.99667 36.5618 5.84C36.3051 5.68167 36.1076 5.46167 35.9693 5.18C35.8326 4.89833 35.7643 4.57167 35.7643 4.2C35.7643 3.82833 35.8326 3.50167 35.9693 3.22C36.1076 2.93833 36.3051 2.71917 36.5618 2.5625C36.8184 2.40417 37.1268 2.325 37.4868 2.325C37.8468 2.325 38.1551 2.40417 38.4118 2.5625C38.6701 2.71917 38.8676 2.93833 39.0043 3.22C39.1426 3.50167 39.2118 3.82833 39.2118 4.2C39.2118 4.57167 39.1426 4.89833 39.0043 5.18C38.8676 5.46167 38.6701 5.68167 38.4118 5.84C38.1551 5.99667 37.8468 6.075 37.4868 6.075ZM37.4868 5.5075C37.7284 5.50917 37.9293 5.45583 38.0893 5.3475C38.2509 5.23917 38.3718 5.08667 38.4518 4.89C38.5334 4.69333 38.5743 4.46333 38.5743 4.2C38.5743 3.93667 38.5334 3.70833 38.4518 3.515C38.3718 3.32 38.2509 3.16833 38.0893 3.06C37.9293 2.95167 37.7284 2.89583 37.4868 2.8925C37.2451 2.89083 37.0443 2.94417 36.8843 3.0525C36.7243 3.16083 36.6034 3.31333 36.5218 3.51C36.4418 3.70667 36.4018 3.93667 36.4018 4.2C36.4018 4.46333 36.4418 4.6925 36.5218 4.8875C36.6018 5.08083 36.7218 5.23167 36.8818 5.34C37.0434 5.44833 37.2451 5.50417 37.4868 5.5075ZM41.0419 6.075C40.7785 6.075 40.541 6.02917 40.3294 5.9375C40.1194 5.84583 39.946 5.715 39.8094 5.545C39.6744 5.37333 39.5885 5.17 39.5519 4.935L40.1769 4.84C40.2302 5.05333 40.3394 5.21833 40.5044 5.335C40.671 5.45167 40.8627 5.51 41.0794 5.51C41.2077 5.51 41.3285 5.49 41.4419 5.45C41.5552 5.41 41.6469 5.35167 41.7169 5.275C41.7885 5.19833 41.8244 5.10417 41.8244 4.9925C41.8244 4.9425 41.816 4.89667 41.7994 4.855C41.7827 4.81167 41.7577 4.77333 41.7244 4.74C41.6927 4.70667 41.651 4.67667 41.5994 4.65C41.5494 4.62167 41.491 4.5975 41.4244 4.5775L40.4944 4.3025C40.4144 4.27917 40.3277 4.24833 40.2344 4.21C40.1427 4.17 40.0552 4.11583 39.9719 4.0475C39.8902 3.9775 39.8227 3.88917 39.7694 3.7825C39.7177 3.67417 39.6919 3.54083 39.6919 3.3825C39.6919 3.15083 39.7502 2.95667 39.8669 2.8C39.9852 2.64167 40.1435 2.52333 40.3419 2.445C40.5419 2.36667 40.7635 2.32833 41.0069 2.33C41.2535 2.33167 41.4735 2.37417 41.6669 2.4575C41.8602 2.53917 42.0219 2.65833 42.1519 2.815C42.2819 2.97167 42.3735 3.16083 42.4269 3.3825L41.7794 3.495C41.7527 3.36833 41.701 3.26083 41.6244 3.1725C41.5494 3.0825 41.4569 3.01417 41.3469 2.9675C41.2385 2.92083 41.1227 2.89583 40.9994 2.8925C40.8794 2.89083 40.7677 2.90917 40.6644 2.9475C40.5627 2.98417 40.4802 3.0375 40.4169 3.1075C40.3552 3.1775 40.3244 3.25917 40.3244 3.3525C40.3244 3.44083 40.351 3.51333 40.4044 3.57C40.4577 3.625 40.5235 3.66917 40.6019 3.7025C40.6819 3.73417 40.7627 3.76083 40.8444 3.7825L41.4894 3.9625C41.5777 3.98583 41.6769 4.0175 41.7869 4.0575C41.8969 4.0975 42.0027 4.15333 42.1044 4.225C42.206 4.29667 42.2894 4.39083 42.3544 4.5075C42.421 4.62417 42.4544 4.7725 42.4544 4.9525C42.4544 5.13917 42.4152 5.30333 42.3369 5.445C42.2602 5.585 42.156 5.70167 42.0244 5.795C41.8927 5.88833 41.7419 5.95833 41.5719 6.005C41.4035 6.05167 41.2269 6.075 41.0419 6.075ZM42.7455 6L43.8805 2.4H44.763L45.898 6H45.278L44.248 2.77H44.383L43.3655 6H42.7455ZM43.378 5.22V4.6575H45.268V5.22H43.378Z" fill="#4D0F0F"/>
<path d="M20 16H11C11 16 11 25.5 11 26C11 26.5 16.4853 19.9052 20 16Z" fill="#D9D9D9"/>
<path d="M41 16H51V26C51 26 47.5 20.5 47 20C46.5 19.5 41 16 41 16Z" fill="#4D0F0F"/>
<path d="M54.8744 17.6665V12.2498H6.12435V50.1665H3.41602V55.5832H19.666V36.6248C19.666 36.1834 19.7906 25.7915 30.4994 25.7915C40.8479 25.7915 41.3137 35.5469 41.3327 36.6248V55.5832H57.5827V50.1665H54.8744V17.6665ZM3.41602 1.4165H57.5827V6.83317H3.41602V1.4165Z" fill="#A98018"/>
<path d="M16.4764 6.075C16.2131 6.075 15.9756 6.02917 15.7639 5.9375C15.5539 5.84583 15.3806 5.715 15.2439 5.545C15.1089 5.37333 15.0231 5.17 14.9864 4.935L15.6114 4.84C15.6648 5.05333 15.7739 5.21833 15.9389 5.335C16.1056 5.45167 16.2973 5.51 16.5139 5.51C16.6423 5.51 16.7631 5.49 16.8764 5.45C16.9898 5.41 17.0814 5.35167 17.1514 5.275C17.2231 5.19833 17.2589 5.10417 17.2589 4.9925C17.2589 4.9425 17.2506 4.89667 17.2339 4.855C17.2173 4.81167 17.1923 4.77333 17.1589 4.74C17.1273 4.70667 17.0856 4.67667 17.0339 4.65C16.9839 4.62167 16.9256 4.5975 16.8589 4.5775L15.9289 4.3025C15.8489 4.27917 15.7623 4.24833 15.6689 4.21C15.5773 4.17 15.4898 4.11583 15.4064 4.0475C15.3248 3.9775 15.2573 3.88917 15.2039 3.7825C15.1523 3.67417 15.1264 3.54083 15.1264 3.3825C15.1264 3.15083 15.1848 2.95667 15.3014 2.8C15.4198 2.64167 15.5781 2.52333 15.7764 2.445C15.9764 2.36667 16.1981 2.32833 16.4414 2.33C16.6881 2.33167 16.9081 2.37417 17.1014 2.4575C17.2948 2.53917 17.4564 2.65833 17.5864 2.815C17.7164 2.97167 17.8081 3.16083 17.8614 3.3825L17.2139 3.495C17.1873 3.36833 17.1356 3.26083 17.0589 3.1725C16.9839 3.0825 16.8914 3.01417 16.7814 2.9675C16.6731 2.92083 16.5573 2.89583 16.4339 2.8925C16.3139 2.89083 16.2023 2.90917 16.0989 2.9475C15.9973 2.98417 15.9148 3.0375 15.8514 3.1075C15.7898 3.1775 15.7589 3.25917 15.7589 3.3525C15.7589 3.44083 15.7856 3.51333 15.8389 3.57C15.8923 3.625 15.9581 3.66917 16.0364 3.7025C16.1164 3.73417 16.1973 3.76083 16.2789 3.7825L16.9239 3.9625C17.0123 3.98583 17.1114 4.0175 17.2214 4.0575C17.3314 4.0975 17.4373 4.15333 17.5389 4.225C17.6406 4.29667 17.7239 4.39083 17.7889 4.5075C17.8556 4.62417 17.8889 4.7725 17.8889 4.9525C17.8889 5.13917 17.8498 5.30333 17.7714 5.445C17.6948 5.585 17.5906 5.70167 17.4589 5.795C17.3273 5.88833 17.1764 5.95833 17.0064 6.005C16.8381 6.05167 16.6614 6.075 16.4764 6.075ZM18.1801 6L19.3151 2.4H20.1976L21.3326 6H20.7126L19.6826 2.77H19.8176L18.8001 6H18.1801ZM18.8126 5.22V4.6575H20.7026V5.22H18.8126ZM21.7846 6V2.4H22.3946L24.0646 4.9375V2.4H24.6746V6H24.0646L22.3946 3.4625V6H21.7846ZM26.2384 6V2.965H25.0734V2.4H28.0059V2.965H26.8409V6H26.2384ZM28.058 6L29.193 2.4H30.0755L31.2105 6H30.5905L29.5605 2.77H29.6955L28.678 6H28.058ZM28.6905 5.22V4.6575H30.5805V5.22H28.6905ZM32.6635 6V2.4H34.151C34.186 2.4 34.231 2.40167 34.286 2.405C34.341 2.40667 34.3918 2.41167 34.4385 2.42C34.6468 2.45167 34.8185 2.52083 34.9535 2.6275C35.0901 2.73417 35.191 2.86917 35.256 3.0325C35.3226 3.19417 35.356 3.37417 35.356 3.5725C35.356 3.86583 35.2818 4.11833 35.1335 4.33C34.9851 4.54 34.7576 4.67 34.451 4.72L34.1935 4.7425H33.266V6H32.6635ZM34.731 6L34.021 4.535L34.6335 4.4L35.4135 6H34.731ZM33.266 4.18H34.126C34.1593 4.18 34.1968 4.17833 34.2385 4.175C34.2801 4.17167 34.3185 4.165 34.3535 4.155C34.4535 4.13 34.5318 4.08583 34.5885 4.0225C34.6468 3.95917 34.6876 3.8875 34.711 3.8075C34.736 3.7275 34.7485 3.64917 34.7485 3.5725C34.7485 3.49583 34.736 3.4175 34.711 3.3375C34.6876 3.25583 34.6468 3.18333 34.5885 3.12C34.5318 3.05667 34.4535 3.0125 34.3535 2.9875C34.3185 2.9775 34.2801 2.97167 34.2385 2.97C34.1968 2.96667 34.1593 2.965 34.126 2.965H33.266V4.18ZM37.4868 6.075C37.1268 6.075 36.8184 5.99667 36.5618 5.84C36.3051 5.68167 36.1076 5.46167 35.9693 5.18C35.8326 4.89833 35.7643 4.57167 35.7643 4.2C35.7643 3.82833 35.8326 3.50167 35.9693 3.22C36.1076 2.93833 36.3051 2.71917 36.5618 2.5625C36.8184 2.40417 37.1268 2.325 37.4868 2.325C37.8468 2.325 38.1551 2.40417 38.4118 2.5625C38.6701 2.71917 38.8676 2.93833 39.0043 3.22C39.1426 3.50167 39.2118 3.82833 39.2118 4.2C39.2118 4.57167 39.1426 4.89833 39.0043 5.18C38.8676 5.46167 38.6701 5.68167 38.4118 5.84C38.1551 5.99667 37.8468 6.075 37.4868 6.075ZM37.4868 5.5075C37.7284 5.50917 37.9293 5.45583 38.0893 5.3475C38.2509 5.23917 38.3718 5.08667 38.4518 4.89C38.5334 4.69333 38.5743 4.46333 38.5743 4.2C38.5743 3.93667 38.5334 3.70833 38.4518 3.515C38.3718 3.32 38.2509 3.16833 38.0893 3.06C37.9293 2.95167 37.7284 2.89583 37.4868 2.8925C37.2451 2.89083 37.0443 2.94417 36.8843 3.0525C36.7243 3.16083 36.6034 3.31333 36.5218 3.51C36.4418 3.70667 36.4018 3.93667 36.4018 4.2C36.4018 4.46333 36.4418 4.6925 36.5218 4.8875C36.6018 5.08083 36.7218 5.23167 36.8818 5.34C37.0434 5.44833 37.2451 5.50417 37.4868 5.5075ZM41.0419 6.075C40.7785 6.075 40.541 6.02917 40.3294 5.9375C40.1194 5.84583 39.946 5.715 39.8094 5.545C39.6744 5.37333 39.5885 5.17 39.5519 4.935L40.1769 4.84C40.2302 5.05333 40.3394 5.21833 40.5044 5.335C40.671 5.45167 40.8627 5.51 41.0794 5.51C41.2077 5.51 41.3285 5.49 41.4419 5.45C41.5552 5.41 41.6469 5.35167 41.7169 5.275C41.7885 5.19833 41.8244 5.10417 41.8244 4.9925C41.8244 4.9425 41.816 4.89667 41.7994 4.855C41.7827 4.81167 41.7577 4.77333 41.7244 4.74C41.6927 4.70667 41.651 4.67667 41.5994 4.65C41.5494 4.62167 41.491 4.5975 41.4244 4.5775L40.4944 4.3025C40.4144 4.27917 40.3277 4.24833 40.2344 4.21C40.1427 4.17 40.0552 4.11583 39.9719 4.0475C39.8902 3.9775 39.8227 3.88917 39.7694 3.7825C39.7177 3.67417 39.6919 3.54083 39.6919 3.3825C39.6919 3.15083 39.7502 2.95667 39.8669 2.8C39.9852 2.64167 40.1435 2.52333 40.3419 2.445C40.5419 2.36667 40.7635 2.32833 41.0069 2.33C41.2535 2.33167 41.4735 2.37417 41.6669 2.4575C41.8602 2.53917 42.0219 2.65833 42.1519 2.815C42.2819 2.97167 42.3735 3.16083 42.4269 3.3825L41.7794 3.495C41.7527 3.36833 41.701 3.26083 41.6244 3.1725C41.5494 3.0825 41.4569 3.01417 41.3469 2.9675C41.2385 2.92083 41.1227 2.89583 40.9994 2.8925C40.8794 2.89083 40.7677 2.90917 40.6644 2.9475C40.5627 2.98417 40.4802 3.0375 40.4169 3.1075C40.3552 3.1775 40.3244 3.25917 40.3244 3.3525C40.3244 3.44083 40.351 3.51333 40.4044 3.57C40.4577 3.625 40.5235 3.66917 40.6019 3.7025C40.6819 3.73417 40.7627 3.76083 40.8444 3.7825L41.4894 3.9625C41.5777 3.98583 41.6769 4.0175 41.7869 4.0575C41.8969 4.0975 42.0027 4.15333 42.1044 4.225C42.206 4.29667 42.2894 4.39083 42.3544 4.5075C42.421 4.62417 42.4544 4.7725 42.4544 4.9525C42.4544 5.13917 42.4152 5.30333 42.3369 5.445C42.2602 5.585 42.156 5.70167 42.0244 5.795C41.8927 5.88833 41.7419 5.95833 41.5719 6.005C41.4035 6.05167 41.2269 6.075 41.0419 6.075ZM42.7455 6L43.8805 2.4H44.763L45.898 6H45.278L44.248 2.77H44.383L43.3655 6H42.7455ZM43.378 5.22V4.6575H45.268V5.22H43.378Z" fill="#4D0F0F"/>
<path d="M41 16H51V26C51 26 47.5 20.5 47 20C46.5 19.5 41 16 41 16Z" fill="#4D0F0F"/>
<path d="M20 16H10V26C10 26 13.5 20.5 14 20C14.5 19.5 20 16 20 16Z" fill="#4D0F0F"/>
<path d="M30.2582 48.6466L44.75 56.5111L40.6546 40.867L54.5164 29.7202L37.0207 28.5823L30.2582 13L23.4958 28.5823L6 29.7202L20.4394 40.867L16.3964 56.4726L30.2582 48.6466Z" fill="#F5C518"/>
<path d="M30.2585 13V22.4748V36.4083L37.1895 28.6055L30.2585 13Z" fill="#DAA520"/>
<path d="M54.5164 29.7205L44.6976 32.5072L30.2582 36.4086L40.6546 40.8673L54.5164 29.7205Z" fill="#DAA520"/>
<path d="M6.00006 29.7208L16.974 33.0648L30.2582 36.4089L23.3273 28.6061L6.00006 29.7208Z" fill="#DAA520"/>
<path d="M44.7509 56.5113L38.3455 47.5564L30.2594 36.4096L30.2594 48.6711L44.7509 56.5113Z" fill="#DAA520"/>
<path d="M16.3976 56.4725L22.1734 48.6697L26.794 41.9816L30.3242 36.4729L20.4406 40.867L16.3976 56.4725Z" fill="#DAA520"/>
<path d="M57.5762 58.9999L3.50024 59" stroke="#A98018" stroke-width="2.5"/>
</g>
<path d="M83.6758 20.1953C84.6523 20.1953 85.6211 20.1914 86.582 20.1836C87.5508 20.1758 88.4375 20.168 89.2422 20.1602C90.0469 20.1445 90.7344 20.125 91.3047 20.1016C91.875 20.0781 92.2617 20.0469 92.4648 20.0078L91.8906 21.5664C91.6328 21.4961 91.332 21.4336 90.9883 21.3789C90.6914 21.332 90.3281 21.2891 89.8984 21.25C89.4766 21.2031 88.9883 21.1797 88.4336 21.1797C88.2461 21.1797 88.0195 21.1875 87.7539 21.2031C87.4961 21.2109 87.2461 21.2227 87.0039 21.2383C86.7227 21.2539 86.4375 21.2695 86.1484 21.2852V27.6836C86.9531 27.6758 87.6797 27.6523 88.3281 27.6133C88.9766 27.5742 89.5273 27.5352 89.9805 27.4961C90.5117 27.4492 90.9805 27.3945 91.3867 27.332L91.0234 29.0312C90.4844 28.9609 89.9336 28.8945 89.3711 28.832C88.8867 28.7773 88.3594 28.7305 87.7891 28.6914C87.2188 28.6445 86.6719 28.6211 86.1484 28.6211V35.9688C87.0703 35.9688 87.918 35.9297 88.6914 35.8516C89.4648 35.7734 90.1406 35.6836 90.7188 35.582C91.3906 35.4727 92.0039 35.3438 92.5586 35.1953L92.2188 37.0938C92.125 37.0859 91.9844 37.0781 91.7969 37.0703C91.6094 37.0625 91.3984 37.0547 91.1641 37.0469C90.9375 37.0391 90.6953 37.0312 90.4375 37.0234C90.1875 37.0234 89.9492 37.0195 89.7227 37.0117C89.4961 37.0117 89.293 37.0078 89.1133 37C88.9414 37 88.8164 37 88.7383 37H83.6758V36.9531C83.7227 36.7891 83.7656 36.5859 83.8047 36.3438C83.8516 36.1016 83.8906 35.8008 83.9219 35.4414C83.9531 35.082 83.9766 34.6562 83.9922 34.1641C84.0078 33.6641 84.0156 33.082 84.0156 32.418V24.7891C84.0156 24.125 84.0078 23.5469 83.9922 23.0547C83.9766 22.5547 83.9531 22.125 83.9219 21.7656C83.8906 21.3984 83.8516 21.0938 83.8047 20.8516C83.7656 20.6094 83.7227 20.4062 83.6758 20.2422V20.1953ZM94.7266 31.6445V29.9688H102.648V31.6445H94.7266ZM110.852 26.8516H110.617C110.57 26.7188 110.492 26.5508 110.383 26.3477C110.281 26.1445 110.141 25.9453 109.961 25.75C109.789 25.5547 109.574 25.3906 109.316 25.2578C109.059 25.1172 108.75 25.0469 108.391 25.0469C108.117 25.0469 107.871 25.0938 107.652 25.1875C107.441 25.2734 107.262 25.3945 107.113 25.5508C106.965 25.707 106.852 25.8945 106.773 26.1133C106.695 26.3242 106.656 26.5547 106.656 26.8047C106.656 27.2109 106.777 27.5977 107.02 27.9648C107.27 28.332 107.578 28.6992 107.945 29.0664C108.312 29.4258 108.711 29.7891 109.141 30.1562C109.57 30.5234 109.969 30.9062 110.336 31.3047C110.703 31.7031 111.008 32.125 111.25 32.5703C111.5 33.0156 111.625 33.4922 111.625 34C111.625 34.375 111.555 34.7617 111.414 35.1602C111.281 35.5586 111.062 35.918 110.758 36.2383C110.453 36.5586 110.062 36.8203 109.586 37.0234C109.109 37.2344 108.531 37.3398 107.852 37.3398C107.477 37.3398 107.117 37.3086 106.773 37.2461C106.438 37.1836 106.125 37.1055 105.836 37.0117C105.555 36.9258 105.301 36.832 105.074 36.7305C104.855 36.6211 104.672 36.5195 104.523 36.4258L104.734 34.2109H104.98C105.059 34.4844 105.172 34.7578 105.32 35.0312C105.477 35.3047 105.664 35.5547 105.883 35.7812C106.109 36 106.371 36.1797 106.668 36.3203C106.973 36.4531 107.32 36.5195 107.711 36.5195C107.984 36.5195 108.242 36.4766 108.484 36.3906C108.727 36.2969 108.934 36.168 109.105 36.0039C109.285 35.8398 109.426 35.6406 109.527 35.4062C109.629 35.1641 109.68 34.8945 109.68 34.5977C109.68 34.2461 109.609 33.9219 109.469 33.625C109.328 33.3203 109.141 33.0312 108.906 32.7578C108.672 32.4766 108.406 32.207 108.109 31.9492C107.82 31.6914 107.52 31.4297 107.207 31.1641C106.895 30.8984 106.59 30.6289 106.293 30.3555C106.004 30.0742 105.742 29.7734 105.508 29.4531C105.273 29.1328 105.086 28.793 104.945 28.4336C104.805 28.0664 104.734 27.6641 104.734 27.2266C104.734 26.7656 104.832 26.3516 105.027 25.9844C105.223 25.6172 105.48 25.3086 105.801 25.0586C106.121 24.8008 106.488 24.6055 106.902 24.4727C107.316 24.332 107.746 24.2617 108.191 24.2617C108.52 24.2617 108.824 24.2852 109.105 24.332C109.395 24.3789 109.652 24.4375 109.879 24.5078C110.113 24.5703 110.316 24.6367 110.488 24.707C110.66 24.7695 110.801 24.8203 110.91 24.8594L110.852 26.8516ZM114.414 29.2188C114.414 28.5156 114.406 27.9062 114.391 27.3906C114.375 26.8672 114.352 26.418 114.32 26.043C114.297 25.6602 114.262 25.3398 114.215 25.082C114.176 24.8242 114.129 24.6133 114.074 24.4492V24.4023H116.781V24.4492C116.727 24.6133 116.68 24.8242 116.641 25.082C116.602 25.3398 116.566 25.6602 116.535 26.043C116.512 26.418 116.492 26.8672 116.477 27.3906C116.461 27.9062 116.453 28.5156 116.453 29.2188V29.9922L121.809 25.5977C122.105 25.3555 122.328 25.1406 122.477 24.9531C122.633 24.7656 122.711 24.582 122.711 24.4023H125.5V24.4492C125.148 24.5352 124.785 24.6914 124.41 24.918C124.043 25.1445 123.652 25.4297 123.238 25.7734L118.562 29.6055L123.438 34.668C124.086 35.3477 124.633 35.8672 125.078 36.2266C125.531 36.5781 125.879 36.8203 126.121 36.9531V37H122.934C122.848 36.8438 122.664 36.6133 122.383 36.3086C122.102 36.0039 121.73 35.6094 121.27 35.125L116.453 30.1094V32.1719C116.453 32.875 116.461 33.4883 116.477 34.0117C116.492 34.5352 116.512 34.9883 116.535 35.3711C116.566 35.7461 116.602 36.0625 116.641 36.3203C116.68 36.5781 116.727 36.7891 116.781 36.9531V37H114.074V36.9531C114.129 36.7891 114.176 36.5781 114.215 36.3203C114.262 36.0625 114.297 35.7461 114.32 35.3711C114.352 34.9883 114.375 34.5352 114.391 34.0117C114.406 33.4883 114.414 32.875 114.414 32.1719V29.2188ZM126.273 30.6602C126.273 29.7383 126.445 28.8828 126.789 28.0938C127.141 27.3047 127.617 26.6211 128.219 26.043C128.82 25.457 129.531 25 130.352 24.6719C131.172 24.3438 132.051 24.1797 132.988 24.1797C133.91 24.1797 134.777 24.3359 135.59 24.6484C136.41 24.9531 137.121 25.3906 137.723 25.9609C138.332 26.5312 138.812 27.2227 139.164 28.0352C139.516 28.8477 139.691 29.7578 139.691 30.7656C139.691 31.6016 139.543 32.4102 139.246 33.1914C138.949 33.9648 138.516 34.6523 137.945 35.2539C137.375 35.8477 136.672 36.3242 135.836 36.6836C135 37.0352 134.043 37.2109 132.965 37.2109C132.051 37.2109 131.188 37.0586 130.375 36.7539C129.562 36.4492 128.852 36.0156 128.242 35.4531C127.633 34.8828 127.152 34.1953 126.801 33.3906C126.449 32.5781 126.273 31.668 126.273 30.6602ZM133.258 36.3789C133.852 36.3789 134.398 36.2617 134.898 36.0273C135.398 35.793 135.828 35.457 136.188 35.0195C136.555 34.582 136.836 34.0508 137.031 33.4258C137.234 32.793 137.336 32.082 137.336 31.293C137.336 30.3945 137.238 29.5625 137.043 28.7969C136.855 28.0312 136.566 27.3711 136.176 26.8164C135.793 26.2539 135.312 25.8164 134.734 25.5039C134.156 25.1836 133.48 25.0234 132.707 25.0234C132.113 25.0234 131.566 25.1367 131.066 25.3633C130.566 25.5898 130.133 25.918 129.766 26.3477C129.406 26.7773 129.125 27.3047 128.922 27.9297C128.719 28.5547 128.617 29.2656 128.617 30.0625C128.617 30.9531 128.715 31.7852 128.91 32.5586C129.113 33.3242 129.406 33.9922 129.789 34.5625C130.18 35.125 130.664 35.5703 131.242 35.8984C131.82 36.2188 132.492 36.3789 133.258 36.3789ZM144.461 36.0859C145.188 36.0859 145.855 36.0586 146.465 36.0039C147.082 35.9414 147.621 35.875 148.082 35.8047C148.621 35.7188 149.109 35.6211 149.547 35.5117L149.277 37.0703C149.168 37.0625 148.98 37.0508 148.715 37.0352C148.457 37.0273 148.184 37.0195 147.895 37.0117C147.605 37.0117 147.336 37.0078 147.086 37C146.836 37 146.664 37 146.57 37H142.082V36.9531C142.137 36.7891 142.184 36.5781 142.223 36.3203C142.27 36.0625 142.305 35.7461 142.328 35.3711C142.359 34.9883 142.383 34.5352 142.398 34.0117C142.414 33.4883 142.422 32.875 142.422 32.1719V29.2188C142.422 28.5156 142.414 27.9062 142.398 27.3906C142.383 26.8672 142.359 26.418 142.328 26.043C142.305 25.6602 142.27 25.3398 142.223 25.082C142.184 24.8242 142.137 24.6133 142.082 24.4492V24.4023H144.789V24.4492C144.734 24.6133 144.688 24.8242 144.648 25.082C144.609 25.3398 144.574 25.6602 144.543 26.043C144.52 26.418 144.5 26.8672 144.484 27.3906C144.469 27.9062 144.461 28.5156 144.461 29.2188V36.0859ZM159.227 33.0391C159.016 33.0391 158.75 33.0391 158.43 33.0391C158.117 33.0391 157.773 33.0391 157.398 33.0391C157.023 33.0391 156.637 33.0391 156.238 33.0391C155.84 33.0391 155.461 33.043 155.102 33.0508C154.742 33.0508 154.414 33.0547 154.117 33.0625C153.82 33.0625 153.59 33.0625 153.426 33.0625L152.992 33.9766C152.805 34.3516 152.645 34.6797 152.512 34.9609C152.379 35.2344 152.27 35.4766 152.184 35.6875C152.098 35.8984 152.035 36.082 151.996 36.2383C151.957 36.3867 151.938 36.5273 151.938 36.6602C151.938 36.7461 151.941 36.8125 151.949 36.8594C151.957 36.8984 151.969 36.9297 151.984 36.9531V37H149.922V36.9531C149.977 36.8984 150.062 36.7812 150.18 36.6016C150.297 36.4141 150.43 36.1875 150.578 35.9219C150.734 35.6562 150.898 35.3555 151.07 35.0195C151.25 34.6836 151.426 34.3359 151.598 33.9766L156.379 24.1094H157.258L161.945 33.9766C162.125 34.3516 162.305 34.7109 162.484 35.0547C162.672 35.3984 162.844 35.707 163 35.9805C163.156 36.2461 163.293 36.4688 163.41 36.6484C163.527 36.8203 163.605 36.9219 163.645 36.9531V37H160.645C160.66 36.9375 160.668 36.8828 160.668 36.8359C160.668 36.7812 160.668 36.7227 160.668 36.6602C160.668 36.4883 160.629 36.2812 160.551 36.0391C160.48 35.7969 160.391 35.5508 160.281 35.3008C160.18 35.043 160.07 34.7969 159.953 34.5625C159.844 34.3281 159.754 34.1328 159.684 33.9766L159.227 33.0391ZM153.883 32.125H154.598C154.926 32.125 155.273 32.125 155.641 32.125C156.016 32.1172 156.391 32.1133 156.766 32.1133C157.141 32.1133 157.504 32.1133 157.855 32.1133C158.207 32.1055 158.523 32.1016 158.805 32.1016L156.379 26.9219L153.883 32.125ZM167.453 30.8828C167.609 30.9062 167.766 30.9258 167.922 30.9414C168.086 30.9492 168.242 30.9531 168.391 30.9531C169.367 30.9531 170.105 30.6914 170.605 30.168C171.113 29.6445 171.367 28.8594 171.367 27.8125C171.367 26.9531 171.164 26.2734 170.758 25.7734C170.359 25.2734 169.77 25.0234 168.988 25.0234C168.738 25.0234 168.516 25.0352 168.32 25.0586C168.133 25.0742 167.973 25.0938 167.84 25.1172C167.691 25.1484 167.562 25.1797 167.453 25.2109V30.8828ZM169.246 31.6445C169.09 31.668 168.934 31.6836 168.777 31.6914C168.629 31.6914 168.477 31.6914 168.32 31.6914C168.195 31.6914 168.059 31.6875 167.91 31.6797C167.762 31.6719 167.609 31.6602 167.453 31.6445V32.2188C167.453 32.9141 167.461 33.5234 167.477 34.0469C167.492 34.5625 167.512 35.0078 167.535 35.3828C167.566 35.7578 167.602 36.0742 167.641 36.332C167.68 36.582 167.727 36.7891 167.781 36.9531V37H165.074V36.9531C165.129 36.7891 165.176 36.5781 165.215 36.3203C165.262 36.0625 165.297 35.7461 165.32 35.3711C165.352 34.9883 165.375 34.5352 165.391 34.0117C165.406 33.4883 165.414 32.875 165.414 32.1719V29.2188C165.414 28.5156 165.406 27.9062 165.391 27.3906C165.375 26.8672 165.352 26.418 165.32 26.043C165.297 25.6602 165.262 25.3398 165.215 25.082C165.176 24.8242 165.129 24.6133 165.074 24.4492V24.4023C165.199 24.4102 165.332 24.418 165.473 24.4258C165.59 24.4336 165.719 24.4414 165.859 24.4492C166.008 24.4492 166.156 24.4492 166.305 24.4492C166.555 24.4492 166.926 24.4258 167.418 24.3789C167.91 24.332 168.488 24.3086 169.152 24.3086C169.824 24.3086 170.434 24.3906 170.98 24.5547C171.535 24.7188 172.008 24.9531 172.398 25.2578C172.797 25.5625 173.102 25.9336 173.312 26.3711C173.531 26.8086 173.641 27.2969 173.641 27.8359C173.641 28.2578 173.582 28.6445 173.465 28.9961C173.348 29.3398 173.184 29.6523 172.973 29.9336C172.762 30.207 172.512 30.4492 172.223 30.6602C171.934 30.8711 171.613 31.0547 171.262 31.2109L173.711 34.668C173.922 34.9492 174.133 35.2188 174.344 35.4766C174.562 35.7344 174.77 35.9648 174.965 36.168C175.16 36.3711 175.344 36.543 175.516 36.6836C175.688 36.8164 175.832 36.9062 175.949 36.9531V37H172.879C172.879 36.9297 172.828 36.8086 172.727 36.6367C172.633 36.457 172.52 36.2734 172.387 36.0859C172.262 35.8906 172.133 35.7031 172 35.5234C171.875 35.3438 171.781 35.2109 171.719 35.125L169.246 31.6445ZM177.484 29.2188C177.484 28.5156 177.477 27.9062 177.461 27.3906C177.445 26.8672 177.422 26.418 177.391 26.043C177.367 25.6602 177.332 25.3398 177.285 25.082C177.246 24.8242 177.199 24.6133 177.145 24.4492V24.4023H179.863V24.4492C179.809 24.6133 179.758 24.8242 179.711 25.082C179.672 25.3398 179.637 25.6602 179.605 26.043C179.582 26.418 179.562 26.8672 179.547 27.3906C179.531 27.9062 179.523 28.5156 179.523 29.2188V32.1719C179.523 32.875 179.531 33.4883 179.547 34.0117C179.562 34.5352 179.582 34.9883 179.605 35.3711C179.637 35.7461 179.672 36.0625 179.711 36.3203C179.758 36.5781 179.809 36.7891 179.863 36.9531V37H177.145V36.9531C177.199 36.7891 177.246 36.5781 177.285 36.3203C177.332 36.0625 177.367 35.7461 177.391 35.3711C177.422 34.9883 177.445 34.5352 177.461 34.0117C177.477 33.4883 177.484 32.875 177.484 32.1719V29.2188ZM208.773 37.1641H208.316L199 28V32.1719C199 32.875 199.004 33.4883 199.012 34.0117C199.02 34.5352 199.031 34.9883 199.047 35.3711C199.07 35.7461 199.098 36.0625 199.129 36.3203C199.168 36.5781 199.215 36.7891 199.27 36.9531V37H197.512V36.9531C197.566 36.7891 197.613 36.5781 197.652 36.3203C197.691 36.0625 197.723 35.7461 197.746 35.3711C197.77 34.9883 197.785 34.5352 197.793 34.0117C197.801 33.4883 197.805 32.875 197.805 32.1719V29.2188C197.805 28.5156 197.801 27.9062 197.793 27.3906C197.785 26.8672 197.77 26.418 197.746 26.043C197.723 25.6602 197.691 25.3398 197.652 25.082C197.613 24.8242 197.566 24.6133 197.512 24.4492V24.4023H198.238L207.566 33.6133V29.2188C207.566 28.5156 207.562 27.9062 207.555 27.3906C207.547 26.8672 207.531 26.418 207.508 26.043C207.492 25.6602 207.469 25.3398 207.438 25.082C207.406 24.8242 207.363 24.6133 207.309 24.4492V24.4023H209.055V24.4492C209 24.6133 208.953 24.8242 208.914 25.082C208.883 25.3398 208.855 25.6602 208.832 26.043C208.809 26.418 208.793 26.8672 208.785 27.3906C208.777 27.9062 208.773 28.5156 208.773 29.2188V37.1641ZM84.8594 41.0508C84.8555 41.2695 84.8516 41.4814 84.8477 41.6865C84.8457 41.7744 84.8438 41.8643 84.8418 41.9561C84.8418 42.0479 84.8408 42.1387 84.8389 42.2285C84.8389 42.3164 84.8379 42.4014 84.8359 42.4834C84.8359 42.5635 84.8359 42.6348 84.8359 42.6973C84.8359 42.8281 84.8369 42.9863 84.8389 43.1719C84.8408 43.3574 84.8428 43.5479 84.8447 43.7432C84.8486 43.9385 84.8535 44.126 84.8594 44.3057C84.8652 44.4854 84.8721 44.6348 84.8799 44.7539C84.9072 44.7578 84.9434 44.7627 84.9883 44.7686C85.0352 44.7725 85.084 44.7764 85.1348 44.7803C85.1855 44.7822 85.2354 44.7842 85.2842 44.7861C85.333 44.7881 85.374 44.7891 85.4072 44.7891C85.5439 44.7891 85.6836 44.7803 85.8262 44.7627C85.9707 44.7432 86.1094 44.708 86.2422 44.6572C86.377 44.6064 86.5029 44.5371 86.6201 44.4492C86.7393 44.3594 86.8428 44.2441 86.9307 44.1035C87.0205 43.9629 87.0908 43.7939 87.1416 43.5967C87.1924 43.3975 87.2178 43.1631 87.2178 42.8936C87.2178 42.5947 87.1816 42.3291 87.1094 42.0967C87.0371 41.8623 86.9307 41.665 86.79 41.5049C86.6514 41.3447 86.4785 41.2236 86.2715 41.1416C86.0664 41.0576 85.8301 41.0156 85.5625 41.0156C85.5098 41.0156 85.4502 41.0176 85.3838 41.0215C85.3174 41.0234 85.251 41.0264 85.1846 41.0303C85.1201 41.0322 85.0586 41.0361 85 41.042C84.9434 41.0459 84.8965 41.0488 84.8594 41.0508ZM84.2178 40.7871C84.2627 40.7891 84.3047 40.791 84.3438 40.793C84.377 40.7949 84.4111 40.7969 84.4463 40.7988C84.4814 40.7988 84.5098 40.7988 84.5312 40.7988C84.5684 40.7988 84.6299 40.7969 84.7158 40.793C84.8037 40.7891 84.9033 40.7852 85.0146 40.7812C85.126 40.7773 85.2412 40.7734 85.3604 40.7695C85.4814 40.7656 85.5947 40.7637 85.7002 40.7637C85.9834 40.7637 86.2529 40.7988 86.5088 40.8691C86.7646 40.9395 86.9893 41.0547 87.1826 41.2148C87.376 41.375 87.5293 41.585 87.6426 41.8447C87.7559 42.1045 87.8125 42.4238 87.8125 42.8027C87.8125 43.0742 87.7822 43.3184 87.7217 43.5352C87.6631 43.752 87.5801 43.9434 87.4727 44.1094C87.3652 44.2754 87.2363 44.418 87.0859 44.5371C86.9375 44.6543 86.7725 44.751 86.5908 44.8271C86.4111 44.9033 86.2188 44.959 86.0137 44.9941C85.8086 45.0293 85.5967 45.0469 85.3779 45.0469C85.2998 45.0469 85.2051 45.0439 85.0938 45.0381C84.9844 45.0342 84.874 45.0293 84.7627 45.0234C84.6514 45.0176 84.5459 45.0117 84.4463 45.0059C84.3486 45.002 84.2725 45 84.2178 45V44.9883C84.2295 44.9473 84.2402 44.8965 84.25 44.8359C84.2617 44.7754 84.2715 44.7002 84.2793 44.6104C84.2871 44.5205 84.293 44.4141 84.2969 44.291C84.3008 44.166 84.3027 44.0205 84.3027 43.8545V41.9473C84.3027 41.7812 84.3008 41.6357 84.2969 41.5107C84.293 41.3838 84.2871 41.2754 84.2793 41.1855C84.2715 41.0938 84.2617 41.0166 84.25 40.9541C84.2402 40.8916 84.2295 40.8398 84.2178 40.7988V40.7871ZM90.417 40.7285C90.7432 40.7285 91.0439 40.7822 91.3193 40.8896C91.5967 40.9951 91.8359 41.1445 92.0371 41.3379C92.2383 41.5293 92.3955 41.7598 92.5088 42.0293C92.6221 42.2988 92.6787 42.5967 92.6787 42.9229C92.6787 43.1084 92.6572 43.291 92.6143 43.4707C92.5713 43.6504 92.5078 43.8203 92.4238 43.9805C92.3418 44.1406 92.2402 44.2891 92.1191 44.4258C91.998 44.5605 91.8594 44.6777 91.7031 44.7773C91.5488 44.875 91.3779 44.9512 91.1904 45.0059C91.0029 45.0625 90.8008 45.0908 90.584 45.0908C90.2578 45.0908 89.9561 45.0391 89.6787 44.9355C89.4033 44.8301 89.165 44.6816 88.9639 44.4902C88.7627 44.2988 88.6055 44.0693 88.4922 43.8018C88.3789 43.5322 88.3223 43.2334 88.3223 42.9053C88.3223 42.7197 88.3438 42.5371 88.3867 42.3574C88.4297 42.1777 88.4922 42.0068 88.5742 41.8447C88.6582 41.6826 88.7598 41.5342 88.8789 41.3994C89 41.2627 89.1377 41.1445 89.292 41.0449C89.4482 40.9453 89.6201 40.8682 89.8076 40.8135C89.9971 40.7568 90.2002 40.7285 90.417 40.7285ZM90.584 44.8271C90.8008 44.8271 90.999 44.7881 91.1787 44.71C91.3584 44.6318 91.5127 44.5186 91.6416 44.3701C91.7725 44.2217 91.874 44.041 91.9463 43.8281C92.0186 43.6133 92.0547 43.3701 92.0547 43.0986C92.0547 42.7979 92.0195 42.5195 91.9492 42.2637C91.8809 42.0059 91.7783 41.7832 91.6416 41.5957C91.5049 41.4062 91.334 41.2588 91.1289 41.1533C90.9258 41.0459 90.6885 40.9922 90.417 40.9922C90.2002 40.9922 90.002 41.0312 89.8223 41.1094C89.6426 41.1855 89.4873 41.2969 89.3564 41.4434C89.2275 41.5898 89.127 41.7695 89.0547 41.9824C88.9824 42.1953 88.9463 42.4375 88.9463 42.709C88.9463 43.0078 88.9805 43.2871 89.0488 43.5469C89.1172 43.8047 89.2197 44.0283 89.3564 44.2178C89.4932 44.4072 89.6641 44.5566 89.8691 44.666C90.0742 44.7734 90.3125 44.8271 90.584 44.8271ZM96.7393 41.4434L96.7129 41.4551C96.5605 41.3145 96.377 41.2021 96.1621 41.1182C95.9492 41.0342 95.7148 40.9922 95.459 40.9922C95.2129 40.9922 94.9873 41.0312 94.7822 41.1094C94.5771 41.1855 94.4004 41.2969 94.252 41.4434C94.1055 41.5898 93.9912 41.7695 93.9092 41.9824C93.8271 42.1953 93.7861 42.4375 93.7861 42.709C93.7861 43.0078 93.8252 43.2871 93.9033 43.5469C93.9814 43.8047 94.0977 44.0283 94.252 44.2178C94.4062 44.4072 94.5986 44.5566 94.8291 44.666C95.0615 44.7734 95.332 44.8271 95.6406 44.8271C95.752 44.8271 95.8633 44.8154 95.9746 44.792C96.0859 44.7686 96.1924 44.7344 96.2939 44.6895C96.3975 44.6426 96.4941 44.5869 96.584 44.5225C96.6758 44.4561 96.7588 44.3809 96.833 44.2969L96.8652 44.3174L96.6309 44.915C96.4844 44.9717 96.3223 45.0146 96.1445 45.0439C95.9688 45.0752 95.791 45.0908 95.6113 45.0908C95.25 45.0908 94.9189 45.0391 94.6182 44.9355C94.3193 44.8301 94.0615 44.6816 93.8447 44.4902C93.6299 44.2988 93.4619 44.0693 93.3408 43.8018C93.2217 43.5322 93.1621 43.2334 93.1621 42.9053C93.1621 42.7197 93.1855 42.5371 93.2324 42.3574C93.2812 42.1777 93.3516 42.0068 93.4434 41.8447C93.5352 41.6826 93.6484 41.5342 93.7832 41.3994C93.918 41.2627 94.0713 41.1445 94.2432 41.0449C94.417 40.9453 94.6074 40.8682 94.8145 40.8135C95.0234 40.7568 95.249 40.7285 95.4912 40.7285C95.8682 40.7285 96.2178 40.7861 96.54 40.9014L96.7393 41.4434ZM100.407 41.9473C100.407 41.7812 100.405 41.6367 100.401 41.5137C100.397 41.3887 100.392 41.2812 100.384 41.1914C100.376 41.0996 100.367 41.0234 100.357 40.9629C100.348 40.9023 100.337 40.8516 100.325 40.8105V40.7988H100.847V40.8105C100.835 40.8516 100.823 40.9023 100.812 40.9629C100.802 41.0234 100.793 41.0996 100.785 41.1914C100.779 41.2812 100.773 41.3887 100.768 41.5137C100.764 41.6367 100.762 41.7812 100.762 41.9473V43.5293C100.762 43.8086 100.722 44.0469 100.642 44.2441C100.562 44.4414 100.45 44.6035 100.308 44.7305C100.165 44.8555 99.9941 44.9463 99.7949 45.0029C99.5957 45.0615 99.3779 45.0908 99.1416 45.0908C98.9053 45.0908 98.6846 45.0635 98.4795 45.0088C98.2764 44.9541 98.0986 44.8662 97.9463 44.7451C97.7959 44.6221 97.6777 44.4639 97.5918 44.2705C97.5059 44.0752 97.4629 43.8379 97.4629 43.5586V41.9473C97.4629 41.7812 97.4609 41.6367 97.457 41.5137C97.4531 41.3887 97.4473 41.2812 97.4395 41.1914C97.4316 41.0996 97.4219 41.0234 97.4102 40.9629C97.4004 40.9023 97.3896 40.8516 97.3779 40.8105V40.7988H98.0811V40.8105C98.0693 40.8516 98.0576 40.9023 98.0459 40.9629C98.0361 41.0234 98.0273 41.0996 98.0195 41.1914C98.0117 41.2812 98.0059 41.3887 98.002 41.5137C97.998 41.6367 97.9961 41.7812 97.9961 41.9473V43.5908C97.9961 43.8232 98.0303 44.0156 98.0986 44.168C98.1689 44.3184 98.2607 44.4385 98.374 44.5283C98.4873 44.6162 98.6162 44.6777 98.7607 44.7129C98.9053 44.748 99.0527 44.7656 99.2031 44.7656C99.3535 44.7656 99.501 44.748 99.6455 44.7129C99.79 44.6777 99.918 44.6162 100.029 44.5283C100.143 44.4385 100.233 44.3184 100.302 44.168C100.372 44.0156 100.407 43.8232 100.407 43.5908V41.9473ZM101.453 44.9883C101.475 44.957 101.499 44.9111 101.526 44.8506C101.554 44.7881 101.575 44.71 101.591 44.6162C101.612 44.4795 101.636 44.3262 101.661 44.1562C101.688 43.9844 101.716 43.8047 101.743 43.6172C101.772 43.4297 101.801 43.2383 101.828 43.043C101.857 42.8457 101.885 42.6523 101.91 42.4629C101.938 42.2715 101.963 42.0879 101.986 41.9121C102.012 41.7344 102.034 41.5723 102.054 41.4258C102.073 41.2793 102.089 41.1523 102.101 41.0449C102.114 40.9355 102.124 40.8535 102.13 40.7988H102.502L104.345 44.2441L106.173 40.7988H106.451L106.932 44.2793C106.945 44.3887 106.96 44.4824 106.976 44.5605C106.991 44.6387 107.007 44.7061 107.022 44.7627C107.038 44.8174 107.053 44.8633 107.066 44.9004C107.082 44.9355 107.097 44.9648 107.11 44.9883V45H106.372V44.9883C106.382 44.9668 106.391 44.9316 106.398 44.8828C106.408 44.834 106.413 44.7754 106.413 44.707C106.413 44.6816 106.412 44.6562 106.41 44.6309C106.408 44.6035 106.405 44.5742 106.401 44.543L106.029 41.7363L104.301 44.9883L104.099 44.9648L102.358 41.707C102.29 42.1699 102.23 42.5977 102.18 42.9902C102.158 43.1582 102.137 43.3262 102.115 43.4941C102.094 43.6602 102.074 43.8154 102.057 43.96C102.041 44.1045 102.028 44.2324 102.019 44.3438C102.009 44.4531 102.004 44.5342 102.004 44.5869C102.004 44.6533 102.006 44.7119 102.01 44.7627C102.014 44.8135 102.018 44.8564 102.021 44.8916C102.027 44.9326 102.033 44.9688 102.039 45H101.453V44.9883ZM107.772 40.7988C108.017 40.7988 108.259 40.7979 108.499 40.7959C108.741 40.7939 108.963 40.792 109.164 40.79C109.365 40.7861 109.537 40.7812 109.68 40.7754C109.822 40.7695 109.919 40.7617 109.97 40.752L109.826 41.1416C109.762 41.124 109.687 41.1084 109.601 41.0947C109.526 41.083 109.436 41.0723 109.328 41.0625C109.223 41.0508 109.101 41.0449 108.962 41.0449C108.915 41.0449 108.858 41.0469 108.792 41.0508C108.728 41.0527 108.665 41.0557 108.604 41.0596C108.534 41.0635 108.463 41.0674 108.391 41.0713V42.6709C108.592 42.6689 108.773 42.6631 108.936 42.6533C109.098 42.6436 109.235 42.6338 109.349 42.624C109.481 42.6123 109.599 42.5986 109.7 42.583L109.609 43.0078C109.475 42.9902 109.337 42.9736 109.196 42.958C109.075 42.9443 108.943 42.9326 108.801 42.9229C108.658 42.9111 108.521 42.9053 108.391 42.9053V44.7422C108.621 44.7422 108.833 44.7324 109.026 44.7129C109.22 44.6934 109.389 44.6709 109.533 44.6455C109.701 44.6182 109.854 44.5859 109.993 44.5488L109.908 45.0234C109.885 45.0215 109.85 45.0195 109.803 45.0176C109.756 45.0156 109.703 45.0137 109.645 45.0117C109.588 45.0098 109.527 45.0078 109.463 45.0059C109.4 45.0059 109.341 45.0049 109.284 45.0029C109.228 45.0029 109.177 45.002 109.132 45C109.089 45 109.058 45 109.038 45H107.772V44.9883C107.784 44.9473 107.795 44.8965 107.805 44.8359C107.816 44.7754 107.826 44.7002 107.834 44.6104C107.842 44.5205 107.848 44.4141 107.852 44.291C107.855 44.166 107.857 44.0205 107.857 43.8545V41.9473C107.857 41.7812 107.855 41.6367 107.852 41.5137C107.848 41.3887 107.842 41.2812 107.834 41.1914C107.826 41.0996 107.816 41.0234 107.805 40.9629C107.795 40.9023 107.784 40.8516 107.772 40.8105V40.7988ZM110.878 40.7988L113.896 44.0098V41.9473C113.896 41.7812 113.894 41.6367 113.89 41.5137C113.886 41.3887 113.88 41.2812 113.872 41.1914C113.864 41.0996 113.854 41.0234 113.843 40.9629C113.833 40.9023 113.822 40.8516 113.811 40.8105V40.7988H114.332V40.8105C114.32 40.8516 114.31 40.9023 114.3 40.9629C114.29 41.0234 114.281 41.0996 114.273 41.1914C114.266 41.2812 114.26 41.3887 114.256 41.5137C114.252 41.6367 114.25 41.7812 114.25 41.9473V45.0586H114.147L111.13 41.8506V43.8545C111.13 44.0205 111.132 44.166 111.136 44.291C111.14 44.4141 111.146 44.5205 111.153 44.6104C111.161 44.7002 111.17 44.7754 111.18 44.8359C111.189 44.8965 111.2 44.9473 111.212 44.9883V45H110.69V44.9883C110.702 44.9473 110.713 44.8965 110.723 44.8359C110.734 44.7754 110.744 44.7002 110.752 44.6104C110.76 44.5205 110.766 44.4141 110.77 44.291C110.773 44.166 110.775 44.0205 110.775 43.8545V41.9473C110.775 41.7812 110.773 41.6367 110.77 41.5137C110.766 41.3887 110.76 41.2812 110.752 41.1914C110.744 41.0996 110.734 41.0234 110.723 40.9629C110.713 40.9023 110.702 40.8516 110.69 40.8105V40.7988H110.878ZM116.254 41.0566C116.023 41.0566 115.815 41.0674 115.63 41.0889C115.444 41.1084 115.284 41.1299 115.149 41.1533C114.993 41.1826 114.854 41.2148 114.73 41.25L114.815 40.7754C114.839 40.7773 114.874 40.7793 114.921 40.7812C114.968 40.7832 115.02 40.7852 115.076 40.7871C115.135 40.7891 115.195 40.791 115.258 40.793C115.322 40.793 115.383 40.7939 115.439 40.7959C115.496 40.7959 115.546 40.7969 115.589 40.7988C115.634 40.7988 115.666 40.7988 115.686 40.7988H117.358C117.378 40.7988 117.409 40.7988 117.452 40.7988C117.497 40.7969 117.548 40.7959 117.604 40.7959C117.661 40.7939 117.721 40.793 117.783 40.793C117.848 40.791 117.908 40.7891 117.965 40.7871C118.023 40.7852 118.076 40.7832 118.123 40.7812C118.17 40.7793 118.205 40.7773 118.229 40.7754L118.313 41.25C118.188 41.2148 118.048 41.1826 117.892 41.1533C117.757 41.1299 117.597 41.1084 117.411 41.0889C117.226 41.0674 117.018 41.0566 116.787 41.0566V43.8545C116.787 44.0205 116.789 44.166 116.793 44.291C116.799 44.4141 116.805 44.5205 116.811 44.6104C116.818 44.7002 116.827 44.7754 116.837 44.8359C116.849 44.8965 116.86 44.9473 116.872 44.9883V45H116.172V44.9883C116.184 44.9473 116.194 44.8965 116.204 44.8359C116.214 44.7754 116.223 44.7002 116.23 44.6104C116.238 44.5205 116.244 44.4141 116.248 44.291C116.252 44.166 116.254 44.0205 116.254 43.8545V41.0566ZM120.326 44.9883C120.348 44.957 120.372 44.9111 120.399 44.8506C120.427 44.7881 120.448 44.71 120.464 44.6162C120.485 44.4795 120.509 44.3262 120.534 44.1562C120.562 43.9844 120.589 43.8047 120.616 43.6172C120.646 43.4297 120.674 43.2383 120.701 43.043C120.73 42.8457 120.758 42.6523 120.783 42.4629C120.811 42.2715 120.836 42.0879 120.859 41.9121C120.885 41.7344 120.907 41.5723 120.927 41.4258C120.946 41.2793 120.962 41.1523 120.974 41.0449C120.987 40.9355 120.997 40.8535 121.003 40.7988H121.375L123.218 44.2441L125.046 40.7988H125.324L125.805 44.2793C125.818 44.3887 125.833 44.4824 125.849 44.5605C125.864 44.6387 125.88 44.7061 125.896 44.7627C125.911 44.8174 125.926 44.8633 125.939 44.9004C125.955 44.9355 125.97 44.9648 125.983 44.9883V45H125.245V44.9883C125.255 44.9668 125.264 44.9316 125.271 44.8828C125.281 44.834 125.286 44.7754 125.286 44.707C125.286 44.6816 125.285 44.6562 125.283 44.6309C125.281 44.6035 125.278 44.5742 125.274 44.543L124.902 41.7363L123.174 44.9883L122.972 44.9648L121.231 41.707C121.163 42.1699 121.104 42.5977 121.053 42.9902C121.031 43.1582 121.01 43.3262 120.988 43.4941C120.967 43.6602 120.947 43.8154 120.93 43.96C120.914 44.1045 120.901 44.2324 120.892 44.3438C120.882 44.4531 120.877 44.5342 120.877 44.5869C120.877 44.6533 120.879 44.7119 120.883 44.7627C120.887 44.8135 120.891 44.8564 120.895 44.8916C120.9 44.9326 120.906 44.9688 120.912 45H120.326V44.9883ZM129.552 45V44.9883C129.556 44.9785 129.559 44.9639 129.561 44.9443C129.562 44.9248 129.563 44.9072 129.563 44.8916C129.563 44.8311 129.555 44.7646 129.537 44.6924C129.521 44.6182 129.49 44.5264 129.443 44.417L129.089 43.6201C128.979 43.6162 128.834 43.6143 128.652 43.6143C128.471 43.6143 128.274 43.6143 128.063 43.6143C127.909 43.6143 127.76 43.6143 127.615 43.6143C127.473 43.6143 127.344 43.6162 127.229 43.6201L126.892 44.3936C126.862 44.4658 126.831 44.5449 126.798 44.6309C126.765 44.7168 126.748 44.8037 126.748 44.8916C126.748 44.917 126.75 44.9385 126.754 44.9561C126.758 44.9717 126.762 44.9824 126.766 44.9883V45H126.168V44.9883C126.203 44.9512 126.247 44.8857 126.3 44.792C126.353 44.6963 126.41 44.5771 126.473 44.4346L128.151 40.7109H128.386L129.977 44.291C130.014 44.375 130.052 44.457 130.091 44.5371C130.132 44.6152 130.17 44.6855 130.205 44.748C130.24 44.8105 130.271 44.8633 130.299 44.9062C130.326 44.9492 130.345 44.9766 130.354 44.9883V45H129.552ZM127.653 43.3623C127.767 43.3623 127.883 43.3623 128.002 43.3623C128.121 43.3604 128.237 43.3594 128.351 43.3594C128.466 43.3574 128.576 43.3564 128.682 43.3564C128.787 43.3545 128.883 43.3525 128.969 43.3506L128.146 41.4902L127.337 43.3623H127.653ZM130.882 40.7988L133.899 44.0098V41.9473C133.899 41.7812 133.897 41.6367 133.894 41.5137C133.89 41.3887 133.884 41.2812 133.876 41.1914C133.868 41.0996 133.858 41.0234 133.847 40.9629C133.837 40.9023 133.826 40.8516 133.814 40.8105V40.7988H134.336V40.8105C134.324 40.8516 134.313 40.9023 134.304 40.9629C134.294 41.0234 134.285 41.0996 134.277 41.1914C134.27 41.2812 134.264 41.3887 134.26 41.5137C134.256 41.6367 134.254 41.7812 134.254 41.9473V45.0586H134.151L131.134 41.8506V43.8545C131.134 44.0205 131.136 44.166 131.14 44.291C131.144 44.4141 131.149 44.5205 131.157 44.6104C131.165 44.7002 131.174 44.7754 131.184 44.8359C131.193 44.8965 131.204 44.9473 131.216 44.9883V45H130.694V44.9883C130.706 44.9473 130.717 44.8965 130.727 44.8359C130.738 44.7754 130.748 44.7002 130.756 44.6104C130.764 44.5205 130.77 44.4141 130.773 44.291C130.777 44.166 130.779 44.0205 130.779 43.8545V41.9473C130.779 41.7812 130.777 41.6367 130.773 41.5137C130.77 41.3887 130.764 41.2812 130.756 41.1914C130.748 41.0996 130.738 41.0234 130.727 40.9629C130.717 40.9023 130.706 40.8516 130.694 40.8105V40.7988H130.882ZM138.06 45V44.9883C138.063 44.9785 138.066 44.9639 138.068 44.9443C138.07 44.9248 138.071 44.9072 138.071 44.8916C138.071 44.8311 138.062 44.7646 138.045 44.6924C138.029 44.6182 137.998 44.5264 137.951 44.417L137.597 43.6201C137.487 43.6162 137.342 43.6143 137.16 43.6143C136.979 43.6143 136.782 43.6143 136.571 43.6143C136.417 43.6143 136.268 43.6143 136.123 43.6143C135.98 43.6143 135.852 43.6162 135.736 43.6201L135.399 44.3936C135.37 44.4658 135.339 44.5449 135.306 44.6309C135.272 44.7168 135.256 44.8037 135.256 44.8916C135.256 44.917 135.258 44.9385 135.262 44.9561C135.266 44.9717 135.27 44.9824 135.273 44.9883V45H134.676V44.9883C134.711 44.9512 134.755 44.8857 134.808 44.792C134.86 44.6963 134.918 44.5771 134.98 44.4346L136.659 40.7109H136.894L138.484 44.291C138.521 44.375 138.56 44.457 138.599 44.5371C138.64 44.6152 138.678 44.6855 138.713 44.748C138.748 44.8105 138.779 44.8633 138.807 44.9062C138.834 44.9492 138.853 44.9766 138.862 44.9883V45H138.06ZM136.161 43.3623C136.274 43.3623 136.391 43.3623 136.51 43.3623C136.629 43.3604 136.745 43.3594 136.858 43.3594C136.974 43.3574 137.084 43.3564 137.189 43.3564C137.295 43.3545 137.391 43.3525 137.477 43.3506L136.653 41.4902L135.845 43.3623H136.161ZM142.923 44.5078C142.923 44.5293 142.92 44.5518 142.914 44.5752C142.91 44.5986 142.899 44.6182 142.882 44.6338C142.794 44.7002 142.698 44.7617 142.595 44.8184C142.493 44.873 142.383 44.9209 142.264 44.9619C142.145 45.0029 142.016 45.0342 141.877 45.0557C141.74 45.0791 141.593 45.0908 141.435 45.0908C141.079 45.0908 140.755 45.0391 140.462 44.9355C140.169 44.8301 139.917 44.6816 139.706 44.4902C139.497 44.2988 139.335 44.0693 139.22 43.8018C139.104 43.5322 139.047 43.2334 139.047 42.9053C139.047 42.7197 139.07 42.5371 139.117 42.3574C139.166 42.1777 139.236 42.0068 139.328 41.8447C139.42 41.6826 139.533 41.5342 139.668 41.3994C139.803 41.2627 139.956 41.1445 140.128 41.0449C140.302 40.9453 140.492 40.8682 140.699 40.8135C140.908 40.7568 141.134 40.7285 141.376 40.7285C141.47 40.7285 141.565 40.7334 141.663 40.7432C141.761 40.751 141.857 40.7637 141.953 40.7812C142.049 40.7969 142.141 40.8164 142.229 40.8398C142.318 40.8633 142.403 40.8896 142.483 40.9189L142.683 41.4609L142.659 41.4727C142.583 41.4043 142.495 41.3408 142.396 41.2822C142.296 41.2236 142.189 41.1729 142.076 41.1299C141.963 41.0869 141.844 41.0537 141.719 41.0303C141.596 41.0049 141.471 40.9922 141.344 40.9922C141.098 40.9922 140.872 41.0312 140.667 41.1094C140.462 41.1855 140.285 41.2969 140.137 41.4434C139.99 41.5898 139.876 41.7695 139.794 41.9824C139.712 42.1953 139.671 42.4375 139.671 42.709C139.671 43.0078 139.71 43.2852 139.788 43.541C139.866 43.7969 139.982 44.0186 140.137 44.2061C140.291 44.3936 140.483 44.541 140.714 44.6484C140.946 44.7539 141.217 44.8066 141.525 44.8066C141.662 44.8066 141.784 44.7959 141.892 44.7744C141.999 44.7529 142.09 44.7266 142.164 44.6953C142.238 44.6621 142.294 44.627 142.331 44.5898C142.37 44.5508 142.39 44.5156 142.39 44.4844V44.3701C142.39 44.2334 142.388 44.1152 142.384 44.0156C142.38 43.916 142.374 43.8301 142.366 43.7578C142.358 43.6836 142.35 43.6201 142.34 43.5674C142.33 43.5146 142.318 43.4658 142.305 43.4209V43.4092H143.008V43.4209C142.996 43.4619 142.984 43.5107 142.973 43.5674C142.963 43.6221 142.954 43.6875 142.946 43.7637C142.938 43.8398 142.933 43.9297 142.929 44.0332C142.925 44.1348 142.923 44.2529 142.923 44.3877V44.5078ZM143.679 40.7988C143.923 40.7988 144.165 40.7979 144.405 40.7959C144.647 40.7939 144.869 40.792 145.07 40.79C145.271 40.7861 145.443 40.7812 145.586 40.7754C145.729 40.7695 145.825 40.7617 145.876 40.752L145.732 41.1416C145.668 41.124 145.593 41.1084 145.507 41.0947C145.433 41.083 145.342 41.0723 145.234 41.0625C145.129 41.0508 145.007 41.0449 144.868 41.0449C144.821 41.0449 144.765 41.0469 144.698 41.0508C144.634 41.0527 144.571 41.0557 144.511 41.0596C144.44 41.0635 144.369 41.0674 144.297 41.0713V42.6709C144.498 42.6689 144.68 42.6631 144.842 42.6533C145.004 42.6436 145.142 42.6338 145.255 42.624C145.388 42.6123 145.505 42.5986 145.606 42.583L145.516 43.0078C145.381 42.9902 145.243 42.9736 145.103 42.958C144.981 42.9443 144.85 42.9326 144.707 42.9229C144.564 42.9111 144.428 42.9053 144.297 42.9053V44.7422C144.527 44.7422 144.739 44.7324 144.933 44.7129C145.126 44.6934 145.295 44.6709 145.439 44.6455C145.607 44.6182 145.761 44.5859 145.899 44.5488L145.814 45.0234C145.791 45.0215 145.756 45.0195 145.709 45.0176C145.662 45.0156 145.609 45.0137 145.551 45.0117C145.494 45.0098 145.434 45.0078 145.369 45.0059C145.307 45.0059 145.247 45.0049 145.19 45.0029C145.134 45.0029 145.083 45.002 145.038 45C144.995 45 144.964 45 144.944 45H143.679V44.9883C143.69 44.9473 143.701 44.8965 143.711 44.8359C143.723 44.7754 143.732 44.7002 143.74 44.6104C143.748 44.5205 143.754 44.4141 143.758 44.291C143.762 44.166 143.764 44.0205 143.764 43.8545V41.9473C143.764 41.7812 143.762 41.6367 143.758 41.5137C143.754 41.3887 143.748 41.2812 143.74 41.1914C143.732 41.0996 143.723 41.0234 143.711 40.9629C143.701 40.9023 143.69 40.8516 143.679 40.8105V40.7988ZM146.412 44.9883C146.434 44.957 146.458 44.9111 146.485 44.8506C146.513 44.7881 146.534 44.71 146.55 44.6162C146.571 44.4795 146.595 44.3262 146.62 44.1562C146.647 43.9844 146.675 43.8047 146.702 43.6172C146.731 43.4297 146.76 43.2383 146.787 43.043C146.816 42.8457 146.844 42.6523 146.869 42.4629C146.896 42.2715 146.922 42.0879 146.945 41.9121C146.971 41.7344 146.993 41.5723 147.013 41.4258C147.032 41.2793 147.048 41.1523 147.06 41.0449C147.073 40.9355 147.083 40.8535 147.089 40.7988H147.461L149.304 44.2441L151.132 40.7988H151.41L151.891 44.2793C151.904 44.3887 151.919 44.4824 151.935 44.5605C151.95 44.6387 151.966 44.7061 151.981 44.7627C151.997 44.8174 152.012 44.8633 152.025 44.9004C152.041 44.9355 152.056 44.9648 152.069 44.9883V45H151.331V44.9883C151.341 44.9668 151.35 44.9316 151.357 44.8828C151.367 44.834 151.372 44.7754 151.372 44.707C151.372 44.6816 151.371 44.6562 151.369 44.6309C151.367 44.6035 151.364 44.5742 151.36 44.543L150.988 41.7363L149.26 44.9883L149.058 44.9648L147.317 41.707C147.249 42.1699 147.189 42.5977 147.139 42.9902C147.117 43.1582 147.096 43.3262 147.074 43.4941C147.053 43.6602 147.033 43.8154 147.016 43.96C147 44.1045 146.987 44.2324 146.978 44.3438C146.968 44.4531 146.963 44.5342 146.963 44.5869C146.963 44.6533 146.965 44.7119 146.969 44.7627C146.973 44.8135 146.977 44.8564 146.98 44.8916C146.986 44.9326 146.992 44.9688 146.998 45H146.412V44.9883ZM152.731 40.7988C152.976 40.7988 153.218 40.7979 153.458 40.7959C153.7 40.7939 153.922 40.792 154.123 40.79C154.324 40.7861 154.496 40.7812 154.639 40.7754C154.781 40.7695 154.878 40.7617 154.929 40.752L154.785 41.1416C154.721 41.124 154.646 41.1084 154.56 41.0947C154.485 41.083 154.395 41.0723 154.287 41.0625C154.182 41.0508 154.06 41.0449 153.921 41.0449C153.874 41.0449 153.817 41.0469 153.751 41.0508C153.687 41.0527 153.624 41.0557 153.563 41.0596C153.493 41.0635 153.422 41.0674 153.35 41.0713V42.6709C153.551 42.6689 153.732 42.6631 153.895 42.6533C154.057 42.6436 154.194 42.6338 154.308 42.624C154.44 42.6123 154.558 42.5986 154.659 42.583L154.568 43.0078C154.434 42.9902 154.296 42.9736 154.155 42.958C154.034 42.9443 153.902 42.9326 153.76 42.9229C153.617 42.9111 153.48 42.9053 153.35 42.9053V44.7422C153.58 44.7422 153.792 44.7324 153.985 44.7129C154.179 44.6934 154.348 44.6709 154.492 44.6455C154.66 44.6182 154.813 44.5859 154.952 44.5488L154.867 45.0234C154.844 45.0215 154.809 45.0195 154.762 45.0176C154.715 45.0156 154.662 45.0137 154.604 45.0117C154.547 45.0098 154.486 45.0078 154.422 45.0059C154.359 45.0059 154.3 45.0049 154.243 45.0029C154.187 45.0029 154.136 45.002 154.091 45C154.048 45 154.017 45 153.997 45H152.731V44.9883C152.743 44.9473 152.754 44.8965 152.764 44.8359C152.775 44.7754 152.785 44.7002 152.793 44.6104C152.801 44.5205 152.807 44.4141 152.811 44.291C152.814 44.166 152.816 44.0205 152.816 43.8545V41.9473C152.816 41.7812 152.814 41.6367 152.811 41.5137C152.807 41.3887 152.801 41.2812 152.793 41.1914C152.785 41.0996 152.775 41.0234 152.764 40.9629C152.754 40.9023 152.743 40.8516 152.731 40.8105V40.7988ZM155.837 40.7988L158.854 44.0098V41.9473C158.854 41.7812 158.853 41.6367 158.849 41.5137C158.845 41.3887 158.839 41.2812 158.831 41.1914C158.823 41.0996 158.813 41.0234 158.802 40.9629C158.792 40.9023 158.781 40.8516 158.77 40.8105V40.7988H159.291V40.8105C159.279 40.8516 159.269 40.9023 159.259 40.9629C159.249 41.0234 159.24 41.0996 159.232 41.1914C159.225 41.2812 159.219 41.3887 159.215 41.5137C159.211 41.6367 159.209 41.7812 159.209 41.9473V45.0586H159.106L156.089 41.8506V43.8545C156.089 44.0205 156.091 44.166 156.095 44.291C156.099 44.4141 156.104 44.5205 156.112 44.6104C156.12 44.7002 156.129 44.7754 156.139 44.8359C156.148 44.8965 156.159 44.9473 156.171 44.9883V45H155.649V44.9883C155.661 44.9473 155.672 44.8965 155.682 44.8359C155.693 44.7754 155.703 44.7002 155.711 44.6104C155.719 44.5205 155.725 44.4141 155.729 44.291C155.732 44.166 155.734 44.0205 155.734 43.8545V41.9473C155.734 41.7812 155.732 41.6367 155.729 41.5137C155.725 41.3887 155.719 41.2812 155.711 41.1914C155.703 41.0996 155.693 41.0234 155.682 40.9629C155.672 40.9023 155.661 40.8516 155.649 40.8105V40.7988H155.837ZM161.213 41.0566C160.982 41.0566 160.774 41.0674 160.589 41.0889C160.403 41.1084 160.243 41.1299 160.108 41.1533C159.952 41.1826 159.812 41.2148 159.689 41.25L159.774 40.7754C159.798 40.7773 159.833 40.7793 159.88 40.7812C159.927 40.7832 159.979 40.7852 160.035 40.7871C160.094 40.7891 160.154 40.791 160.217 40.793C160.281 40.793 160.342 40.7939 160.398 40.7959C160.455 40.7959 160.505 40.7969 160.548 40.7988C160.593 40.7988 160.625 40.7988 160.645 40.7988H162.317C162.337 40.7988 162.368 40.7988 162.411 40.7988C162.456 40.7969 162.507 40.7959 162.563 40.7959C162.62 40.7939 162.68 40.793 162.742 40.793C162.807 40.791 162.867 40.7891 162.924 40.7871C162.982 40.7852 163.035 40.7832 163.082 40.7812C163.129 40.7793 163.164 40.7773 163.188 40.7754L163.272 41.25C163.147 41.2148 163.007 41.1826 162.851 41.1533C162.716 41.1299 162.556 41.1084 162.37 41.0889C162.185 41.0674 161.977 41.0566 161.746 41.0566V43.8545C161.746 44.0205 161.748 44.166 161.752 44.291C161.758 44.4141 161.764 44.5205 161.77 44.6104C161.777 44.7002 161.786 44.7754 161.796 44.8359C161.808 44.8965 161.819 44.9473 161.831 44.9883V45H161.131V44.9883C161.143 44.9473 161.153 44.8965 161.163 44.8359C161.173 44.7754 161.182 44.7002 161.189 44.6104C161.197 44.5205 161.203 44.4141 161.207 44.291C161.211 44.166 161.213 44.0205 161.213 43.8545V41.0566Z" fill="black"/>
<g clip-path="url(#clip1_929_21968)">
<path d="M188.307 33.7431L192.075 35.8926L191.01 31.6168L194.614 28.5701L190.065 28.259L188.307 24L186.549 28.259L182 28.5701L185.754 31.6168L184.703 35.8821L188.307 33.7431Z" fill="#F5C518"/>
<path d="M188.307 33.7431L192.075 35.8926L191.01 31.6168L194.614 28.5701L190.065 28.259L188.307 24L186.549 28.259L182 28.5701L185.754 31.6168L184.703 35.8821L188.307 33.7431Z" fill="#F5C518"/>
<path d="M188.307 24V26.5897V30.3981L190.109 28.2654L188.307 24Z" fill="#DAA520"/>
<path d="M188.307 24V26.5897V30.3981L190.109 28.2654L188.307 24Z" fill="#DAA520"/>
<path d="M194.614 28.5701L192.061 29.3318L188.307 30.3981L191.01 31.6168L194.614 28.5701Z" fill="#DAA520"/>
<path d="M194.614 28.5699L192.061 29.3316L188.307 30.3979L191.01 31.6166L194.614 28.5699Z" fill="#DAA520"/>
<path d="M181.999 28.5702L184.852 29.4842L188.306 30.3982L186.504 28.2655L181.999 28.5702Z" fill="#DAA520"/>
<path d="M182.001 28.5699L184.854 29.4839L188.308 30.3979L186.506 28.2653L182.001 28.5699Z" fill="#DAA520"/>
<path d="M192.074 35.8927L190.409 33.4451L188.306 30.3984L188.306 33.7498L192.074 35.8927Z" fill="#DAA520"/>
<path d="M192.076 35.8927L190.411 33.4451L188.308 30.3984L188.308 33.7498L192.076 35.8927Z" fill="#DAA520"/>
<path d="M184.703 35.8821L186.204 33.7494L187.406 31.9214L188.324 30.4157L185.754 31.6167L184.703 35.8821Z" fill="#DAA520"/>
<path d="M184.703 35.8821L186.204 33.7494L187.406 31.9214L188.324 30.4157L185.754 31.6167L184.703 35.8821Z" fill="#DAA520"/>
</g>
<defs>
<clipPath id="clip0_929_21968">
<rect width="63" height="63" fill="white"/>
</clipPath>
<clipPath id="clip1_929_21968">
<rect width="13" height="13" fill="white" transform="translate(182 24)"/>
</clipPath>
</defs>
</svg>
