<svg width="40" height="40" viewBox="0 0 40 40" fill="none" xmlns="http://www.w3.org/2000/svg">
<path d="M0 20C0 8.95431 8.95431 0 20 0C31.0457 0 40 8.95431 40 20C40 31.0457 31.0457 40 20 40C8.95431 40 0 31.0457 0 20Z" fill="#FEF3F2"/>
<path d="M19.16 23.3333C19.16 22.8731 19.5331 22.5 19.9933 22.5H20.0008C20.4611 22.5 20.8341 22.8731 20.8341 23.3333C20.8341 23.7936 20.4611 24.1666 20.0008 24.1666H19.9933C19.5331 24.1666 19.16 23.7936 19.16 23.3333Z" fill="#D92D20"/>
<path d="M19.3748 20.8333C19.3748 21.1785 19.6547 21.4583 19.9998 21.4583C20.345 21.4583 20.6248 21.1785 20.6248 20.8333V17.5C20.6248 17.1548 20.345 16.875 19.9998 16.875C19.6547 16.875 19.3748 17.1548 19.3748 17.5V20.8333Z" fill="#D92D20"/>
<path fill-rule="evenodd" clip-rule="evenodd" d="M18.6348 11.6791C19.5219 11.3847 20.4778 11.3847 21.3649 11.6791C22.2482 11.9724 22.9418 12.6678 23.6386 13.6449C24.3331 14.6188 25.1005 15.9767 26.0897 17.7271L26.1285 17.7958C27.1179 19.5464 27.8852 20.9042 28.3635 22.0054C28.844 23.1119 29.0833 24.0673 28.8924 24.9851C28.7001 25.9092 28.226 26.7496 27.5355 27.3847C26.8467 28.0183 25.9088 28.2856 24.7278 28.414C23.5536 28.5417 22.0175 28.5417 20.0405 28.5416H19.9592C17.9822 28.5417 16.4461 28.5417 15.2719 28.414C14.0909 28.2856 13.153 28.0183 12.4642 27.3847C11.7737 26.7496 11.2996 25.9092 11.1073 24.9851C10.9163 24.0673 11.1557 23.1119 11.6362 22.0054C12.1144 20.9042 12.8818 19.5464 13.8712 17.7958L13.91 17.7271C14.8992 15.9767 15.6666 14.6188 16.3611 13.6449C17.0579 12.6678 17.7515 11.9724 18.6348 11.6791ZM20.9711 12.8655C20.3397 12.6559 19.66 12.6559 19.0286 12.8655C18.532 13.0304 18.0327 13.4537 17.3788 14.3707C16.7271 15.2845 15.9915 16.5845 14.9787 18.3766C13.966 20.1685 13.2317 21.4696 12.7828 22.5033C12.333 23.5389 12.2204 24.1983 12.3311 24.7305C12.4708 25.4018 12.8145 26.0085 13.3104 26.4647C13.7 26.8231 14.3069 27.0517 15.407 27.1713C16.5056 27.2908 17.9737 27.2916 19.9998 27.2916C22.026 27.2916 23.494 27.2908 24.5927 27.1713C25.6927 27.0517 26.2997 26.8231 26.6892 26.4647C27.1852 26.0085 27.5289 25.4018 27.6686 24.7305C27.7793 24.1983 27.6667 23.5389 27.2169 22.5033C26.768 21.4696 26.0337 20.1685 25.021 18.3766C24.0082 16.5845 23.2725 15.2845 22.6209 14.3707C21.967 13.4537 21.4677 13.0304 20.9711 12.8655Z" fill="#D92D20"/>
</svg>
