<svg width="32" height="32" viewBox="0 0 32 32" fill="none" xmlns="http://www.w3.org/2000/svg">
<path d="M16.0002 12C14.9393 12 13.9219 12.4214 13.1717 13.1716C12.4216 13.9217 12.0002 14.9391 12.0002 16C12.0002 17.0609 12.4216 18.0783 13.1717 18.8284C13.9219 19.5786 14.9393 20 16.0002 20C17.061 20 18.0784 19.5786 18.8286 18.8284C19.5787 18.0783 20.0002 17.0609 20.0002 16C20.0002 14.9391 19.5787 13.9217 18.8286 13.1716C18.0784 12.4214 17.061 12 16.0002 12ZM16.0002 22.6667C14.2321 22.6667 12.5364 21.9643 11.2861 20.714C10.0359 19.4638 9.3335 17.7681 9.3335 16C9.3335 14.2319 10.0359 12.5362 11.2861 11.286C12.5364 10.0357 14.2321 9.33333 16.0002 9.33333C17.7683 9.33333 19.464 10.0357 20.7142 11.286C21.9645 12.5362 22.6668 14.2319 22.6668 16C22.6668 17.7681 21.9645 19.4638 20.7142 20.714C19.464 21.9643 17.7683 22.6667 16.0002 22.6667ZM16.0002 6C9.3335 6 3.64016 10.1467 1.3335 16C3.64016 21.8533 9.3335 26 16.0002 26C22.6668 26 28.3602 21.8533 30.6668 16C28.3602 10.1467 22.6668 6 16.0002 6Z" fill="black"/>
</svg>
