<svg width="200" height="200" viewBox="0 0 200 200" fill="none" xmlns="http://www.w3.org/2000/svg">
<g clip-path="url(#clip0_761_36817)">
<path d="M106.247 189.5C146.819 189.5 179.71 155.166 179.71 112.812C179.71 70.4591 146.819 36.125 106.247 36.125C65.6741 36.125 32.7836 70.4591 32.7836 112.812C32.7836 155.166 65.6741 189.5 106.247 189.5Z" fill="url(#paint0_linear_761_36817)"/>
<path d="M68.6728 123.265L92.8288 54.0229L157.925 125.873L101.705 152.814C82.4527 162.04 61.6407 143.423 68.6728 123.265Z" fill="#E1DCEB"/>
<path d="M93.8517 53.6319C94.285 53.2074 94.9174 52.963 95.7864 52.9425C96.6593 52.922 97.7377 53.1292 99.0062 53.5715C101.543 54.4561 104.74 56.2455 108.39 58.8115C115.682 63.9392 124.689 72.104 133.671 82.0936C142.652 92.0832 149.888 101.983 154.328 109.905C156.55 113.87 158.059 117.315 158.744 120.014C159.087 121.363 159.217 122.5 159.142 123.408C159.067 124.312 158.793 124.954 158.359 125.379C157.926 125.803 157.295 126.048 156.426 126.068C155.553 126.089 154.475 125.882 153.206 125.439C150.67 124.555 147.471 122.766 143.821 120.199C136.529 115.072 127.523 106.906 118.541 96.9166C109.56 86.927 102.323 77.0275 97.883 69.1055C95.6608 65.1409 94.1533 61.6959 93.4682 58.9973C93.1256 57.6477 92.9959 56.5112 93.0708 55.6031C93.1454 54.6992 93.4186 54.0565 93.8517 53.6319Z" fill="black" stroke="black"/>
<mask id="mask0_761_36817" style="mask-type:alpha" maskUnits="userSpaceOnUse" x="67" y="54" width="91" height="102">
<path d="M68.6728 123.265L92.8288 54.0229L157.925 125.873L101.705 152.814C82.4527 162.04 61.6407 143.423 68.6728 123.265Z" fill="#E1DCEB"/>
</mask>
<g mask="url(#mask0_761_36817)">
<path fill-rule="evenodd" clip-rule="evenodd" d="M91.3814 112.861C78.3393 95.0312 71.7403 73.775 69.6119 59.5042L80.1141 57.7974C82.0299 70.643 88.077 90.0614 99.829 106.127C111.47 122.042 128.502 134.453 152.792 134.453V145.548C124.445 145.548 104.534 130.842 91.3814 112.861Z" fill="black"/>
<path fill-rule="evenodd" clip-rule="evenodd" d="M92.7815 109.451C79.7393 91.6213 73.1404 70.3651 71.012 56.0943L81.5141 54.3875C83.43 67.2331 89.477 86.6515 101.229 102.717C112.87 118.632 129.902 131.043 154.192 131.043V142.138C125.845 142.138 105.934 127.432 92.7815 109.451Z" fill="white"/>
<path fill-rule="evenodd" clip-rule="evenodd" d="M75.9824 135.269C62.9402 117.439 56.3413 96.1828 54.2129 81.9119L64.7151 80.2051C66.6309 93.0507 72.6779 112.469 84.4299 128.535C96.0713 144.45 113.103 156.86 137.393 156.86V167.955C109.046 167.955 89.1352 153.249 75.9824 135.269Z" fill="white"/>
</g>
<ellipse cx="121.565" cy="149.688" rx="18.7565" ry="19.5798" fill="black"/>
<path fill-rule="evenodd" clip-rule="evenodd" d="M129.154 143.747C129.881 144.518 129.87 145.757 129.132 146.515L120.227 155.653C119.497 156.402 118.327 156.402 117.597 155.653L113.998 151.959C113.259 151.201 113.249 149.961 113.975 149.19C114.701 148.419 115.889 148.408 116.627 149.166L118.912 151.511L126.502 143.723C127.241 142.965 128.428 142.975 129.154 143.747Z" fill="white"/>
<path d="M157.167 56.6244L157.098 56.6L157.095 56.5986C156.746 56.4569 156.537 56.0435 156.646 55.6374L156.672 55.5563C157.943 52.1847 158.297 48.8044 158.833 45.3853C158.906 44.927 159.309 44.6505 159.698 44.7174L159.77 44.7344C160.102 44.8284 160.348 45.1611 160.325 45.5535L160.316 45.6381C159.776 49.0795 159.406 52.293 158.297 55.5027L158.066 56.1448C157.916 56.544 157.517 56.7272 157.167 56.6244Z" fill="black" stroke="black"/>
<path d="M164.576 63.9159C164.262 64.144 163.839 64.0848 163.592 63.7841L163.545 63.7203C163.301 63.3554 163.389 62.8459 163.738 62.5917C169.851 58.1742 175.844 52.2742 180.392 46.0613L180.828 45.4587C181.066 45.1255 181.489 45.0523 181.807 45.2496L181.869 45.2928C182.179 45.5325 182.272 45.9954 182.066 46.3547L182.021 46.4243C177.478 52.7815 171.412 58.866 165.18 63.4748L164.577 63.916L164.576 63.9159Z" fill="black" stroke="black"/>
<path d="M181.317 69.395C176.269 70.9005 170.739 71.6564 165.711 70.0544L165.711 70.0553C165.353 69.9409 165.115 69.5452 165.194 69.1339L165.213 69.0519C165.333 68.6434 165.719 68.4267 166.077 68.5003L166.149 68.5192C170.696 69.9676 175.601 69.3373 180.039 68.105L180.919 67.8515C181.279 67.7453 181.669 67.9365 181.814 68.3159L181.839 68.3943L181.84 68.3954L181.858 68.4769C181.929 68.8845 181.688 69.2818 181.317 69.395Z" fill="black" stroke="black"/>
<ellipse cx="165.955" cy="79.8535" rx="3.75131" ry="3.91595" fill="#CCC6D9"/>
<ellipse cx="134.694" cy="39.3886" rx="3.75131" ry="3.91595" fill="#CCC6D9"/>
<path d="M141.91 56.6584C141.587 55.2591 139.68 55.2591 139.356 56.6584L138.937 58.4709C138.822 58.971 138.448 59.3614 137.969 59.4821L136.232 59.9196C134.892 60.2574 134.892 62.2478 136.232 62.5856L137.969 63.0231C138.448 63.1438 138.822 63.5343 138.937 64.0343L139.356 65.8469C139.68 67.2462 141.587 67.2462 141.91 65.8469L142.329 64.0343C142.445 63.5343 142.819 63.1438 143.298 63.0231L145.034 62.5856C146.375 62.2478 146.375 60.2574 145.034 59.9196L143.298 59.4821C142.819 59.3614 142.445 58.971 142.329 58.4709L141.91 56.6584Z" fill="#E3E3E3"/>
<path fill-rule="evenodd" clip-rule="evenodd" d="M125.919 26.5379C126.298 27.5443 125.824 28.6809 124.86 29.0766C122.108 30.2062 118.582 33.8446 116.227 38.3732C114.435 41.8204 113.564 45.3017 113.93 48.1508C115.031 46.5101 116.349 45.1643 117.878 44.2998C120.619 42.75 123.746 42.9145 126.773 45.0681C129.419 46.9499 130.497 49.6275 130.212 52.2954C129.938 54.8462 128.448 57.1522 126.426 58.6009C124.373 60.0712 121.648 60.7492 118.837 59.8506C117.243 59.3412 115.715 58.3561 114.316 56.8603C112.982 62.2828 113.03 69.0751 115.235 75.0823C115.606 76.0921 115.122 77.2243 114.155 77.6113C113.187 77.9982 112.103 77.4934 111.732 76.4836C108.824 68.5611 109.202 59.513 111.573 52.9231C111.506 52.796 111.439 52.6672 111.373 52.5366C108.878 47.6192 110.372 41.4262 112.93 36.5053C115.508 31.5464 119.597 27.0292 123.487 25.4323C124.451 25.0366 125.54 25.5316 125.919 26.5379ZM115.785 52.5864C117.202 54.6871 118.672 55.7024 119.935 56.1063C121.526 56.6149 123.077 56.2501 124.303 55.3721C125.559 54.4724 126.348 53.1245 126.484 51.8604C126.606 50.7133 126.222 49.4149 124.661 48.3041C122.682 46.8963 121.056 46.9561 119.665 47.743C118.277 48.5277 116.903 50.1696 115.785 52.5864Z" fill="#E3E3E3"/>
<path fill-rule="evenodd" clip-rule="evenodd" d="M186.467 103.115C166.807 95.4866 151.761 104.972 146.896 110.337C145.709 111.646 143.73 111.702 142.476 110.463C141.223 109.224 141.168 107.159 142.355 105.85C148.534 99.0369 166.122 88.258 188.646 96.9971C190.264 97.625 191.088 99.5035 190.487 101.193C189.885 102.882 188.086 103.743 186.467 103.115Z" fill="#CCC6D9"/>
<path fill-rule="evenodd" clip-rule="evenodd" d="M166.467 109.973C166.905 109.805 167.367 109.582 167.723 109.26C168.146 108.877 168.318 108.383 168.433 107.863C168.582 107.196 168.641 106.485 168.821 105.816C168.887 105.568 169.015 105.474 169.07 105.432C169.209 105.327 169.35 105.299 169.482 105.309C169.638 105.322 169.853 105.385 169.995 105.667C170.015 105.707 170.041 105.768 170.059 105.853C170.072 105.914 170.08 106.107 170.094 106.187C170.128 106.382 170.156 106.578 170.183 106.775C170.272 107.431 170.323 107.987 170.604 108.589C170.986 109.407 171.368 109.907 171.886 110.128C172.388 110.343 172.987 110.302 173.753 110.134C173.826 110.115 173.898 110.099 173.969 110.086C174.307 110.023 174.63 110.26 174.696 110.621C174.762 110.982 174.548 111.333 174.213 111.412C174.143 111.429 174.074 111.444 174.006 111.459C172.971 111.734 171.773 112.714 171.077 113.573C170.863 113.838 170.549 114.578 170.228 115.05C169.992 115.399 169.726 115.628 169.503 115.71C169.353 115.764 169.227 115.756 169.123 115.728C168.972 115.688 168.846 115.6 168.75 115.461C168.697 115.384 168.649 115.281 168.625 115.151C168.614 115.088 168.613 114.927 168.613 114.855C168.548 114.614 168.468 114.379 168.41 114.135C168.271 113.555 167.998 113.188 167.675 112.703C167.372 112.249 167.047 111.963 166.57 111.735C166.508 111.719 166.007 111.588 165.83 111.512C165.572 111.402 165.449 111.216 165.405 111.117C165.329 110.947 165.321 110.799 165.336 110.676C165.358 110.494 165.435 110.338 165.57 110.212C165.653 110.134 165.778 110.058 165.946 110.021C166.075 109.992 166.418 109.975 166.467 109.973ZM169.403 109.027C169.426 109.083 169.451 109.139 169.477 109.195C170.036 110.392 170.66 111.06 171.42 111.385L171.445 111.395C170.937 111.8 170.477 112.252 170.126 112.686C169.981 112.864 169.79 113.235 169.583 113.615C169.394 112.959 169.087 112.496 168.7 111.916C168.405 111.473 168.095 111.14 167.714 110.868C168.01 110.706 168.291 110.515 168.537 110.293C168.945 109.922 169.215 109.493 169.403 109.027Z" fill="#E3E3E3"/>
<path d="M56.2519 109.947C56.7567 109.563 57.4659 109.639 57.8796 110.125L57.9558 110.223C58.31 110.73 58.25 111.448 57.7846 111.886L57.7847 111.887C55.378 114.147 54.0117 116.94 53.6136 120.307L53.6125 120.306C53.5346 120.984 52.9344 121.495 52.2494 121.405L52.2493 121.404C51.5769 121.314 51.1201 120.68 51.2012 120.009L51.2021 120.008C51.6715 116.043 53.2972 112.714 56.1535 110.03L56.2519 109.947Z" fill="black" stroke="black"/>
<path d="M6.09028 116.365C11.2099 113.14 17.5623 114.267 21.4365 118.955C21.7918 118.503 22.1699 118.072 22.5669 117.663L22.8134 117.416C28.0398 112.308 36.6508 112.436 43.9662 117.629L43.9664 117.63L44.1931 117.797C45.3172 118.669 46.2911 119.978 47.1336 121.535C48.035 123.202 48.8033 125.187 49.447 127.307L49.7118 128.208C50.7132 131.734 51.4182 135.574 51.916 138.857C52.2873 137.386 52.7163 135.935 53.1779 134.482L53.1778 134.481L54.2239 131.172C56.6773 123.413 59.3358 115.465 64.3709 108.999L64.3727 108.997L64.4563 108.901C64.8958 108.444 65.6068 108.398 66.0939 108.817L66.0948 108.817C66.5736 109.226 66.6679 109.939 66.3353 110.466L66.2624 110.569C61.4457 116.756 58.9171 124.385 56.5151 132L55.4867 135.258C54.6272 137.962 53.8965 140.634 53.4448 143.423L53.4449 143.424C53.3066 144.266 53.1648 145.081 53.0704 145.908C53.0706 145.902 53.0701 145.903 53.0714 145.915C53.0732 145.931 53.0774 145.955 53.085 145.99C53.0927 146.026 53.1011 146.062 53.1124 146.11L53.1462 146.266L53.1469 146.27L53.1791 146.473C53.2077 146.678 53.2239 146.89 53.2071 147.077L53.2068 147.081C53.1624 147.536 52.9581 147.895 52.6551 148.134L52.6525 148.136C52.4304 148.309 52.138 148.433 51.7694 148.425L51.7644 148.425C51.6424 148.422 51.4619 148.402 51.2711 148.311C51.0761 148.217 50.8981 148.061 50.7587 147.829L50.7589 147.83C50.7163 147.761 50.6877 147.68 50.6708 147.63C50.6493 147.565 50.6267 147.487 50.6044 147.397C50.5595 147.214 50.5122 146.97 50.4732 146.667L50.4731 146.666L50.1545 143.972C49.7647 140.736 49.0807 135.65 47.8922 130.856L47.5551 129.557C46.9567 127.35 46.2596 125.264 45.4304 123.532C44.6491 121.901 43.7707 120.626 42.7849 119.849L42.5867 119.701C36.1379 115.123 28.8194 115.005 24.4841 119.234L24.2803 119.439C23.749 119.986 23.2632 120.579 22.8268 121.209C22.9923 121.703 23.1425 122.316 23.2317 122.949C23.3235 123.6 23.3595 124.303 23.2774 124.932L23.2345 125.198C23.1119 125.832 22.8488 126.403 22.4248 126.806L22.2331 126.969C21.6994 127.37 20.9958 127.527 20.1349 127.284L19.9601 127.23C19.1099 126.943 18.7222 126.192 18.6657 125.374C18.612 124.627 18.8558 123.756 18.9961 123.358L19.1158 123.029C19.3659 122.371 19.6617 121.734 19.997 121.123C16.8299 116.78 11.2568 115.765 6.9393 118.782L6.93834 118.782C6.36478 119.182 5.60893 119.006 5.24352 118.437L5.24211 118.434C4.8863 117.872 5.01802 117.096 5.58195 116.703L6.09028 116.365Z" fill="black" stroke="black"/>
</g>
<defs>
<linearGradient id="paint0_linear_761_36817" x1="105.68" y1="11.1537" x2="107.32" y2="280.467" gradientUnits="userSpaceOnUse">
<stop stop-color="#F2F2F2"/>
<stop offset="1" stop-color="#EFEFEF"/>
</linearGradient>
<clipPath id="clip0_761_36817">
<rect width="200" height="199" fill="white" transform="translate(0 0.5)"/>
</clipPath>
</defs>
</svg>
