<svg width="24" height="24" viewBox="0 0 24 24" fill="none" xmlns="http://www.w3.org/2000/svg">
<path d="M15.855 18.8249C15.645 19.0275 15.36 19.1399 15.075 19.1399C14.925 19.1399 14.775 19.1099 14.64 19.0499C14.22 18.8699 13.95 18.465 13.95 18.0149V15.885H12.5325V20.16C12.5325 20.67 12.195 21.1124 11.7 21.2474L2.98501 23.5875C2.89501 23.6099 2.79751 23.625 2.70001 23.625C2.45254 23.625 2.21254 23.5425 2.01003 23.3925C1.73253 23.1824 1.57501 22.8524 1.57501 22.5V1.49996C1.57501 1.14743 1.73253 0.817435 2.01003 0.607457C2.28753 0.397435 2.64756 0.322457 2.98502 0.41245L11.7 2.75245C12.195 2.88744 12.5325 3.32996 12.5325 3.83996V8.11497H13.95V5.98494C13.95 5.53496 14.22 5.12993 14.64 4.94994C15.0525 4.76995 15.5325 4.85994 15.855 5.17493L22.0875 11.1899C22.305 11.4 22.425 11.6924 22.425 12C22.425 12.3074 22.305 12.6 22.0875 12.8099L15.855 18.8249ZM10.2825 4.70243L3.82501 2.96993V21.0299L10.2825 19.2974V15.885H8.08506C7.46254 15.885 6.96006 15.3825 6.96006 14.76V9.23996C6.96006 8.61744 7.46254 8.11496 8.08506 8.11496H10.2825V4.70243Z" fill="white"/>
</svg>
