<svg width="24" height="24" viewBox="0 0 24 24" fill="none" xmlns="http://www.w3.org/2000/svg">
<path d="M14 9C13.7167 9 13.4793 8.904 13.288 8.712C13.0967 8.52 13.0007 8.28267 13 8V4C13 3.71667 13.096 3.47933 13.288 3.288C13.48 3.09667 13.7173 3.00067 14 3H20C20.2833 3 20.521 3.096 20.713 3.288C20.905 3.48 21.0007 3.71733 21 4V8C21 8.28333 20.904 8.521 20.712 8.713C20.52 8.905 20.2827 9.00067 20 9H14ZM4 13C3.71667 13 3.47933 12.904 3.288 12.712C3.09667 12.52 3.00067 12.2827 3 12V4C3 3.71667 3.096 3.47933 3.288 3.288C3.48 3.09667 3.71733 3.00067 4 3H10C10.2833 3 10.521 3.096 10.713 3.288C10.905 3.48 11.0007 3.71733 11 4V12C11 12.2833 10.904 12.521 10.712 12.713C10.52 12.905 10.2827 13.0007 10 13H4ZM14 21C13.7167 21 13.4793 20.904 13.288 20.712C13.0967 20.52 13.0007 20.2827 13 20V12C13 11.7167 13.096 11.4793 13.288 11.288C13.48 11.0967 13.7173 11.0007 14 11H20C20.2833 11 20.521 11.096 20.713 11.288C20.905 11.48 21.0007 11.7173 21 12V20C21 20.2833 20.904 20.521 20.712 20.713C20.52 20.905 20.2827 21.0007 20 21H14ZM4 21C3.71667 21 3.47933 20.904 3.288 20.712C3.09667 20.52 3.00067 20.2827 3 20V16C3 15.7167 3.096 15.4793 3.288 15.288C3.48 15.0967 3.71733 15.0007 4 15H10C10.2833 15 10.521 15.096 10.713 15.288C10.905 15.48 11.0007 15.7173 11 16V20C11 20.2833 10.904 20.521 10.712 20.713C10.52 20.905 10.2827 21.0007 10 21H4Z" fill="white"/>
</svg>
