<svg width="158" height="132" viewBox="0 0 158 132" fill="none" xmlns="http://www.w3.org/2000/svg">
<path d="M158 115.862H0V115.95H158V115.862Z" fill="#EBEBEB"/>
<path d="M142.168 121.532H131.702V121.62H142.168V121.532Z" fill="#EBEBEB"/>
<path d="M127.724 121.532H105.348V121.62H127.724V121.532Z" fill="#EBEBEB"/>
<path d="M93.0081 118.262H86.9441V118.35H93.0081V118.262Z" fill="#EBEBEB"/>
<path d="M27.4128 118.854H16.5771V118.942H27.4128V118.854Z" fill="#EBEBEB"/>
<path d="M49.9282 118.854H30.2256V118.942H49.9282V118.854Z" fill="#EBEBEB"/>
<path d="M71.1442 120.341H59.5122V120.429H71.1442V120.341Z" fill="#EBEBEB"/>
<path d="M74.8921 100.144H13.8757C13.3977 100.143 12.9395 99.9306 12.6018 99.5533C12.2641 99.176 12.0745 98.6647 12.0745 98.1316V2.47371C12.0786 1.94368 12.2701 1.43688 12.6074 1.0634C12.9446 0.689914 13.4004 0.479912 13.8757 0.479004H74.8921C75.3707 0.479004 75.8296 0.691017 76.168 1.0684C76.5064 1.44579 76.6965 1.95763 76.6965 2.49133V98.1316C76.6965 98.6653 76.5064 99.1772 76.168 99.5546C75.8296 99.932 75.3707 100.144 74.8921 100.144ZM13.8757 0.549489C13.4186 0.550422 12.9806 0.753564 12.6577 1.11432C12.3348 1.47509 12.1535 1.96399 12.1535 2.47371V98.1316C12.1535 98.6414 12.3348 99.1303 12.6577 99.491C12.9806 99.8518 13.4186 100.055 13.8757 100.056H74.8921C75.3494 100.055 75.7878 99.8519 76.1112 99.4912C76.4346 99.1306 76.6166 98.6417 76.6175 98.1316V2.47371C76.6166 1.96366 76.4346 1.47477 76.1112 1.11411C75.7878 0.753449 75.3494 0.55042 74.8921 0.549489H13.8757Z" fill="#EBEBEB"/>
<path d="M143.246 100.144H82.2265C81.7482 100.143 81.2897 99.9307 80.9515 99.5535C80.6133 99.1764 80.423 98.665 80.4221 98.1316V2.47371C80.4271 1.94336 80.6193 1.43656 80.9571 1.06318C81.2948 0.689791 81.7509 0.479902 82.2265 0.479004H143.246C143.721 0.480838 144.176 0.69125 144.512 1.06463C144.849 1.43802 145.04 1.94429 145.044 2.47371V98.1316C145.044 98.6641 144.855 99.1749 144.518 99.5521C144.181 99.9293 143.724 100.142 143.246 100.144ZM82.2265 0.549489C81.7691 0.55042 81.3308 0.753449 81.0074 1.11411C80.684 1.47477 80.502 1.96366 80.5011 2.47371V98.1316C80.502 98.6417 80.684 99.1306 81.0074 99.4912C81.3308 99.8519 81.7691 100.055 82.2265 100.056H143.246C143.703 100.055 144.142 99.8519 144.465 99.4912C144.789 99.1306 144.971 98.6417 144.971 98.1316V2.47371C144.971 1.96366 144.789 1.47477 144.465 1.11411C144.142 0.753449 143.703 0.55042 143.246 0.549489H82.2265Z" fill="#EBEBEB"/>
<path d="M23.9657 49.1908L66.8469 49.1908V7.75653L23.9657 7.75653L23.9657 49.1908Z" fill="#E6E6E6"/>
<path d="M23.008 49.1908L65.8892 49.1908V7.75653L23.008 7.75653L23.008 49.1908Z" fill="#F5F5F5"/>
<path d="M64.1797 47.7106V9.23669L24.7208 9.23669V47.7106H64.1797Z" fill="#FAFAFA"/>
<path d="M48.3542 47.7106L55.5053 9.23669H40.5459L33.3979 47.7106H48.3542Z" fill="white"/>
<path d="M25.4412 47.7142L25.4412 9.2403H24.7207L24.7207 47.7142H25.4412Z" fill="#E6E6E6"/>
<path d="M23.7156 40.8136L65.1812 40.8136V38.8259L23.7156 38.8259V40.8136Z" fill="#F5F5F5"/>
<path d="M64.8559 113.765H71.7036V80.648H64.8559V113.765Z" fill="#F0F0F0"/>
<path d="M20.1389 115.862H70.3923V113.765H20.1389V115.862Z" fill="#F0F0F0"/>
<path d="M64.8557 80.6445H18.8208V113.762H64.8557V80.6445Z" fill="#F5F5F5"/>
<path d="M62.1666 84.722H21.5132V95.5837H62.1666V84.722Z" fill="#F0F0F0"/>
<path d="M62.1666 98.8258H21.5132V109.687H62.1666V98.8258Z" fill="#F0F0F0"/>
<path d="M30.8826 90.8965H52.7972C52.9738 90.8956 53.1429 90.8169 53.2677 90.6777C53.3926 90.5384 53.4631 90.3498 53.4639 90.1529C53.4631 89.9556 53.3927 89.7667 53.2679 89.6269C53.1432 89.487 52.974 89.4076 52.7972 89.4058H30.8826C30.7057 89.4076 30.5366 89.487 30.4118 89.6269C30.2871 89.7667 30.2166 89.9556 30.2158 90.1529C30.2167 90.3498 30.2872 90.5384 30.412 90.6777C30.5369 90.8169 30.706 90.8956 30.8826 90.8965Z" fill="#F5F5F5"/>
<path d="M30.8826 105.001H52.7972C52.9738 105 53.1429 104.921 53.2677 104.782C53.3926 104.642 53.4631 104.454 53.4639 104.257C53.4639 104.059 53.3938 103.87 53.2688 103.73C53.1439 103.59 52.9743 103.511 52.7972 103.51H30.8826C30.7055 103.511 30.5359 103.59 30.4109 103.73C30.286 103.87 30.2158 104.059 30.2158 104.257C30.2167 104.454 30.2872 104.642 30.412 104.782C30.5369 104.921 30.706 105 30.8826 105.001Z" fill="#F5F5F5"/>
<path d="M136.392 29.4129C140.292 28.2147 141.625 20.3239 131.772 17.1028C133.946 25.0393 129.595 31.4922 136.392 29.4129Z" fill="#EBEBEB"/>
<path d="M137.255 32.8384C140.329 29.1345 137.422 20.7539 126.349 24.1794C132.612 30.2904 131.898 39.2983 137.255 32.8384Z" fill="#E0E0E0"/>
<path d="M134.221 33.79C131.649 30.9495 135.333 21.064 143.827 25.6455C139.015 30.7874 138.724 38.7415 134.221 33.79Z" fill="#FAFAFA"/>
<path d="M131.655 39.3229H139.141L139.707 33.6736H131.093L131.655 39.3229Z" fill="#E6E6E6"/>
<path d="M131.007 34.6852H139.792C139.94 34.6852 140.083 34.6195 140.188 34.5025C140.293 34.3855 140.351 34.2268 140.351 34.0614C140.351 33.896 140.293 33.7373 140.188 33.6203C140.083 33.5033 139.94 33.4376 139.792 33.4376H131.007C130.859 33.4376 130.717 33.5033 130.612 33.6203C130.507 33.7373 130.448 33.896 130.448 34.0614C130.448 34.2268 130.507 34.3855 130.612 34.5025C130.717 34.6195 130.859 34.6852 131.007 34.6852Z" fill="#E6E6E6"/>
<path d="M68.6701 106.294V96.7255H75.8149V87.1608H82.9628V77.5925H90.1076V68.0242H97.2555V58.4595H104.4V48.8913H111.548V39.323H118.696H158V115.862H68.6701H61.5222V106.294H68.6701Z" fill="#FAFAFA"/>
<path d="M107.974 106.294V96.7255H115.122V87.1608H122.267V77.5925H129.415V68.0242H136.559V58.4595H143.707V48.8913H150.852V39.323H158V48.8913V115.862H107.974H100.829V106.294H107.974Z" fill="#E0E0E0"/>
<path d="M100.83 106.294H61.1021V109.163H100.83V106.294Z" fill="#EBEBEB"/>
<path d="M107.977 96.7256H68.2498V99.5943H107.977V96.7256Z" fill="#EBEBEB"/>
<path d="M115.122 87.1606H75.3945V90.0294H115.122V87.1606Z" fill="#EBEBEB"/>
<path d="M122.27 77.5925H82.5422V80.4612H122.27V77.5925Z" fill="#EBEBEB"/>
<path d="M129.415 68.0242H89.6873V70.8929H129.415V68.0242Z" fill="#EBEBEB"/>
<path d="M136.562 58.4595H96.835V61.3282H136.562V58.4595Z" fill="#EBEBEB"/>
<path d="M143.707 48.8912H103.98V51.76H143.707V48.8912Z" fill="#EBEBEB"/>
<path d="M150.855 39.323H111.127V42.1917H150.855V39.323Z" fill="#EBEBEB"/>
<path d="M79 131.777C112.838 131.777 140.269 129.991 140.269 127.788C140.269 125.585 112.838 123.798 79 123.798C45.1619 123.798 17.7307 125.585 17.7307 127.788C17.7307 129.991 45.1619 131.777 79 131.777Z" fill="#F5F5F5"/>
<path d="M105.765 37.0005C105.708 38.0578 105.598 39.027 105.475 40.0314C105.351 41.0358 105.184 42.019 104.994 43.0058C104.625 45.003 104.09 46.9578 103.398 48.8455L103.111 49.5503L103.041 49.7265L103.016 49.8181L102.966 49.9309C102.869 50.1521 102.747 50.3583 102.602 50.5441C102.43 50.7603 102.224 50.9405 101.995 51.0763C101.771 51.2078 101.527 51.2937 101.275 51.33C100.888 51.3761 100.497 51.3305 100.128 51.1961C99.6042 50.9967 99.1101 50.7117 98.6616 50.3503C98.2693 50.0418 97.8947 49.7064 97.5398 49.3459C96.2098 47.9705 95.013 46.4432 93.969 44.7891L95.015 43.7988C95.647 44.4507 96.279 45.1098 96.911 45.7336C97.5393 46.3572 98.1953 46.9453 98.8765 47.4957C99.1971 47.7515 99.5305 47.9868 99.875 48.2005C100.153 48.3884 100.453 48.5319 100.766 48.6269C100.874 48.6516 100.949 48.6269 100.915 48.6269C100.84 48.6362 100.77 48.672 100.716 48.7292C100.697 48.7292 100.697 48.7292 100.716 48.7292L100.817 48.4366L101.038 47.7952C101.586 46.0293 102.014 44.2198 102.318 42.382C102.485 41.4587 102.602 40.5177 102.729 39.5838C102.855 38.6499 102.943 37.6878 103.016 36.7961L105.765 37.0005Z" fill="#FFC3BD"/>
<path d="M103.85 33.1204C102.671 33.4552 101.847 38.8613 101.847 38.8613L105.092 41.3283C105.092 41.3283 108.205 35.8763 107.304 34.4314C106.356 32.9195 105.569 32.634 103.85 33.1204Z" fill="#9099A5"/>
<path d="M103.85 33.1204C102.671 33.4552 101.847 38.8613 101.847 38.8613L105.092 41.3283C105.092 41.3283 108.205 35.8763 107.304 34.4314C106.356 32.9195 105.569 32.634 103.85 33.1204Z" fill="#9099A5"/>
<path opacity="0.4" d="M103.85 33.1204C102.671 33.4552 101.847 38.8613 101.847 38.8613L105.092 41.3283C105.092 41.3283 108.205 35.8763 107.304 34.4314C106.356 32.9195 105.569 32.634 103.85 33.1204Z" fill="black"/>
<path opacity="0.3" d="M103.954 34.3293L103.051 39.7743L104.874 41.1558L103.954 34.3293Z" fill="black"/>
<path d="M95.0683 43.5766L93.5357 40.856L92.6604 43.9467C92.6604 43.9467 93.9244 45.4269 95.0715 45.0744L95.0683 43.5766Z" fill="#FFC3BD"/>
<path d="M91.2605 39.9574L90.6538 42.5865L92.6478 43.9468L93.5231 40.8561L91.2605 39.9574Z" fill="#FFC3BD"/>
<path d="M110.221 124.091H107.364L107.171 116.711H110.031L110.221 124.091Z" fill="#FFC3BD"/>
<path d="M135.434 109.289L133.257 111.355L128.274 106.392L130.451 104.331L135.434 109.289Z" fill="#FFC3BD"/>
<path d="M132.66 111.108L134.774 108.408C134.81 108.362 134.86 108.331 134.915 108.323C134.969 108.315 135.025 108.329 135.071 108.362L137.223 109.917C137.276 109.958 137.321 110.011 137.354 110.073C137.387 110.134 137.409 110.203 137.416 110.275C137.424 110.347 137.418 110.419 137.399 110.488C137.38 110.557 137.348 110.62 137.305 110.674C136.553 111.601 136.149 112.007 135.219 113.191C134.651 113.92 133.883 115.055 133.093 116.059C132.303 117.064 131.367 116.253 131.617 115.753C132.726 113.518 132.461 112.736 132.48 111.636C132.483 111.442 132.546 111.255 132.66 111.108Z" fill="#263238"/>
<path d="M107.266 123.724H110.477C110.532 123.724 110.586 123.746 110.628 123.786C110.669 123.826 110.697 123.882 110.704 123.943L111.071 126.762C111.081 126.837 111.077 126.913 111.058 126.985C111.038 127.058 111.005 127.124 110.96 127.181C110.915 127.237 110.859 127.281 110.797 127.311C110.735 127.34 110.668 127.354 110.6 127.351C109.482 127.33 108.941 127.256 107.529 127.256C106.66 127.256 104.865 127.358 103.664 127.358C102.463 127.358 102.4 126.033 102.902 125.917C105.14 125.377 106.021 124.637 106.777 123.929C106.912 123.797 107.086 123.724 107.266 123.724Z" fill="#263238"/>
<path opacity="0.2" d="M107.174 116.715L107.272 120.517H110.129L110.031 116.715H107.174Z" fill="black"/>
<path opacity="0.2" d="M130.454 104.331L128.274 106.392L130.846 108.951L133.023 106.886L130.454 104.331Z" fill="black"/>
<path d="M103.85 33.1204C103.85 33.1204 102.488 33.6561 105.215 52.3556H116.819C116.626 47.0869 116.62 43.8376 118.876 33.0288C117.252 32.6553 115.605 32.4126 113.95 32.3028C112.195 32.1634 110.434 32.1634 108.679 32.3028C106.416 32.5495 103.85 33.1204 103.85 33.1204Z" fill="#9099A5"/>
<path opacity="0.4" d="M103.85 33.1204C103.85 33.1204 102.488 33.6561 105.215 52.3556H116.819C116.626 47.0869 116.62 43.8376 118.876 33.0288C117.252 32.6553 115.605 32.4126 113.95 32.3028C112.195 32.1634 110.434 32.1634 108.679 32.3028C106.416 32.5495 103.85 33.1204 103.85 33.1204Z" fill="black"/>
<path d="M113.95 32.3028C112.195 32.1634 110.433 32.1634 108.679 32.3028C108.394 32.331 108.104 32.3663 107.816 32.405C107.697 32.6053 107.621 32.8334 107.593 33.0717C107.566 33.31 107.588 33.5522 107.658 33.7795C108.028 34.805 109.361 34.9248 110.334 34.9248C113.927 34.9248 114.534 32.5848 114.559 32.4861L114.594 32.3451C114.392 32.331 114.164 32.3134 113.95 32.3028Z" fill="white"/>
<path d="M113.444 25.6876C113.109 27.5766 112.78 31.0409 113.965 32.3026C113.965 32.3026 113.501 34.2233 110.35 34.2233C106.874 34.2233 108.694 32.3061 108.694 32.3061C110.59 31.8021 110.537 30.2374 110.208 28.7819L113.444 25.6876Z" fill="#FFC3BD"/>
<path opacity="0.2" d="M112.107 26.9424L110.192 28.7644C110.275 29.1108 110.33 29.4646 110.357 29.8217C111.077 29.7054 112.069 28.8208 112.148 27.9785C112.193 27.6333 112.179 27.2819 112.107 26.9424Z" fill="black"/>
<path d="M111.456 15.404C111.163 14.2939 110.916 12.5459 112.686 11.7564C111.994 10.8119 111.826 9.03574 112.686 7.98199C113.545 6.92825 114.834 7.31592 114.834 7.31592C114.834 7.31592 115.214 4.73971 118.023 5.20138C120.832 5.66306 119.581 7.72472 119.581 7.72472C119.581 7.72472 123.414 6.87891 123.67 10.8965C123.926 14.9141 121.726 14.4207 121.726 14.4207C121.726 14.4207 123.436 16.0207 122.488 17.7793C121.54 19.5379 119.35 18.9317 119.35 18.9317C119.35 18.9317 118.32 22.0401 115.893 20.271C113.466 18.5018 111.456 15.404 111.456 15.404Z" fill="#263238"/>
<path d="M105.765 17.7478C104.817 19.1152 105.234 20.6624 106.081 21.2721C108.119 22.724 111.067 16.6342 110.299 15.9047C109.532 15.1752 106.713 16.3769 105.765 17.7478Z" fill="#263238"/>
<path d="M114.326 14.4912C112.986 13.8885 111.627 14.5194 111.204 15.4286C110.17 17.6453 114.863 21.6383 116.222 18.8683C117.028 17.2224 115.707 15.1114 114.326 14.4912Z" fill="#9099A5"/>
<path d="M113.76 21.2719C113.858 24.4437 113.959 25.7689 112.673 27.5345C110.742 30.1882 107.238 29.6314 106.296 26.5653C105.449 23.8059 105.434 19.101 108.085 17.5574C108.668 17.2136 109.319 17.0416 109.979 17.0579C110.638 17.0741 111.282 17.278 111.851 17.6502C112.42 18.0223 112.893 18.5504 113.228 19.1843C113.562 19.8182 113.745 20.5368 113.76 21.2719Z" fill="#FFC3BD"/>
<path d="M113.333 22.9318C112.069 22.4067 111.753 20.7609 111.956 20.1124C111.324 20.0842 109.943 19.8305 109.428 18.9565C108.442 19.6613 106.359 20.3662 106.135 19.1926C105.911 18.019 109.052 15.0023 111.428 14.7697C114.253 14.4948 117.04 17.5891 116.323 20.5529C115.605 23.5168 113.333 22.9318 113.333 22.9318Z" fill="#263238"/>
<path d="M105.228 52.3557C105.228 52.3557 102.975 76.9019 103.161 86.6217C103.357 96.7292 106.678 119.781 106.678 119.781H110.54C110.54 119.781 109.93 97.3177 110.271 87.3935C110.644 76.5706 113.725 52.3557 113.725 52.3557H105.228Z" fill="#263238"/>
<path d="M110.862 119.936H106.331L105.996 118.325L111.074 118.128L110.862 119.936Z" fill="#9099A5"/>
<path opacity="0.2" d="M110.221 58.4631C107.377 64.856 109.649 76.5212 110.657 80.863C111.172 74.3432 112.044 66.375 112.724 60.5248C112.294 57.219 111.548 55.5133 110.221 58.4631Z" fill="black"/>
<path d="M108.281 52.3557C108.281 52.3557 110.91 77.8746 112.894 86.0684C115.252 95.7952 129.892 108.888 129.892 108.888L132.862 106.068C132.862 106.068 122.251 91.8446 120.447 86.7204C116.601 75.7953 119.894 59.4852 116.819 52.3486L108.281 52.3557Z" fill="#263238"/>
<path d="M133.336 105.924L129.651 109.413L128.274 108.493L132.442 104.169L133.336 105.924Z" fill="#9099A5"/>
<path d="M109.554 22.597C109.576 22.8543 109.472 23.0728 109.323 23.0904C109.175 23.108 109.033 22.9107 109.007 22.6569C108.982 22.4032 109.09 22.1777 109.241 22.1636C109.393 22.1495 109.532 22.3292 109.554 22.597Z" fill="#263238"/>
<path d="M106.963 22.8756C106.985 23.1293 106.881 23.3513 106.729 23.3689C106.577 23.3866 106.441 23.1892 106.413 22.9319C106.384 22.6747 106.495 22.4562 106.644 22.4421C106.792 22.428 106.941 22.6183 106.963 22.8756Z" fill="#263238"/>
<path d="M106.716 22.4493L106.151 22.3291C106.151 22.3291 106.492 22.7815 106.716 22.4493Z" fill="#263238"/>
<path d="M107.683 23.2421C107.529 23.8471 107.302 24.4258 107.007 24.9619C107.132 25.0423 107.272 25.0915 107.416 25.1061C107.56 25.1207 107.705 25.1004 107.841 25.0465L107.683 23.2421Z" fill="#ED847E"/>
<path d="M109.115 25.8886C108.99 25.9269 108.862 25.9528 108.732 25.9662C108.724 25.9671 108.715 25.9662 108.707 25.9633C108.698 25.9605 108.69 25.9558 108.684 25.9496C108.677 25.9434 108.671 25.9357 108.667 25.9271C108.663 25.9184 108.661 25.909 108.66 25.8992C108.658 25.8792 108.663 25.8592 108.674 25.8434C108.686 25.8276 108.702 25.8173 108.72 25.8146C109.006 25.7912 109.283 25.6932 109.529 25.5285C109.775 25.3639 109.982 25.1371 110.135 24.8666C110.139 24.8573 110.144 24.8489 110.151 24.8421C110.158 24.8354 110.166 24.8303 110.175 24.8273C110.183 24.8242 110.193 24.8234 110.202 24.8247C110.211 24.826 110.219 24.8295 110.227 24.8349C110.243 24.8446 110.254 24.8606 110.26 24.8797C110.265 24.8987 110.264 24.9193 110.256 24.9371C110.001 25.4076 109.592 25.7489 109.115 25.8886Z" fill="#263238"/>
<path d="M114.424 23.4606C114.355 24.0671 114.073 24.6183 113.64 24.9937C113.062 25.487 112.506 24.9937 112.439 24.2219C112.382 23.517 112.61 22.4597 113.299 22.2553C113.449 22.2212 113.605 22.2282 113.752 22.2759C113.899 22.3235 114.034 22.4104 114.145 22.5289C114.255 22.6474 114.339 22.7941 114.387 22.9564C114.436 23.1187 114.448 23.2917 114.424 23.4606Z" fill="#FFC3BD"/>
<path d="M109.832 20.7856C109.815 20.7906 109.796 20.7916 109.778 20.7885C109.761 20.7855 109.743 20.7785 109.728 20.768C109.585 20.666 109.422 20.6033 109.253 20.5849C109.084 20.5665 108.913 20.593 108.755 20.6623C108.722 20.6785 108.685 20.6803 108.651 20.6672C108.617 20.6542 108.588 20.6272 108.571 20.5918C108.556 20.5557 108.554 20.5145 108.566 20.4769C108.578 20.4393 108.602 20.4084 108.635 20.3909C108.834 20.2992 109.049 20.2623 109.264 20.2831C109.478 20.304 109.685 20.382 109.867 20.5107C109.882 20.5208 109.895 20.5342 109.905 20.5499C109.916 20.5657 109.923 20.5836 109.927 20.6026C109.931 20.6216 109.932 20.6414 109.929 20.6607C109.927 20.68 109.92 20.6985 109.911 20.7151C109.894 20.7488 109.866 20.774 109.832 20.7856Z" fill="#263238"/>
<path d="M105.693 21.663C105.66 21.6768 105.624 21.6768 105.591 21.663C105.561 21.643 105.538 21.6107 105.528 21.5727C105.518 21.5347 105.522 21.4938 105.538 21.4586C105.634 21.2441 105.775 21.0587 105.95 20.9182C106.124 20.7777 106.327 20.6862 106.539 20.6515C106.557 20.6496 106.575 20.6516 106.592 20.6576C106.609 20.6635 106.625 20.6731 106.638 20.6859C106.652 20.6988 106.663 20.7145 106.671 20.7322C106.679 20.7499 106.684 20.7692 106.685 20.789C106.687 20.8286 106.676 20.8678 106.653 20.8982C106.63 20.9285 106.597 20.9475 106.562 20.9511C106.394 20.9825 106.235 21.0576 106.099 21.1703C105.962 21.283 105.851 21.4301 105.775 21.5995C105.766 21.6159 105.754 21.63 105.74 21.641C105.725 21.6519 105.709 21.6594 105.693 21.663Z" fill="#263238"/>
<path d="M120.061 36.4648C120.705 38.2228 121.261 40.0194 121.726 41.8463C122.219 43.6892 122.57 45.5756 122.776 47.4851C122.829 47.9714 122.845 48.4824 122.864 48.9864V49.2719C122.864 49.3741 122.848 49.4798 122.836 49.5714C122.809 49.7475 122.773 49.9217 122.728 50.093C122.646 50.3861 122.54 50.6703 122.412 50.9423C121.974 51.8459 121.437 52.6852 120.813 53.441C119.66 54.8541 118.39 56.1438 117.021 57.293L116.108 56.1617C117.16 54.7908 118.222 53.3846 119.123 51.9326C119.558 51.2737 119.928 50.5649 120.229 49.8181C120.28 49.6736 120.322 49.5252 120.355 49.3741C120.364 49.3229 120.369 49.271 120.371 49.219C120.372 49.2038 120.372 49.1884 120.371 49.1732V49.1238C120.33 48.708 120.301 48.2921 120.232 47.8657C119.96 46.1247 119.581 44.4067 119.097 42.7239C118.614 41.0181 118.073 39.2877 117.517 37.6384L120.061 36.4648Z" fill="#FFC3BD"/>
<path d="M118.876 33.0288C120.039 33.4235 121.435 37.8887 121.435 37.8887L116.92 41.4834C116.92 41.4834 115.273 37.7583 115.763 36.0808C116.288 34.3363 117.552 32.5777 118.876 33.0288Z" fill="#9099A5"/>
<path opacity="0.4" d="M118.876 33.0288C120.039 33.4235 121.435 37.8887 121.435 37.8887L116.92 41.4834C116.92 41.4834 115.273 37.7583 115.763 36.0808C116.288 34.3363 117.552 32.5777 118.876 33.0288Z" fill="black"/>
<path d="M131.879 112.644C131.821 112.643 131.764 112.626 131.712 112.596C131.66 112.566 131.614 112.524 131.579 112.472C131.551 112.439 131.53 112.398 131.52 112.353C131.51 112.309 131.511 112.262 131.522 112.218C131.63 111.83 132.622 111.513 132.736 111.478C132.748 111.473 132.762 111.473 132.774 111.477C132.787 111.481 132.798 111.49 132.805 111.502C132.812 111.515 132.816 111.529 132.816 111.543C132.816 111.557 132.812 111.572 132.805 111.584C132.628 111.961 132.278 112.595 131.917 112.641L131.879 112.644ZM132.613 111.675C132.221 111.816 131.709 112.059 131.665 112.264C131.66 112.283 131.66 112.304 131.665 112.323C131.67 112.342 131.68 112.359 131.693 112.373C131.718 112.413 131.752 112.446 131.792 112.467C131.832 112.488 131.876 112.497 131.92 112.493C132.104 112.468 132.36 112.165 132.613 111.675Z" fill="#9099A5"/>
<path d="M132.3 111.689C132.004 111.723 131.708 111.63 131.472 111.429C131.439 111.382 131.421 111.324 131.421 111.265C131.421 111.205 131.439 111.148 131.472 111.101C131.5 111.052 131.538 111.011 131.582 110.98C131.626 110.95 131.676 110.931 131.728 110.925C132.139 110.868 132.761 111.467 132.787 111.492C132.796 111.5 132.803 111.511 132.807 111.524C132.811 111.536 132.811 111.55 132.809 111.563C132.807 111.576 132.802 111.589 132.795 111.6C132.787 111.611 132.776 111.618 132.764 111.622C132.613 111.67 132.457 111.693 132.3 111.689ZM131.797 111.073H131.753C131.721 111.077 131.69 111.089 131.662 111.107C131.634 111.126 131.61 111.152 131.592 111.182C131.545 111.263 131.56 111.305 131.592 111.333C131.715 111.513 132.278 111.58 132.619 111.51C132.385 111.284 132.102 111.133 131.797 111.073Z" fill="#9099A5"/>
<path d="M106.192 124.281C105.948 124.306 105.703 124.236 105.5 124.084C105.456 124.04 105.423 123.985 105.401 123.924C105.38 123.863 105.371 123.797 105.376 123.732C105.379 123.69 105.391 123.649 105.412 123.614C105.432 123.579 105.46 123.55 105.493 123.531C105.844 123.316 106.982 123.964 107.111 124.042C107.123 124.049 107.133 124.061 107.139 124.075C107.146 124.088 107.148 124.104 107.146 124.119C107.144 124.135 107.138 124.149 107.128 124.161C107.119 124.172 107.106 124.18 107.092 124.183C106.795 124.246 106.494 124.279 106.192 124.281ZM105.683 123.622C105.639 123.619 105.596 123.629 105.557 123.651C105.543 123.658 105.532 123.67 105.524 123.684C105.516 123.698 105.512 123.715 105.512 123.732C105.507 123.776 105.512 123.821 105.525 123.862C105.539 123.904 105.562 123.941 105.591 123.971C105.765 124.148 106.223 124.176 106.855 124.059C106.49 123.84 106.093 123.692 105.683 123.622Z" fill="#9099A5"/>
<path d="M107.08 124.179H107.051C106.71 124.007 106.037 123.319 106.103 122.96C106.103 122.875 106.17 122.766 106.356 122.745C106.424 122.737 106.492 122.745 106.556 122.767C106.621 122.789 106.681 122.826 106.732 122.875C107.089 123.21 107.156 124.067 107.159 124.105C107.16 124.118 107.158 124.131 107.153 124.143C107.148 124.155 107.14 124.165 107.13 124.172C107.123 124.178 107.115 124.181 107.106 124.182C107.097 124.183 107.088 124.182 107.08 124.179ZM106.397 122.886H106.359C106.233 122.886 106.227 122.956 106.224 122.974C106.192 123.189 106.65 123.732 106.998 123.964C106.969 123.602 106.841 123.259 106.631 122.981C106.567 122.916 106.484 122.878 106.397 122.875V122.886Z" fill="#9099A5"/>
<path d="M116.993 51.5804L117.29 52.7398C117.331 52.8279 117.236 52.9196 117.1 52.9196H105.159C105.054 52.9196 104.966 52.8632 104.96 52.7892L104.855 51.6332C104.855 51.5522 104.937 51.4852 105.054 51.4852H116.806C116.842 51.4818 116.878 51.4888 116.911 51.5055C116.943 51.5221 116.972 51.5479 116.993 51.5804Z" fill="#9099A5"/>
<path opacity="0.3" d="M116.993 51.5804L117.29 52.7398C117.331 52.8279 117.236 52.9196 117.1 52.9196H105.159C105.054 52.9196 104.966 52.8632 104.96 52.7892L104.855 51.6332C104.855 51.5522 104.937 51.4852 105.054 51.4852H116.806C116.842 51.4818 116.878 51.4888 116.911 51.5055C116.943 51.5221 116.972 51.5479 116.993 51.5804Z" fill="white"/>
<path d="M115.416 53.0603H115.732C115.792 53.0603 115.839 53.025 115.836 52.9792L115.688 51.4744C115.688 51.4321 115.631 51.3933 115.568 51.3933H115.252C115.188 51.3933 115.141 51.4321 115.147 51.4744L115.293 52.9792C115.299 53.025 115.34 53.0603 115.416 53.0603Z" fill="#263238"/>
<path d="M106.043 53.0603H106.359C106.423 53.0603 106.47 53.025 106.467 52.9792L106.318 51.4744C106.318 51.4321 106.258 51.3933 106.198 51.3933H105.882C105.819 51.3933 105.772 51.4321 105.775 51.4744L105.923 52.9792C105.926 53.025 105.98 53.0603 106.043 53.0603Z" fill="#263238"/>
<path d="M110.73 53.0603H111.046C111.109 53.0603 111.156 53.025 111.153 52.9792L111.005 51.4744C111.005 51.4321 110.948 51.3933 110.884 51.3933H110.568C110.505 51.3933 110.458 51.4321 110.464 51.4744L110.6 52.9898C110.6 53.025 110.666 53.0603 110.73 53.0603Z" fill="#263238"/>
<path d="M109.311 22.1709L108.745 22.0507C108.745 22.0507 109.067 22.5031 109.311 22.1709Z" fill="#263238"/>
<path opacity="0.2" d="M98.8512 67.048C93.4975 69.3677 87.6472 69.8647 82.0402 68.4763C76.4333 67.0879 71.3213 63.8764 67.3509 59.2478C63.3804 54.6194 60.7298 48.7817 59.7341 42.4732C58.7385 36.1646 59.4425 29.6685 61.7572 23.8062C64.0719 17.9438 67.8933 12.9787 72.7382 9.53845C77.5831 6.09825 83.2339 4.33754 88.976 4.47897C94.7182 4.62039 100.294 6.65761 104.998 10.333C109.702 14.0084 113.323 19.1569 115.403 25.1274C116.785 29.092 117.453 33.3214 117.369 37.5739C117.285 41.8265 116.451 46.0189 114.914 49.9117C113.377 53.8046 111.167 57.3216 108.411 60.2619C105.655 63.2022 102.406 65.5081 98.8512 67.048Z" fill="#9099A5"/>
<path opacity="0.1" d="M93.596 5.00752L70.8187 62.699C70.4679 62.403 70.1203 62.0964 69.7791 61.7862C67.5776 59.7551 65.6604 57.3688 64.0911 54.7061L83.7652 4.8736C87.0247 4.28811 90.3503 4.33341 93.596 5.00752Z" fill="white"/>
<path opacity="0.1" d="M109.788 15.0163L88.3728 69.2576C83.9246 69.2629 79.5349 68.127 75.5432 65.9378L98.9272 6.70624C103.07 8.51313 106.786 11.3561 109.788 15.0163Z" fill="white"/>
<path d="M64.4262 15.041C68.2958 9.76778 73.4806 5.89267 79.3249 3.90573C85.1693 1.91879 91.4107 1.90928 97.2599 3.87838C103.109 5.84749 108.303 9.70677 112.186 14.9682C116.068 20.2297 118.465 26.6569 119.072 33.4373C119.679 40.2177 118.47 47.0466 115.597 53.0605C112.725 59.0744 108.317 64.0032 102.933 67.2236C97.5483 70.444 91.4285 71.8113 85.3472 71.1528C79.2659 70.4942 73.4963 67.8393 68.768 63.5237C62.4282 57.7362 58.4092 49.3771 57.5949 40.2851C56.7807 31.1931 59.2379 22.1127 64.4262 15.041ZM110.284 56.8947C113.836 52.0523 116.021 46.1441 116.562 39.917C117.103 33.6899 115.977 27.4236 113.325 21.9106C110.673 16.3975 106.615 11.8852 101.664 8.94429C96.7123 6.00337 91.0903 4.76588 85.5084 5.38831C79.9265 6.01073 74.6355 8.46512 70.3043 12.4411C65.9731 16.4171 62.7964 21.7361 61.1757 27.7256C59.555 33.7151 59.5632 40.1061 61.1992 46.0904C62.8352 52.0747 66.0256 57.3836 70.367 61.3458C73.2499 63.9769 76.5693 65.9489 80.1357 67.1492C83.702 68.3495 87.4455 68.7546 91.1522 68.3412C94.8589 67.9279 98.4563 66.7043 101.739 64.7403C105.022 62.7763 107.925 60.1103 110.284 56.8947Z" fill="#9099A5"/>
<path d="M113.011 56.7751C116.054 58.8015 118.949 61.0288 121.793 63.3266C124.637 65.6244 127.408 68.0173 130.135 70.4737C132.862 72.9301 135.539 75.457 138.12 78.1107C139.414 79.4358 140.678 80.7961 141.912 82.1917C143.151 83.6014 144.368 85.0111 145.515 86.5406C145.78 86.8948 145.926 87.3408 145.928 87.8021C145.93 88.2633 145.788 88.711 145.526 89.068C145.264 89.4251 144.899 89.6693 144.493 89.7586C144.088 89.8479 143.667 89.7767 143.303 89.5574C141.723 88.6058 140.244 87.5556 138.768 86.4807C137.292 85.4058 135.851 84.2851 134.429 83.1327C131.585 80.8349 128.833 78.4138 126.138 75.9151C123.442 73.4164 120.788 70.8614 118.206 68.2041C115.624 65.5468 113.093 62.8262 110.71 59.901C110.413 59.5393 110.242 59.07 110.23 58.5793C110.218 58.0886 110.364 57.6093 110.643 57.2294C110.922 56.8495 111.314 56.5945 111.748 56.511C112.182 56.4276 112.628 56.5213 113.005 56.7751H113.011Z" fill="#9099A5"/>
<path d="M116.411 55.8093L113.358 56.3274L115.542 58.4631C115.542 58.4631 117.267 57.7582 117.438 56.4543L116.411 55.8093Z" fill="#FFC3BD"/>
<path d="M111.709 58.2832L113.627 59.9608L115.969 58.255L113.359 56.3344L111.709 58.2832Z" fill="#FFC3BD"/>
<path d="M97.2774 61.9943C97.5562 61.1454 98.059 60.4106 98.7195 59.8866C99.38 59.3626 100.167 59.0739 100.978 59.0586H126.274C126.711 59.0404 127.146 59.1293 127.549 59.3192C127.952 59.5091 128.313 59.7953 128.605 60.1576C128.898 60.5199 129.116 60.9495 129.244 61.416C129.372 61.8826 129.406 62.3747 129.345 62.8577L122.81 124.006C122.672 125.047 122.205 125.999 121.495 126.692C120.785 127.385 119.876 127.773 118.933 127.788H38.6689C38.2333 127.806 37.7993 127.718 37.3975 127.53C36.9958 127.341 36.636 127.056 36.3435 126.696C36.051 126.335 35.8329 125.908 35.7045 125.443C35.5761 124.978 35.5407 124.488 35.6005 124.006L41.08 72.6304C41.2187 71.5894 41.6849 70.6374 42.3952 69.9446C43.1056 69.2518 44.0137 68.8634 44.9573 68.8489H88.6348C90.5275 68.8129 92.366 68.1388 93.9086 66.9154C95.4512 65.6919 96.6257 63.9763 97.2774 61.9943Z" fill="#9099A5"/>
<path d="M37.0449 124.972H120.914L125.692 62.0365H41.826L37.0449 124.972Z" fill="#F0F0F0"/>
<path d="M37.0449 124.972H120.914L124.372 62.0365H41.826L37.0449 124.972Z" fill="#E0E0E0"/>
<path d="M37.0449 124.972H120.914L123.796 60.0386H39.93L37.0449 124.972Z" fill="#F0F0F0"/>
<path d="M37.0449 124.972H120.914L122.055 60.0386H39.93L37.0449 124.972Z" fill="#E0E0E0"/>
<path d="M37.0449 124.972H120.914L121.414 58.2761H37.5474L37.0449 124.972Z" fill="#F0F0F0"/>
<path d="M37.0449 124.972H120.914L119.192 59.538H35.8662L37.0449 124.972Z" fill="#E0E0E0"/>
<path d="M37.0453 124.972H120.915L118.425 60.0386H34.5583L37.0453 124.972Z" fill="#F0F0F0"/>
<path d="M37.0447 124.972H120.914L116.948 61.0181H33.082L37.0447 124.972Z" fill="#E0E0E0"/>
<path d="M37.0451 124.972H120.915L116.317 61.5642H32.4504L37.0451 124.972Z" fill="#F0F0F0"/>
<path d="M79.0445 65.9662C79.0492 65.5573 79.1276 65.1537 79.2751 64.7792C79.4226 64.4048 79.6361 64.0674 79.9029 63.7869C80.1697 63.5064 80.4844 63.2886 80.8283 63.1466C81.1721 63.0046 81.5381 62.9411 81.9043 62.9601H107.2C108.18 63.002 109.119 63.4054 109.87 64.1071C110.622 64.8087 111.143 65.7688 111.352 66.8367L121.347 123.929C121.72 126.068 120.469 127.806 118.551 127.806H38.2869C36.3656 127.806 34.4949 126.068 34.1315 123.929L25.887 76.8631C25.5141 74.7239 26.7655 72.9865 28.6836 72.9865H72.3643C76.1563 72.9865 78.915 70.0755 79.0445 65.9662Z" fill="#9099A5"/>
<path opacity="0.2" d="M79.0445 65.9662C79.0492 65.5573 79.1276 65.1537 79.2751 64.7792C79.4226 64.4048 79.6361 64.0674 79.9029 63.7869C80.1697 63.5064 80.4844 63.2886 80.8283 63.1466C81.1721 63.0046 81.5381 62.9411 81.9043 62.9601H107.2C108.18 63.002 109.119 63.4054 109.87 64.1071C110.622 64.8087 111.143 65.7688 111.352 66.8367L121.347 123.929C121.72 126.068 120.469 127.806 118.551 127.806H38.2869C36.3656 127.806 34.4949 126.068 34.1315 123.929L25.887 76.8631C25.5141 74.7239 26.7655 72.9865 28.6836 72.9865H72.3643C76.1563 72.9865 78.915 70.0755 79.0445 65.9662Z" fill="black"/>
</svg>
