<svg width="63" height="63" viewBox="0 0 63 63" fill="none" xmlns="http://www.w3.org/2000/svg">
<g clip-path="url(#clip0_455_61)">
<path d="M54.875 17.6666V12.25H6.12496V50.1666H3.41663V55.5833H19.6666V36.625C19.6666 36.1835 19.7912 25.7916 30.5 25.7916C40.8485 25.7916 41.3143 35.547 41.3333 36.625V55.5833H57.5833V50.1666H54.875V17.6666ZM3.41663 1.41663H57.5833V6.83329H3.41663V1.41663Z" fill="#A98018"/>
</g>
<path d="M30.2582 45.1698L44.12 53.3302L40.6546 37.0579L54.5164 25.4347L37.0207 24.2482L30.2582 8L23.4958 24.2482L6 25.4347L20.4394 37.0579L16.3964 53.3302L30.2582 45.1698Z" fill="#F5C518"/>
<path d="M30.2583 8V17.8797V32.4086L37.1892 24.2724L30.2583 8Z" fill="#DAA520"/>
<path d="M54.5164 25.4348L44.6976 28.3406L30.2582 32.4087L40.6546 37.0579L54.5164 25.4348Z" fill="#DAA520"/>
<path d="M6.00006 25.4346L16.974 28.9215L30.2583 32.4085L23.3273 24.2723L6.00006 25.4346Z" fill="#DAA520"/>
<path d="M44.6975 53.9114L38.3442 44.0317L30.2581 32.4086L30.2581 45.1941L44.6975 53.9114Z" fill="#DAA520"/>
<path d="M16.3965 53.3302L22.1723 45.194L26.7929 38.2201L30.3232 32.476L20.4395 37.0578L16.3965 53.3302Z" fill="#DAA520"/>
<defs>
<clipPath id="clip0_455_61">
<rect width="63" height="63" fill="white"/>
</clipPath>
</defs>
</svg>
