<svg width="54" height="52" viewBox="0 0 54 52" fill="none" xmlns="http://www.w3.org/2000/svg">
<path d="M51.75 41.1666L45 34.6666V38.9999H36V43.3332H45V47.6666L51.75 41.1666ZM31.05 47.6666H13.5C11.025 47.6666 9 45.7166 9 43.3332V8.66658C9 6.28325 11.025 4.33325 13.5 4.33325H31.5L45 17.3333V28.3833C44.325 28.1666 43.425 28.1666 42.75 28.1666C42.075 28.1666 41.175 28.1666 40.5 28.3833V19.4999H29.25V8.66658H13.5V43.3332H29.475C29.7 44.8499 30.375 46.3666 31.05 47.6666ZM18 25.9999H36V29.8999C35.775 30.1166 35.55 30.1166 35.325 30.3333H18V25.9999ZM18 34.6666H29.25V38.9999H18V34.6666Z" fill="#4D0F0F"/>
</svg>
