<svg width="54" height="52" viewBox="0 0 54 52" fill="none" xmlns="http://www.w3.org/2000/svg">
<path d="M34.875 26C40.5 26 45 30.3333 45 35.75C45 37.6567 44.4375 39.455 43.4475 40.95L50.3775 47.6667L47.25 50.6783L40.23 44.0267C38.6775 44.9583 36.8325 45.5 34.875 45.5C29.25 45.5 24.75 41.1667 24.75 35.75C24.75 30.3333 29.25 26 34.875 26ZM34.875 30.3333C33.3832 30.3333 31.9524 30.904 30.8975 31.9198C29.8426 32.9357 29.25 34.3134 29.25 35.75C29.25 37.1866 29.8426 38.5643 30.8975 39.5802C31.9524 40.596 33.3832 41.1667 34.875 41.1667C36.3668 41.1667 37.7976 40.596 38.8525 39.5802C39.9074 38.5643 40.5 37.1866 40.5 35.75C40.5 34.3134 39.9074 32.9357 38.8525 31.9198C37.7976 30.904 36.3668 30.3333 34.875 30.3333ZM11.25 6.5H42.75C45.2475 6.5 47.25 8.42833 47.25 10.8333V28.2317C46.125 26.4983 44.5725 25.0033 42.75 23.8333V10.8333H11.25V41.1667H21.375C22.0725 42.7917 23.085 44.2433 24.3225 45.5H11.25C8.7525 45.5 6.75 43.5717 6.75 41.1667V10.8333C6.75 8.42833 8.7525 6.5 11.25 6.5ZM15.75 15.1667H38.25V19.5H15.75V15.1667ZM15.75 23.8333H27.0675C25.2675 24.9167 23.715 26.4117 22.5 28.1667H15.75V23.8333ZM15.75 32.5H20.6325C20.385 33.5833 20.25 34.6667 20.25 35.75V36.8333H15.75V32.5Z" fill="#4D0F0F"/>
</svg>
