<svg width="22" height="21" viewBox="0 0 22 21" fill="none" xmlns="http://www.w3.org/2000/svg">
<path d="M8.25001 20.543L7.85001 17.343C7.63335 17.2596 7.42935 17.1596 7.23801 17.043C7.04668 16.9263 6.85901 16.8013 6.67501 16.668L3.70001 17.918L0.950012 13.168L3.52501 11.218C3.50835 11.1013 3.50001 10.989 3.50001 10.881V10.206C3.50001 10.0973 3.50835 9.98464 3.52501 9.86797L0.950012 7.91797L3.70001 3.16797L6.67501 4.41797C6.85835 4.28464 7.05001 4.15964 7.25001 4.04297C7.45001 3.9263 7.65001 3.8263 7.85001 3.74297L8.25001 0.542969H13.75L14.15 3.74297C14.3667 3.8263 14.571 3.9263 14.763 4.04297C14.955 4.15964 15.1423 4.28464 15.325 4.41797L18.3 3.16797L21.05 7.91797L18.475 9.86797C18.4917 9.98464 18.5 10.0973 18.5 10.206V10.88C18.5 10.9886 18.4833 11.1013 18.45 11.218L21.025 13.168L18.275 17.918L15.325 16.668C15.1417 16.8013 14.95 16.9263 14.75 17.043C14.55 17.1596 14.35 17.2596 14.15 17.343L13.75 20.543H8.25001ZM11.05 14.043C12.0167 14.043 12.8417 13.7013 13.525 13.018C14.2083 12.3346 14.55 11.5096 14.55 10.543C14.55 9.5763 14.2083 8.7513 13.525 8.06797C12.8417 7.38463 12.0167 7.04297 11.05 7.04297C10.0667 7.04297 9.23735 7.38463 8.56201 8.06797C7.88668 8.7513 7.54935 9.5763 7.55001 10.543C7.55068 11.5096 7.88835 12.3346 8.56301 13.018C9.23768 13.7013 10.0667 14.043 11.05 14.043Z" fill="white"/>
</svg>
