<svg width="32" height="32" viewBox="0 0 32 32" fill="none" xmlns="http://www.w3.org/2000/svg">
<path d="M21.58 25.824L18.352 22.594C17.1037 23.0403 15.7543 23.123 14.4608 22.8323C13.1674 22.5417 11.9831 21.8898 11.0456 20.9524C10.1082 20.0149 9.45628 18.8306 9.16566 17.5372C8.87504 16.2437 8.95769 14.8943 9.404 13.646L5.284 9.526C1.876 12.556 0 16 0 16C0 16 6 27 16 27C17.9208 26.9933 19.8199 26.5931 21.58 25.824ZM10.42 6.176C12.1801 5.40685 14.0792 5.00661 16 5C26 5 32 16 32 16C32 16 30.122 19.442 26.718 22.476L22.594 18.352C23.0403 17.1037 23.123 15.7543 22.8323 14.4608C22.5417 13.1674 21.8898 11.9831 20.9524 11.0456C20.0149 10.1082 18.8306 9.45628 17.5372 9.16566C16.2437 8.87504 14.8943 8.95769 13.646 9.404L10.42 6.178V6.176Z" fill="black"/>
<path d="M11.05 15.292C10.94 16.0606 11.0105 16.8443 11.2559 17.5809C11.5014 18.3176 11.915 18.9869 12.464 19.536C13.0131 20.085 13.6824 20.4986 14.4191 20.7441C15.1557 20.9895 15.9394 21.06 16.708 20.95L11.048 15.292H11.05ZM20.95 16.708L15.292 11.048C16.0606 10.938 16.8443 11.0085 17.5809 11.2539C18.3176 11.4994 18.9869 11.913 19.536 12.462C20.085 13.0111 20.4986 13.6804 20.7441 14.4171C20.9895 15.1537 21.06 15.9374 20.95 16.706V16.708ZM27.292 28.708L3.29199 4.70799L4.70799 3.29199L28.708 27.292L27.292 28.708Z" fill="black"/>
</svg>
