<svg width="30" height="30" viewBox="0 0 30 30" fill="none" xmlns="http://www.w3.org/2000/svg">
<path fill-rule="evenodd" clip-rule="evenodd" d="M4.62868 7.12868C3.75 8.00736 3.75 9.42157 3.75 12.25V17.75C3.75 20.5784 3.75 21.9926 4.62868 22.8713C5.50736 23.75 6.92157 23.75 9.75 23.75H20.25C23.0784 23.75 24.4926 23.75 25.3713 22.8713C26.25 21.9926 26.25 20.5784 26.25 17.75V12.25C26.25 9.42157 26.25 8.00736 25.3713 7.12868C24.4926 6.25 23.0784 6.25 20.25 6.25H9.75C6.92157 6.25 5.50736 6.25 4.62868 7.12868ZM8.0547 10.4179C7.59517 10.1116 6.9743 10.2358 6.66795 10.6953C6.3616 11.1548 6.48577 11.7757 6.9453 12.082L13.8906 16.7122C14.5624 17.1601 15.4376 17.1601 16.1094 16.7122L23.0547 12.082C23.5142 11.7757 23.6384 11.1548 23.3321 10.6953C23.0257 10.2358 22.4048 10.1116 21.9453 10.4179L15 15.0481L8.0547 10.4179Z" fill="#222222"/>
</svg>
