<svg width="13" height="13" viewBox="0 0 13 13" fill="none" xmlns="http://www.w3.org/2000/svg">
<g clip-path="url(#clip0_1061_22324)">
<path d="M6.30714 9.7431L10.075 11.8926L9.01019 7.61675L12.6143 4.57005L8.06538 4.25903L6.30714 0L4.5489 4.25903L0 4.57005L3.75425 7.61675L2.70306 11.8821L6.30714 9.7431Z" fill="#F5C518"/>
<path d="M6.30714 9.7431L10.075 11.8926L9.01019 7.61675L12.6143 4.57005L8.06538 4.25903L6.30714 0L4.5489 4.25903L0 4.57005L3.75425 7.61675L2.70306 11.8821L6.30714 9.7431Z" fill="#F5C518"/>
<path d="M6.30715 0V2.58969V6.39807L8.10919 4.26538L6.30715 0Z" fill="#DAA520"/>
<path d="M6.30709 0V2.58969V6.39807L8.10913 4.26538L6.30709 0Z" fill="#DAA520"/>
<path d="M12.6143 4.57009L10.0614 5.33177L6.30713 6.39811L9.0102 7.61679L12.6143 4.57009Z" fill="#DAA520"/>
<path d="M12.6143 4.56988L10.0614 5.33156L6.30713 6.3979L9.0102 7.61658L12.6143 4.56988Z" fill="#DAA520"/>
<path d="M3.30738e-05 4.57014L2.85326 5.48415L6.30716 6.39816L4.50513 4.26547L3.30738e-05 4.57014Z" fill="#DAA520"/>
<path d="M9.41089e-05 4.56993L2.85332 5.48394L6.30722 6.39795L4.50519 4.26526L9.41089e-05 4.56993Z" fill="#DAA520"/>
<path d="M10.075 11.8927L8.40962 9.44511L6.30724 6.39841L6.30724 9.74978L10.075 11.8927Z" fill="#DAA520"/>
<path d="M10.0751 11.8927L8.40968 9.44511L6.3073 6.39841L6.3073 9.74978L10.0751 11.8927Z" fill="#DAA520"/>
<path d="M2.70316 11.8821L4.20486 9.7494L5.40622 7.92138L6.32409 6.41571L3.75435 7.61671L2.70316 11.8821Z" fill="#DAA520"/>
<path d="M2.70316 11.8821L4.20486 9.74943L5.40622 7.92141L6.32409 6.41574L3.75435 7.61674L2.70316 11.8821Z" fill="#DAA520"/>
</g>
<defs>
<clipPath id="clip0_1061_22324">
<rect width="13" height="13" fill="white"/>
</clipPath>
</defs>
</svg>
