<svg width="24" height="25" viewBox="0 0 24 25" fill="none" xmlns="http://www.w3.org/2000/svg">
<path fill-rule="evenodd" clip-rule="evenodd" d="M12 2.21094V8.71094C12 9.10876 12.158 9.49029 12.4393 9.7716C12.7206 10.0529 13.1022 10.2109 13.5 10.2109H20V20.2109C20 20.7414 19.7893 21.2501 19.4142 21.6252C19.0391 22.0002 18.5304 22.2109 18 22.2109H6C5.46957 22.2109 4.96086 22.0002 4.58579 21.6252C4.21071 21.2501 4 20.7414 4 20.2109V4.21094C4 3.6805 4.21071 3.1718 4.58579 2.79672C4.96086 2.42165 5.46957 2.21094 6 2.21094H12ZM15 15.2109H9C8.73478 15.2109 8.48043 15.3163 8.29289 15.5038C8.10536 15.6914 8 15.9457 8 16.2109C8 16.4762 8.10536 16.7305 8.29289 16.918C8.48043 17.1056 8.73478 17.2109 9 17.2109H15C15.2652 17.2109 15.5196 17.1056 15.7071 16.918C15.8946 16.7305 16 16.4762 16 16.2109C16 15.9457 15.8946 15.6914 15.7071 15.5038C15.5196 15.3163 15.2652 15.2109 15 15.2109ZM10 11.2109H9C8.73478 11.2109 8.48043 11.3163 8.29289 11.5038C8.10536 11.6914 8 11.9457 8 12.2109C8 12.4762 8.10536 12.7305 8.29289 12.918C8.48043 13.1056 8.73478 13.2109 9 13.2109H10C10.2652 13.2109 10.5196 13.1056 10.7071 12.918C10.8946 12.7305 11 12.4762 11 12.2109C11 11.9457 10.8946 11.6914 10.7071 11.5038C10.5196 11.3163 10.2652 11.2109 10 11.2109ZM14 2.25394C14.3789 2.33429 14.7263 2.52293 15 2.79694L19.414 7.21094C19.688 7.48466 19.8766 7.83206 19.957 8.21094H14V2.25394Z" fill="white"/>
</svg>
