<svg width="40" height="40" viewBox="0 0 40 40" fill="none" xmlns="http://www.w3.org/2000/svg">
<path d="M0 20C0 8.95431 8.95431 0 20 0C31.0457 0 40 8.95431 40 20C40 31.0457 31.0457 40 20 40C8.95431 40 0 31.0457 0 20Z" fill="#ECFDF3"/>
<path fill-rule="evenodd" clip-rule="evenodd" d="M26.2647 14.9645C26.5144 15.2029 26.5236 15.5985 26.2853 15.8482L17.5353 25.0148C17.4191 25.1366 17.2587 25.2063 17.0904 25.2083C16.9222 25.2102 16.7602 25.1442 16.6412 25.0252L13.7246 22.1086C13.4805 21.8645 13.4805 21.4688 13.7246 21.2247C13.9686 20.9806 14.3644 20.9806 14.6084 21.2247L17.0728 23.689L25.3811 14.9851C25.6194 14.7354 26.015 14.7262 26.2647 14.9645Z" fill="#067647"/>
</svg>
