<svg width="63" height="63" viewBox="0 0 63 63" fill="none" xmlns="http://www.w3.org/2000/svg">
<g clip-path="url(#clip0_1061_1138)">
<path d="M54.875 17.6666V12.25H6.12496V50.1666H3.41663V55.5833H19.6666V36.625C19.6666 36.1835 19.7912 25.7916 30.5 25.7916C40.8485 25.7916 41.3143 35.547 41.3333 36.625V55.5833H57.5833V50.1666H54.875V17.6666ZM3.41663 1.41663H57.5833V6.83329H3.41663V1.41663Z" fill="#A98018"/>
<path d="M16.4764 6.075C16.2131 6.075 15.9756 6.02917 15.7639 5.9375C15.5539 5.84583 15.3806 5.715 15.2439 5.545C15.1089 5.37333 15.0231 5.17 14.9864 4.935L15.6114 4.84C15.6648 5.05333 15.7739 5.21833 15.9389 5.335C16.1056 5.45167 16.2973 5.51 16.5139 5.51C16.6423 5.51 16.7631 5.49 16.8764 5.45C16.9898 5.41 17.0814 5.35167 17.1514 5.275C17.2231 5.19833 17.2589 5.10417 17.2589 4.9925C17.2589 4.9425 17.2506 4.89667 17.2339 4.855C17.2173 4.81167 17.1923 4.77333 17.1589 4.74C17.1273 4.70667 17.0856 4.67667 17.0339 4.65C16.9839 4.62167 16.9256 4.5975 16.8589 4.5775L15.9289 4.3025C15.8489 4.27917 15.7623 4.24833 15.6689 4.21C15.5773 4.17 15.4898 4.11583 15.4064 4.0475C15.3248 3.9775 15.2573 3.88917 15.2039 3.7825C15.1523 3.67417 15.1264 3.54083 15.1264 3.3825C15.1264 3.15083 15.1848 2.95667 15.3014 2.8C15.4198 2.64167 15.5781 2.52333 15.7764 2.445C15.9764 2.36667 16.1981 2.32833 16.4414 2.33C16.6881 2.33167 16.9081 2.37417 17.1014 2.4575C17.2948 2.53917 17.4564 2.65833 17.5864 2.815C17.7164 2.97167 17.8081 3.16083 17.8614 3.3825L17.2139 3.495C17.1873 3.36833 17.1356 3.26083 17.0589 3.1725C16.9839 3.0825 16.8914 3.01417 16.7814 2.9675C16.6731 2.92083 16.5573 2.89583 16.4339 2.8925C16.3139 2.89083 16.2023 2.90917 16.0989 2.9475C15.9973 2.98417 15.9148 3.0375 15.8514 3.1075C15.7898 3.1775 15.7589 3.25917 15.7589 3.3525C15.7589 3.44083 15.7856 3.51333 15.8389 3.57C15.8923 3.625 15.9581 3.66917 16.0364 3.7025C16.1164 3.73417 16.1973 3.76083 16.2789 3.7825L16.9239 3.9625C17.0123 3.98583 17.1114 4.0175 17.2214 4.0575C17.3314 4.0975 17.4373 4.15333 17.5389 4.225C17.6406 4.29667 17.7239 4.39083 17.7889 4.5075C17.8556 4.62417 17.8889 4.7725 17.8889 4.9525C17.8889 5.13917 17.8498 5.30333 17.7714 5.445C17.6948 5.585 17.5906 5.70167 17.4589 5.795C17.3273 5.88833 17.1764 5.95833 17.0064 6.005C16.8381 6.05167 16.6614 6.075 16.4764 6.075ZM18.1801 6L19.3151 2.4H20.1976L21.3326 6H20.7126L19.6826 2.77H19.8176L18.8001 6H18.1801ZM18.8126 5.22V4.6575H20.7026V5.22H18.8126ZM21.7846 6V2.4H22.3946L24.0646 4.9375V2.4H24.6746V6H24.0646L22.3946 3.4625V6H21.7846ZM26.2384 6V2.965H25.0734V2.4H28.0059V2.965H26.8409V6H26.2384ZM28.058 6L29.193 2.4H30.0755L31.2105 6H30.5905L29.5605 2.77H29.6955L28.678 6H28.058ZM28.6905 5.22V4.6575H30.5805V5.22H28.6905ZM32.6635 6V2.4H34.151C34.186 2.4 34.231 2.40167 34.286 2.405C34.341 2.40667 34.3918 2.41167 34.4385 2.42C34.6468 2.45167 34.8185 2.52083 34.9535 2.6275C35.0901 2.73417 35.191 2.86917 35.256 3.0325C35.3226 3.19417 35.356 3.37417 35.356 3.5725C35.356 3.86583 35.2818 4.11833 35.1335 4.33C34.9851 4.54 34.7576 4.67 34.451 4.72L34.1935 4.7425H33.266V6H32.6635ZM34.731 6L34.021 4.535L34.6335 4.4L35.4135 6H34.731ZM33.266 4.18H34.126C34.1593 4.18 34.1968 4.17833 34.2385 4.175C34.2801 4.17167 34.3185 4.165 34.3535 4.155C34.4535 4.13 34.5318 4.08583 34.5885 4.0225C34.6468 3.95917 34.6876 3.8875 34.711 3.8075C34.736 3.7275 34.7485 3.64917 34.7485 3.5725C34.7485 3.49583 34.736 3.4175 34.711 3.3375C34.6876 3.25583 34.6468 3.18333 34.5885 3.12C34.5318 3.05667 34.4535 3.0125 34.3535 2.9875C34.3185 2.9775 34.2801 2.97167 34.2385 2.97C34.1968 2.96667 34.1593 2.965 34.126 2.965H33.266V4.18ZM37.4868 6.075C37.1268 6.075 36.8184 5.99667 36.5618 5.84C36.3051 5.68167 36.1076 5.46167 35.9693 5.18C35.8326 4.89833 35.7643 4.57167 35.7643 4.2C35.7643 3.82833 35.8326 3.50167 35.9693 3.22C36.1076 2.93833 36.3051 2.71917 36.5618 2.5625C36.8184 2.40417 37.1268 2.325 37.4868 2.325C37.8468 2.325 38.1551 2.40417 38.4118 2.5625C38.6701 2.71917 38.8676 2.93833 39.0043 3.22C39.1426 3.50167 39.2118 3.82833 39.2118 4.2C39.2118 4.57167 39.1426 4.89833 39.0043 5.18C38.8676 5.46167 38.6701 5.68167 38.4118 5.84C38.1551 5.99667 37.8468 6.075 37.4868 6.075ZM37.4868 5.5075C37.7284 5.50917 37.9293 5.45583 38.0893 5.3475C38.2509 5.23917 38.3718 5.08667 38.4518 4.89C38.5334 4.69333 38.5743 4.46333 38.5743 4.2C38.5743 3.93667 38.5334 3.70833 38.4518 3.515C38.3718 3.32 38.2509 3.16833 38.0893 3.06C37.9293 2.95167 37.7284 2.89583 37.4868 2.8925C37.2451 2.89083 37.0443 2.94417 36.8843 3.0525C36.7243 3.16083 36.6034 3.31333 36.5218 3.51C36.4418 3.70667 36.4018 3.93667 36.4018 4.2C36.4018 4.46333 36.4418 4.6925 36.5218 4.8875C36.6018 5.08083 36.7218 5.23167 36.8818 5.34C37.0434 5.44833 37.2451 5.50417 37.4868 5.5075ZM41.0419 6.075C40.7785 6.075 40.541 6.02917 40.3294 5.9375C40.1194 5.84583 39.946 5.715 39.8094 5.545C39.6744 5.37333 39.5885 5.17 39.5519 4.935L40.1769 4.84C40.2302 5.05333 40.3394 5.21833 40.5044 5.335C40.671 5.45167 40.8627 5.51 41.0794 5.51C41.2077 5.51 41.3285 5.49 41.4419 5.45C41.5552 5.41 41.6469 5.35167 41.7169 5.275C41.7885 5.19833 41.8244 5.10417 41.8244 4.9925C41.8244 4.9425 41.816 4.89667 41.7994 4.855C41.7827 4.81167 41.7577 4.77333 41.7244 4.74C41.6927 4.70667 41.651 4.67667 41.5994 4.65C41.5494 4.62167 41.491 4.5975 41.4244 4.5775L40.4944 4.3025C40.4144 4.27917 40.3277 4.24833 40.2344 4.21C40.1427 4.17 40.0552 4.11583 39.9719 4.0475C39.8902 3.9775 39.8227 3.88917 39.7694 3.7825C39.7177 3.67417 39.6919 3.54083 39.6919 3.3825C39.6919 3.15083 39.7502 2.95667 39.8669 2.8C39.9852 2.64167 40.1435 2.52333 40.3419 2.445C40.5419 2.36667 40.7635 2.32833 41.0069 2.33C41.2535 2.33167 41.4735 2.37417 41.6669 2.4575C41.8602 2.53917 42.0219 2.65833 42.1519 2.815C42.2819 2.97167 42.3735 3.16083 42.4269 3.3825L41.7794 3.495C41.7527 3.36833 41.701 3.26083 41.6244 3.1725C41.5494 3.0825 41.4569 3.01417 41.3469 2.9675C41.2385 2.92083 41.1227 2.89583 40.9994 2.8925C40.8794 2.89083 40.7677 2.90917 40.6644 2.9475C40.5627 2.98417 40.4802 3.0375 40.4169 3.1075C40.3552 3.1775 40.3244 3.25917 40.3244 3.3525C40.3244 3.44083 40.351 3.51333 40.4044 3.57C40.4577 3.625 40.5235 3.66917 40.6019 3.7025C40.6819 3.73417 40.7627 3.76083 40.8444 3.7825L41.4894 3.9625C41.5777 3.98583 41.6769 4.0175 41.7869 4.0575C41.8969 4.0975 42.0027 4.15333 42.1044 4.225C42.206 4.29667 42.2894 4.39083 42.3544 4.5075C42.421 4.62417 42.4544 4.7725 42.4544 4.9525C42.4544 5.13917 42.4152 5.30333 42.3369 5.445C42.2602 5.585 42.156 5.70167 42.0244 5.795C41.8927 5.88833 41.7419 5.95833 41.5719 6.005C41.4035 6.05167 41.2269 6.075 41.0419 6.075ZM42.7455 6L43.8805 2.4H44.763L45.898 6H45.278L44.248 2.77H44.383L43.3655 6H42.7455ZM43.378 5.22V4.6575H45.268V5.22H43.378Z" fill="#4D0F0F"/>
<path d="M19.9999 16.0001H10.9999C10.9999 16.0001 10.9999 25.5001 10.9999 26.0001C10.9999 26.5001 16.4852 19.9054 19.9999 16.0001Z" fill="#D9D9D9"/>
<path d="M41 16H51V26C51 26 47.5 20.5 47 20C46.5 19.5 41 16 41 16Z" fill="#4D0F0F"/>
<path d="M54.875 17.6666V12.25H6.12496V50.1666H3.41663V55.5833H19.6666V36.625C19.6666 36.1835 19.7912 25.7916 30.5 25.7916C40.8485 25.7916 41.3143 35.547 41.3333 36.625V55.5833H57.5833V50.1666H54.875V17.6666ZM3.41663 1.41663H57.5833V6.83329H3.41663V1.41663Z" fill="#A98018"/>
<path d="M16.4764 6.075C16.2131 6.075 15.9756 6.02917 15.7639 5.9375C15.5539 5.84583 15.3806 5.715 15.2439 5.545C15.1089 5.37333 15.0231 5.17 14.9864 4.935L15.6114 4.84C15.6648 5.05333 15.7739 5.21833 15.9389 5.335C16.1056 5.45167 16.2973 5.51 16.5139 5.51C16.6423 5.51 16.7631 5.49 16.8764 5.45C16.9898 5.41 17.0814 5.35167 17.1514 5.275C17.2231 5.19833 17.2589 5.10417 17.2589 4.9925C17.2589 4.9425 17.2506 4.89667 17.2339 4.855C17.2173 4.81167 17.1923 4.77333 17.1589 4.74C17.1273 4.70667 17.0856 4.67667 17.0339 4.65C16.9839 4.62167 16.9256 4.5975 16.8589 4.5775L15.9289 4.3025C15.8489 4.27917 15.7623 4.24833 15.6689 4.21C15.5773 4.17 15.4898 4.11583 15.4064 4.0475C15.3248 3.9775 15.2573 3.88917 15.2039 3.7825C15.1523 3.67417 15.1264 3.54083 15.1264 3.3825C15.1264 3.15083 15.1848 2.95667 15.3014 2.8C15.4198 2.64167 15.5781 2.52333 15.7764 2.445C15.9764 2.36667 16.1981 2.32833 16.4414 2.33C16.6881 2.33167 16.9081 2.37417 17.1014 2.4575C17.2948 2.53917 17.4564 2.65833 17.5864 2.815C17.7164 2.97167 17.8081 3.16083 17.8614 3.3825L17.2139 3.495C17.1873 3.36833 17.1356 3.26083 17.0589 3.1725C16.9839 3.0825 16.8914 3.01417 16.7814 2.9675C16.6731 2.92083 16.5573 2.89583 16.4339 2.8925C16.3139 2.89083 16.2023 2.90917 16.0989 2.9475C15.9973 2.98417 15.9148 3.0375 15.8514 3.1075C15.7898 3.1775 15.7589 3.25917 15.7589 3.3525C15.7589 3.44083 15.7856 3.51333 15.8389 3.57C15.8923 3.625 15.9581 3.66917 16.0364 3.7025C16.1164 3.73417 16.1973 3.76083 16.2789 3.7825L16.9239 3.9625C17.0123 3.98583 17.1114 4.0175 17.2214 4.0575C17.3314 4.0975 17.4373 4.15333 17.5389 4.225C17.6406 4.29667 17.7239 4.39083 17.7889 4.5075C17.8556 4.62417 17.8889 4.7725 17.8889 4.9525C17.8889 5.13917 17.8498 5.30333 17.7714 5.445C17.6948 5.585 17.5906 5.70167 17.4589 5.795C17.3273 5.88833 17.1764 5.95833 17.0064 6.005C16.8381 6.05167 16.6614 6.075 16.4764 6.075ZM18.1801 6L19.3151 2.4H20.1976L21.3326 6H20.7126L19.6826 2.77H19.8176L18.8001 6H18.1801ZM18.8126 5.22V4.6575H20.7026V5.22H18.8126ZM21.7846 6V2.4H22.3946L24.0646 4.9375V2.4H24.6746V6H24.0646L22.3946 3.4625V6H21.7846ZM26.2384 6V2.965H25.0734V2.4H28.0059V2.965H26.8409V6H26.2384ZM28.058 6L29.193 2.4H30.0755L31.2105 6H30.5905L29.5605 2.77H29.6955L28.678 6H28.058ZM28.6905 5.22V4.6575H30.5805V5.22H28.6905ZM32.6635 6V2.4H34.151C34.186 2.4 34.231 2.40167 34.286 2.405C34.341 2.40667 34.3918 2.41167 34.4385 2.42C34.6468 2.45167 34.8185 2.52083 34.9535 2.6275C35.0901 2.73417 35.191 2.86917 35.256 3.0325C35.3226 3.19417 35.356 3.37417 35.356 3.5725C35.356 3.86583 35.2818 4.11833 35.1335 4.33C34.9851 4.54 34.7576 4.67 34.451 4.72L34.1935 4.7425H33.266V6H32.6635ZM34.731 6L34.021 4.535L34.6335 4.4L35.4135 6H34.731ZM33.266 4.18H34.126C34.1593 4.18 34.1968 4.17833 34.2385 4.175C34.2801 4.17167 34.3185 4.165 34.3535 4.155C34.4535 4.13 34.5318 4.08583 34.5885 4.0225C34.6468 3.95917 34.6876 3.8875 34.711 3.8075C34.736 3.7275 34.7485 3.64917 34.7485 3.5725C34.7485 3.49583 34.736 3.4175 34.711 3.3375C34.6876 3.25583 34.6468 3.18333 34.5885 3.12C34.5318 3.05667 34.4535 3.0125 34.3535 2.9875C34.3185 2.9775 34.2801 2.97167 34.2385 2.97C34.1968 2.96667 34.1593 2.965 34.126 2.965H33.266V4.18ZM37.4868 6.075C37.1268 6.075 36.8184 5.99667 36.5618 5.84C36.3051 5.68167 36.1076 5.46167 35.9693 5.18C35.8326 4.89833 35.7643 4.57167 35.7643 4.2C35.7643 3.82833 35.8326 3.50167 35.9693 3.22C36.1076 2.93833 36.3051 2.71917 36.5618 2.5625C36.8184 2.40417 37.1268 2.325 37.4868 2.325C37.8468 2.325 38.1551 2.40417 38.4118 2.5625C38.6701 2.71917 38.8676 2.93833 39.0043 3.22C39.1426 3.50167 39.2118 3.82833 39.2118 4.2C39.2118 4.57167 39.1426 4.89833 39.0043 5.18C38.8676 5.46167 38.6701 5.68167 38.4118 5.84C38.1551 5.99667 37.8468 6.075 37.4868 6.075ZM37.4868 5.5075C37.7284 5.50917 37.9293 5.45583 38.0893 5.3475C38.2509 5.23917 38.3718 5.08667 38.4518 4.89C38.5334 4.69333 38.5743 4.46333 38.5743 4.2C38.5743 3.93667 38.5334 3.70833 38.4518 3.515C38.3718 3.32 38.2509 3.16833 38.0893 3.06C37.9293 2.95167 37.7284 2.89583 37.4868 2.8925C37.2451 2.89083 37.0443 2.94417 36.8843 3.0525C36.7243 3.16083 36.6034 3.31333 36.5218 3.51C36.4418 3.70667 36.4018 3.93667 36.4018 4.2C36.4018 4.46333 36.4418 4.6925 36.5218 4.8875C36.6018 5.08083 36.7218 5.23167 36.8818 5.34C37.0434 5.44833 37.2451 5.50417 37.4868 5.5075ZM41.0419 6.075C40.7785 6.075 40.541 6.02917 40.3294 5.9375C40.1194 5.84583 39.946 5.715 39.8094 5.545C39.6744 5.37333 39.5885 5.17 39.5519 4.935L40.1769 4.84C40.2302 5.05333 40.3394 5.21833 40.5044 5.335C40.671 5.45167 40.8627 5.51 41.0794 5.51C41.2077 5.51 41.3285 5.49 41.4419 5.45C41.5552 5.41 41.6469 5.35167 41.7169 5.275C41.7885 5.19833 41.8244 5.10417 41.8244 4.9925C41.8244 4.9425 41.816 4.89667 41.7994 4.855C41.7827 4.81167 41.7577 4.77333 41.7244 4.74C41.6927 4.70667 41.651 4.67667 41.5994 4.65C41.5494 4.62167 41.491 4.5975 41.4244 4.5775L40.4944 4.3025C40.4144 4.27917 40.3277 4.24833 40.2344 4.21C40.1427 4.17 40.0552 4.11583 39.9719 4.0475C39.8902 3.9775 39.8227 3.88917 39.7694 3.7825C39.7177 3.67417 39.6919 3.54083 39.6919 3.3825C39.6919 3.15083 39.7502 2.95667 39.8669 2.8C39.9852 2.64167 40.1435 2.52333 40.3419 2.445C40.5419 2.36667 40.7635 2.32833 41.0069 2.33C41.2535 2.33167 41.4735 2.37417 41.6669 2.4575C41.8602 2.53917 42.0219 2.65833 42.1519 2.815C42.2819 2.97167 42.3735 3.16083 42.4269 3.3825L41.7794 3.495C41.7527 3.36833 41.701 3.26083 41.6244 3.1725C41.5494 3.0825 41.4569 3.01417 41.3469 2.9675C41.2385 2.92083 41.1227 2.89583 40.9994 2.8925C40.8794 2.89083 40.7677 2.90917 40.6644 2.9475C40.5627 2.98417 40.4802 3.0375 40.4169 3.1075C40.3552 3.1775 40.3244 3.25917 40.3244 3.3525C40.3244 3.44083 40.351 3.51333 40.4044 3.57C40.4577 3.625 40.5235 3.66917 40.6019 3.7025C40.6819 3.73417 40.7627 3.76083 40.8444 3.7825L41.4894 3.9625C41.5777 3.98583 41.6769 4.0175 41.7869 4.0575C41.8969 4.0975 42.0027 4.15333 42.1044 4.225C42.206 4.29667 42.2894 4.39083 42.3544 4.5075C42.421 4.62417 42.4544 4.7725 42.4544 4.9525C42.4544 5.13917 42.4152 5.30333 42.3369 5.445C42.2602 5.585 42.156 5.70167 42.0244 5.795C41.8927 5.88833 41.7419 5.95833 41.5719 6.005C41.4035 6.05167 41.2269 6.075 41.0419 6.075ZM42.7455 6L43.8805 2.4H44.763L45.898 6H45.278L44.248 2.77H44.383L43.3655 6H42.7455ZM43.378 5.22V4.6575H45.268V5.22H43.378Z" fill="#4D0F0F"/>
<path d="M41 16H51V26C51 26 47.5 20.5 47 20C46.5 19.5 41 16 41 16Z" fill="#4D0F0F"/>
<path d="M20 16H10V26C10 26 13.5 20.5 14 20C14.5 19.5 20 16 20 16Z" fill="#4D0F0F"/>
<path d="M30.2582 48.6466L44.75 56.5111L40.6546 40.867L54.5164 29.7202L37.0207 28.5823L30.2582 13L23.4958 28.5823L6 29.7202L20.4394 40.867L16.3964 56.4726L30.2582 48.6466Z" fill="#F5C518"/>
<path d="M30.2583 13V22.4748V36.4083L37.1892 28.6055L30.2583 13Z" fill="#DAA520"/>
<path d="M54.5164 29.7205L44.6976 32.5072L30.2582 36.4086L40.6546 40.8673L54.5164 29.7205Z" fill="#DAA520"/>
<path d="M5.99994 29.7208L16.9739 33.0648L30.2581 36.4089L23.3272 28.6061L5.99994 29.7208Z" fill="#DAA520"/>
<path d="M44.7502 56.5113L38.3448 47.5564L30.2587 36.4096L30.2587 48.6711L44.7502 56.5113Z" fill="#DAA520"/>
<path d="M16.3967 56.4725L22.1725 48.6697L26.7931 41.9816L30.3234 36.4729L20.4398 40.867L16.3967 56.4725Z" fill="#DAA520"/>
<path d="M57.5759 58.9999L3.5 59" stroke="#A98018" stroke-width="2.5"/>
</g>
<defs>
<clipPath id="clip0_1061_1138">
<rect width="63" height="63" fill="white"/>
</clipPath>
</defs>
</svg>
