<svg width="32" height="32" viewBox="0 0 32 32" fill="none" xmlns="http://www.w3.org/2000/svg">
<rect width="16" height="16" transform="matrix(-1 0 0 1 24 8)" fill="#7A1212"/>
<path d="M16 3.45599C18.481 3.45599 20.9062 4.19169 22.9691 5.57004C25.0319 6.94839 26.6397 8.9075 27.5891 11.1996C28.5386 13.4917 28.787 16.0139 28.303 18.4472C27.819 20.8805 26.6243 23.1156 24.8699 24.8699C23.1156 26.6243 20.8805 27.819 18.4472 28.303C16.0139 28.787 13.4917 28.5386 11.1996 27.5891C8.9075 26.6397 6.94839 25.0319 5.57004 22.9691C4.19169 20.9062 3.45599 18.481 3.45599 16C3.45599 9.07199 9.13599 3.45599 16 3.45599ZM19.2 22.208V9.79199L9.88799 15.952L19.2 22.208Z" fill="#F5C518"/>
</svg>
