<svg width="20" height="21" viewBox="0 0 20 21" fill="none" xmlns="http://www.w3.org/2000/svg">
<path d="M17.07 3.47395L15.66 4.88395C16.4027 5.62745 16.9916 6.50999 17.3931 7.48115C17.7946 8.45231 18.0008 9.49306 18 10.5439C18 14.9639 14.42 18.5439 10 18.5439C5.58 18.5439 2 14.9639 2 10.5439C2 6.46395 5.05 3.10395 9 2.61395V4.63395C6.16 5.11395 4 7.57395 4 10.5439C4 13.8539 6.69 16.5439 10 16.5439C13.31 16.5439 16 13.8539 16 10.5439C16 8.88395 15.33 7.38395 14.24 6.30395L12.83 7.71395C13.55 8.44395 14 9.44394 14 10.5439C14 12.7539 12.21 14.5439 10 14.5439C7.79 14.5439 6 12.7539 6 10.5439C6 8.68395 7.28 7.13395 9 6.68395V8.82395C8.4 9.17395 8 9.80395 8 10.5439C8 11.6439 8.9 12.5439 10 12.5439C11.1 12.5439 12 11.6439 12 10.5439C12 9.80395 11.6 9.16395 11 8.82395V0.543945H10C4.48 0.543945 0 5.02395 0 10.5439C0 16.0639 4.48 20.5439 10 20.5439C15.52 20.5439 20 16.0639 20 10.5439C20 7.78395 18.88 5.28395 17.07 3.47395Z" fill="white"/>
</svg>
