<svg width="158" height="132" viewBox="0 0 158 132" fill="none" xmlns="http://www.w3.org/2000/svg">
<path d="M158 115.22H0V115.308H158V115.22Z" fill="#EBEBEB"/>
<path d="M142.168 120.883H131.702V120.971H142.168V120.883Z" fill="#EBEBEB"/>
<path d="M127.724 120.883H105.348V120.971H127.724V120.883Z" fill="#EBEBEB"/>
<path d="M93.0081 117.617H86.9441V117.705H93.0081V117.617Z" fill="#EBEBEB"/>
<path d="M27.4129 118.208H16.5773V118.296H27.4129V118.208Z" fill="#EBEBEB"/>
<path d="M49.9281 118.208H30.2255V118.296H49.9281V118.208Z" fill="#EBEBEB"/>
<path d="M71.1442 119.693H59.5122V119.781H71.1442V119.693Z" fill="#EBEBEB"/>
<path d="M74.8921 99.5243H13.8757C13.3977 99.5234 12.9395 99.3113 12.6018 98.9345C12.2641 98.5578 12.0745 98.0472 12.0745 97.5148V1.99189C12.0786 1.46261 12.2701 0.956524 12.6074 0.583568C12.9446 0.210612 13.4004 0.000906695 13.8757 0H74.8921C75.3707 0 75.8296 0.211714 76.168 0.588566C76.5064 0.965419 76.6965 1.47654 76.6965 2.00949V97.5148C76.6965 98.0478 76.5064 98.5589 76.168 98.9358C75.8296 99.3126 75.3707 99.5243 74.8921 99.5243ZM13.8757 0.0703852C13.4186 0.0713175 12.9806 0.274172 12.6577 0.634424C12.3348 0.994676 12.1535 1.48289 12.1535 1.99189V97.5148C12.1535 98.0238 12.3348 98.5121 12.6577 98.8723C12.9806 99.2326 13.4186 99.4354 13.8757 99.4363H74.8921C75.3494 99.4354 75.7878 99.2327 76.1112 98.8725C76.4346 98.5124 76.6166 98.0242 76.6175 97.5148V1.99189C76.6166 1.48256 76.4346 0.994361 76.1112 0.634209C75.7878 0.274058 75.3494 0.0713155 74.8921 0.0703852H13.8757Z" fill="#EBEBEB"/>
<path d="M143.246 99.5243H82.2264C81.7481 99.5234 81.2896 99.3114 80.9514 98.9347C80.6132 98.5581 80.4228 98.0475 80.422 97.5148V1.99189C80.427 1.46229 80.6192 0.956207 80.9569 0.583348C81.2947 0.210489 81.7508 0.000896806 82.2264 0H143.246C143.721 0.00183159 144.176 0.211946 144.512 0.584803C144.849 0.95766 145.04 1.46322 145.044 1.99189V97.5148C145.044 98.0466 144.855 98.5566 144.518 98.9333C144.181 99.3099 143.723 99.5225 143.246 99.5243ZM82.2264 0.0703852C81.769 0.0713155 81.3307 0.274058 81.0073 0.634209C80.6839 0.994361 80.5018 1.48256 80.501 1.99189V97.5148C80.5018 98.0242 80.6839 98.5124 81.0073 98.8725C81.3307 99.2327 81.769 99.4354 82.2264 99.4363H143.246C143.703 99.4354 144.142 99.2327 144.465 98.8725C144.788 98.5124 144.97 98.0242 144.971 97.5148V1.99189C144.97 1.48256 144.788 0.994361 144.465 0.634209C144.142 0.274058 143.703 0.0713155 143.246 0.0703852H82.2264Z" fill="#EBEBEB"/>
<path d="M23.9657 48.6431L66.8469 48.6431V7.2673L23.9657 7.2673L23.9657 48.6431Z" fill="#E6E6E6"/>
<path d="M23.008 48.6431L65.8892 48.6431V7.2673L23.008 7.2673L23.008 48.6431Z" fill="#F5F5F5"/>
<path d="M64.1797 47.165V8.74536L24.7208 8.74536V47.165H64.1797Z" fill="#FAFAFA"/>
<path d="M48.3541 47.165L55.5052 8.74536H40.5457L33.3978 47.165H48.3541Z" fill="white"/>
<path d="M25.4412 47.1685L25.4412 8.74887H24.7207L24.7207 47.1685H25.4412Z" fill="#E6E6E6"/>
<path d="M23.7156 40.2776L65.1812 40.2776V38.2928L23.7156 38.2928V40.2776Z" fill="#F5F5F5"/>
<path d="M64.8558 113.126H71.7035V80.0558H64.8558V113.126Z" fill="#F0F0F0"/>
<path d="M20.1389 115.22H70.3923V113.126H20.1389V115.22Z" fill="#F0F0F0"/>
<path d="M64.8558 80.0524H18.8209V113.123H64.8558V80.0524Z" fill="#F5F5F5"/>
<path d="M62.1667 84.1242H21.5133V94.9705H62.1667V84.1242Z" fill="#F0F0F0"/>
<path d="M62.1667 98.208H21.5133V109.054H62.1667V98.208Z" fill="#F0F0F0"/>
<path d="M30.8826 90.2899H52.7972C52.9738 90.289 53.1429 90.2104 53.2677 90.0714C53.3926 89.9323 53.4631 89.744 53.4639 89.5473C53.4631 89.3503 53.3927 89.1616 53.2679 89.022C53.1432 88.8824 52.974 88.8031 52.7972 88.8012H30.8826C30.7057 88.8031 30.5366 88.8824 30.4118 89.022C30.2871 89.1616 30.2166 89.3503 30.2158 89.5473C30.2167 89.744 30.2872 89.9323 30.412 90.0714C30.5369 90.2104 30.706 90.289 30.8826 90.2899Z" fill="#F5F5F5"/>
<path d="M30.8826 104.374H52.7972C52.9738 104.373 53.1429 104.294 53.2677 104.155C53.3926 104.016 53.4631 103.828 53.4639 103.631C53.4639 103.434 53.3938 103.245 53.2688 103.105C53.1439 102.965 52.9743 102.886 52.7972 102.885H30.8826C30.7055 102.886 30.5359 102.965 30.4109 103.105C30.286 103.245 30.2158 103.434 30.2158 103.631C30.2167 103.828 30.2872 104.016 30.412 104.155C30.5369 104.294 30.706 104.373 30.8826 104.374Z" fill="#F5F5F5"/>
<path d="M136.392 28.893C140.291 27.6965 141.625 19.8169 131.772 16.6003C133.946 24.5256 129.595 30.9694 136.392 28.893Z" fill="#EBEBEB"/>
<path d="M137.255 32.3138C140.329 28.615 137.422 20.2463 126.349 23.667C132.613 29.7693 131.898 38.7645 137.255 32.3138Z" fill="#E0E0E0"/>
<path d="M134.221 33.264C131.649 30.4275 135.333 20.556 143.827 25.131C139.015 30.2656 138.724 38.2085 134.221 33.264Z" fill="#FAFAFA"/>
<path d="M131.655 38.7891H139.141L139.707 33.1477H131.093L131.655 38.7891Z" fill="#E6E6E6"/>
<path d="M131.007 34.1578H139.792C139.94 34.1578 140.083 34.0922 140.188 33.9754C140.293 33.8586 140.351 33.7001 140.351 33.5349C140.351 33.3697 140.293 33.2113 140.188 33.0945C140.083 32.9777 139.94 32.912 139.792 32.912H131.007C130.859 32.912 130.717 32.9777 130.612 33.0945C130.507 33.2113 130.448 33.3697 130.448 33.5349C130.448 33.7001 130.507 33.8586 130.612 33.9754C130.717 34.0922 130.859 34.1578 131.007 34.1578Z" fill="#E6E6E6"/>
<path d="M68.6701 105.665V96.1106H75.8149V86.5594H82.9628V77.0046H90.1076V67.4499H97.2555V57.8986H104.4V48.3439H111.548V38.7891H118.696H158V115.22H68.6701H61.5222V105.665H68.6701Z" fill="#FAFAFA"/>
<path d="M107.974 105.665V96.1106H115.122V86.5594H122.267V77.0046H129.415V67.4499H136.559V57.8986H143.707V48.3439H150.852V38.7891H158V48.3439V115.22H107.974H100.829V105.665H107.974Z" fill="#E0E0E0"/>
<path d="M100.829 105.665H61.1019V108.53H100.829V105.665Z" fill="#EBEBEB"/>
<path d="M107.977 96.1107H68.2496V98.9754H107.977V96.1107Z" fill="#EBEBEB"/>
<path d="M115.122 86.5593H75.3944V89.424H115.122V86.5593Z" fill="#EBEBEB"/>
<path d="M122.27 77.0048H82.5421V79.8694H122.27V77.0048Z" fill="#EBEBEB"/>
<path d="M129.415 67.4498H89.6873V70.3145H129.415V67.4498Z" fill="#EBEBEB"/>
<path d="M136.562 57.8986H96.835V60.7633H136.562V57.8986Z" fill="#EBEBEB"/>
<path d="M143.707 48.3439H103.98V51.2085H143.707V48.3439Z" fill="#EBEBEB"/>
<path d="M150.855 38.7891H111.127V41.6538H150.855V38.7891Z" fill="#EBEBEB"/>
<path d="M79.0001 131.113C112.838 131.113 140.269 129.329 140.269 127.129C140.269 124.929 112.838 123.145 79.0001 123.145C45.162 123.145 17.7308 124.929 17.7308 127.129C17.7308 129.329 45.162 131.113 79.0001 131.113Z" fill="#F5F5F5"/>
<path d="M105.765 36.4701C105.708 37.5259 105.598 38.4936 105.475 39.4966C105.351 40.4996 105.184 41.4815 104.994 42.4669C104.625 44.4612 104.09 46.4133 103.398 48.2983L103.111 49.0021L103.041 49.1781L103.016 49.2696L102.966 49.3822C102.869 49.6031 102.747 49.809 102.602 49.9945C102.43 50.2104 102.224 50.3903 101.995 50.526C101.771 50.6573 101.527 50.7431 101.275 50.7793C100.888 50.8254 100.497 50.7798 100.128 50.6456C99.6042 50.4465 99.1101 50.1619 98.6616 49.801C98.2693 49.4929 97.8947 49.158 97.5398 48.798C96.2098 47.4246 95.013 45.8994 93.969 44.2476L95.015 43.2587C95.647 43.9098 96.279 44.5679 96.911 45.1908C97.5393 45.8135 98.1953 46.4008 98.8765 46.9504C99.1971 47.2058 99.5305 47.4408 99.875 47.6542C100.153 47.8419 100.453 47.9852 100.766 48.0801C100.874 48.1047 100.949 48.0801 100.915 48.0801C100.84 48.0893 100.77 48.1251 100.716 48.1821C100.697 48.1821 100.697 48.1821 100.716 48.1821L100.817 47.89L101.038 47.2495C101.586 45.4861 102.014 43.6791 102.318 41.844C102.485 40.9219 102.602 39.9823 102.729 39.0497C102.855 38.1171 102.943 37.1563 103.016 36.266L105.765 36.4701Z" fill="#FFC3BD"/>
<path d="M103.85 32.5954C102.671 32.9298 101.847 38.3283 101.847 38.3283L105.092 40.7918C105.092 40.7918 108.205 35.3475 107.304 33.9046C106.356 32.3948 105.569 32.1098 103.85 32.5954Z" fill="#9099A5"/>
<path d="M103.85 32.5954C102.671 32.9298 101.847 38.3283 101.847 38.3283L105.092 40.7918C105.092 40.7918 108.205 35.3475 107.304 33.9046C106.356 32.3948 105.569 32.1098 103.85 32.5954Z" fill="#9099A5"/>
<path opacity="0.4" d="M103.85 32.5954C102.671 32.9298 101.847 38.3283 101.847 38.3283L105.092 40.7918C105.092 40.7918 108.205 35.3475 107.304 33.9046C106.356 32.3948 105.569 32.1098 103.85 32.5954Z" fill="black"/>
<path opacity="0.3" d="M103.954 33.8026L103.051 39.2398L104.874 40.6194L103.954 33.8026Z" fill="black"/>
<path d="M95.0684 43.0369L93.5358 40.32L92.6605 43.4064C92.6605 43.4064 93.9245 44.8845 95.0716 44.5326L95.0684 43.0369Z" fill="#FFC3BD"/>
<path d="M91.2605 39.4227L90.6538 42.0481L92.6478 43.4065L93.5231 40.3202L91.2605 39.4227Z" fill="#FFC3BD"/>
<path d="M110.221 123.438H107.364L107.171 116.068H110.031L110.221 123.438Z" fill="#FFC3BD"/>
<path d="M135.434 108.657L133.257 110.719L128.274 105.764L130.451 103.705L135.434 108.657Z" fill="#FFC3BD"/>
<path d="M132.66 110.473L134.774 107.777C134.81 107.731 134.86 107.7 134.915 107.692C134.969 107.684 135.025 107.698 135.071 107.731L137.223 109.283C137.276 109.324 137.321 109.377 137.354 109.439C137.387 109.501 137.409 109.57 137.416 109.641C137.424 109.713 137.418 109.785 137.399 109.854C137.38 109.923 137.348 109.986 137.305 110.04C136.553 110.965 136.149 111.37 135.219 112.553C134.651 113.281 133.883 114.414 133.093 115.417C132.303 116.42 131.367 115.611 131.617 115.111C132.726 112.88 132.461 112.099 132.48 111.001C132.483 110.807 132.546 110.62 132.66 110.473Z" fill="#263238"/>
<path d="M107.266 123.072H110.477C110.532 123.071 110.586 123.093 110.628 123.133C110.669 123.173 110.697 123.229 110.704 123.29L111.071 126.105C111.081 126.18 111.077 126.256 111.058 126.328C111.038 126.4 111.005 126.467 110.96 126.523C110.915 126.579 110.859 126.623 110.797 126.653C110.735 126.682 110.668 126.696 110.6 126.693C109.482 126.672 108.941 126.598 107.529 126.598C106.66 126.598 104.865 126.7 103.664 126.7C102.463 126.7 102.4 125.377 102.902 125.261C105.14 124.722 106.021 123.983 106.777 123.276C106.912 123.144 107.086 123.072 107.266 123.072Z" fill="#263238"/>
<path opacity="0.2" d="M107.174 116.072L107.272 119.869H110.129L110.031 116.072H107.174Z" fill="black"/>
<path opacity="0.2" d="M130.454 103.705L128.274 105.764L130.846 108.319L133.023 106.257L130.454 103.705Z" fill="black"/>
<path d="M103.85 32.5954C103.85 32.5954 102.488 33.1303 105.215 51.8035H116.819C116.626 46.5422 116.62 43.2975 118.876 32.5039C117.252 32.1309 115.605 31.8886 113.95 31.779C112.195 31.6397 110.434 31.6397 108.679 31.779C106.416 32.0253 103.85 32.5954 103.85 32.5954Z" fill="#9099A5"/>
<path opacity="0.4" d="M103.85 32.5954C103.85 32.5954 102.488 33.1303 105.215 51.8035H116.819C116.626 46.5422 116.62 43.2975 118.876 32.5039C117.252 32.1309 115.605 31.8886 113.95 31.779C112.195 31.6397 110.434 31.6397 108.679 31.779C106.416 32.0253 103.85 32.5954 103.85 32.5954Z" fill="black"/>
<path d="M113.95 31.779C112.195 31.6397 110.433 31.6397 108.679 31.779C108.394 31.8071 108.104 31.8423 107.816 31.881C107.697 32.081 107.621 32.3088 107.593 32.5468C107.566 32.7848 107.588 33.0266 107.658 33.2535C108.028 34.2776 109.361 34.3973 110.334 34.3973C113.927 34.3973 114.534 32.0605 114.559 31.962L114.594 31.8212C114.392 31.8071 114.164 31.7895 113.95 31.779Z" fill="white"/>
<path d="M113.444 25.1732C113.109 27.0595 112.78 30.5189 113.965 31.7788C113.965 31.7788 113.501 33.6968 110.35 33.6968C106.874 33.6968 108.694 31.7823 108.694 31.7823C110.59 31.2791 110.537 29.7165 110.208 28.2631L113.444 25.1732Z" fill="#FFC3BD"/>
<path opacity="0.2" d="M112.107 26.426L110.193 28.2455C110.275 28.5914 110.33 28.9447 110.357 29.3013C111.077 29.1851 112.07 28.3018 112.149 27.4607C112.193 27.116 112.179 26.7651 112.107 26.426Z" fill="black"/>
<path d="M111.456 14.904C111.162 13.7954 110.916 12.0499 112.686 11.2615C111.993 10.3184 111.826 8.54468 112.686 7.49243C113.545 6.44017 114.834 6.82729 114.834 6.82729C114.834 6.82729 115.214 4.25472 118.023 4.71574C120.832 5.17676 119.581 7.23552 119.581 7.23552C119.581 7.23552 123.414 6.3909 123.67 10.4028C123.926 14.4148 121.726 13.9221 121.726 13.9221C121.726 13.9221 123.436 15.5198 122.488 17.2759C121.54 19.032 119.35 18.4267 119.35 18.4267C119.35 18.4267 118.32 21.5307 115.893 19.764C113.466 17.9974 111.456 14.904 111.456 14.904Z" fill="#263238"/>
<path d="M105.765 17.2445C104.817 18.61 105.234 20.1549 106.081 20.7638C108.119 22.2137 111.067 16.1324 110.299 15.404C109.532 14.6755 106.713 15.8755 105.765 17.2445Z" fill="#263238"/>
<path d="M114.326 13.9925C112.986 13.3907 111.627 14.0206 111.204 14.9286C110.17 17.1422 114.863 21.1295 116.222 18.3634C117.028 16.7199 115.707 14.6118 114.326 13.9925Z" fill="#9099A5"/>
<path d="M113.76 20.7637C113.858 23.931 113.959 25.2543 112.673 27.0174C110.742 29.6674 107.238 29.1114 106.296 26.0496C105.449 23.2941 105.433 18.5959 108.085 17.0544C108.667 16.7111 109.319 16.5394 109.979 16.5556C110.638 16.5718 111.282 16.7754 111.851 17.147C112.419 17.5187 112.893 18.046 113.227 18.679C113.562 19.312 113.745 20.0296 113.76 20.7637Z" fill="#FFC3BD"/>
<path d="M113.334 22.4212C112.07 21.8968 111.754 20.2533 111.956 19.6058C111.324 19.5776 109.943 19.3242 109.428 18.4515C108.442 19.1553 106.359 19.8592 106.135 18.6873C105.911 17.5153 109.052 14.5029 111.428 14.2706C114.253 13.9961 117.04 17.086 116.323 20.0457C115.606 23.0054 113.334 22.4212 113.334 22.4212Z" fill="#263238"/>
<path d="M105.228 51.8035C105.228 51.8035 102.975 76.315 103.161 86.0211C103.357 96.1143 106.678 119.134 106.678 119.134H110.54C110.54 119.134 109.93 96.702 110.271 86.7918C110.644 75.9842 113.725 51.8035 113.725 51.8035H105.228Z" fill="#263238"/>
<path d="M110.862 119.288H106.331L105.996 117.68L111.074 117.483L110.862 119.288Z" fill="#9099A5"/>
<path opacity="0.2" d="M110.221 57.9024C107.377 64.2863 109.649 75.935 110.657 80.2707C111.172 73.7601 112.044 65.8031 112.724 59.9611C112.294 56.6601 111.548 54.9567 110.221 57.9024Z" fill="black"/>
<path d="M108.281 51.8035C108.281 51.8035 110.91 77.2864 112.894 85.4686C115.252 95.1817 129.892 108.256 129.892 108.256L132.862 105.44C132.862 105.44 122.251 91.2366 120.447 86.1197C116.601 75.21 119.894 58.9229 116.819 51.7964L108.281 51.8035Z" fill="#263238"/>
<path d="M133.336 105.296L129.651 108.78L128.274 107.861L132.442 103.543L133.336 105.296Z" fill="#9099A5"/>
<path d="M109.554 22.0869C109.576 22.3438 109.472 22.562 109.323 22.5796C109.175 22.5971 109.033 22.4001 109.007 22.1467C108.982 21.8933 109.09 21.6681 109.241 21.654C109.393 21.6399 109.532 21.8194 109.554 22.0869Z" fill="#263238"/>
<path d="M106.963 22.365C106.985 22.6184 106.881 22.8401 106.729 22.8577C106.577 22.8753 106.441 22.6782 106.413 22.4213C106.384 22.1644 106.495 21.9462 106.644 21.9321C106.792 21.9181 106.941 22.1081 106.963 22.365Z" fill="#263238"/>
<path d="M106.716 21.939L106.151 21.8193C106.151 21.8193 106.492 22.2698 106.716 21.939Z" fill="#263238"/>
<path d="M107.683 22.7311C107.529 23.3353 107.302 23.9131 107.007 24.4485C107.132 24.5288 107.272 24.5779 107.416 24.5925C107.56 24.607 107.705 24.5867 107.841 24.5329L107.683 22.7311Z" fill="#ED847E"/>
<path d="M109.115 25.3738C108.99 25.412 108.862 25.4379 108.733 25.4513C108.724 25.4522 108.715 25.4513 108.707 25.4484C108.698 25.4456 108.69 25.4409 108.684 25.4347C108.677 25.4285 108.671 25.4208 108.667 25.4122C108.663 25.4036 108.661 25.3941 108.66 25.3844C108.658 25.3644 108.663 25.3444 108.675 25.3286C108.686 25.3129 108.702 25.3026 108.72 25.2999C109.006 25.2765 109.283 25.1786 109.529 25.0142C109.775 24.8498 109.983 24.6234 110.136 24.3533C110.139 24.3439 110.145 24.3356 110.151 24.3288C110.158 24.322 110.166 24.317 110.175 24.314C110.184 24.3109 110.193 24.3101 110.202 24.3114C110.211 24.3127 110.22 24.3162 110.227 24.3216C110.243 24.3313 110.255 24.3473 110.26 24.3663C110.265 24.3853 110.264 24.4058 110.256 24.4236C110.001 24.8935 109.592 25.2343 109.115 25.3738Z" fill="#263238"/>
<path d="M114.424 22.9492C114.355 23.5548 114.073 24.1053 113.64 24.4801C113.062 24.9728 112.506 24.4801 112.439 23.7094C112.382 23.0055 112.61 21.9498 113.299 21.7456C113.449 21.7116 113.605 21.7186 113.752 21.7662C113.899 21.8138 114.034 21.9005 114.145 22.0188C114.255 22.1372 114.339 22.2837 114.387 22.4457C114.436 22.6078 114.448 22.7806 114.424 22.9492Z" fill="#FFC3BD"/>
<path d="M109.832 20.278C109.815 20.2829 109.796 20.2839 109.778 20.2809C109.76 20.2779 109.743 20.2709 109.728 20.2604C109.585 20.1585 109.422 20.0959 109.253 20.0775C109.083 20.0592 108.913 20.0857 108.755 20.1548C108.722 20.171 108.684 20.1728 108.65 20.1598C108.616 20.1467 108.588 20.1198 108.571 20.0844C108.556 20.0484 108.554 20.0072 108.566 19.9697C108.578 19.9321 108.602 19.9013 108.634 19.8838C108.833 19.7923 109.049 19.7554 109.264 19.7762C109.478 19.797 109.685 19.875 109.867 20.0035C109.882 20.0136 109.895 20.0269 109.905 20.0426C109.916 20.0584 109.923 20.0763 109.927 20.0952C109.931 20.1142 109.932 20.1339 109.929 20.1532C109.926 20.1725 109.92 20.191 109.911 20.2076C109.894 20.2413 109.865 20.2664 109.832 20.278Z" fill="#263238"/>
<path d="M105.692 21.1542C105.66 21.168 105.624 21.168 105.591 21.1542C105.561 21.1342 105.538 21.102 105.528 21.064C105.518 21.026 105.521 20.9853 105.538 20.95C105.634 20.7358 105.775 20.5507 105.95 20.4104C106.124 20.2701 106.326 20.1788 106.539 20.1441C106.557 20.1422 106.575 20.1443 106.592 20.1502C106.609 20.1561 106.624 20.1657 106.638 20.1785C106.652 20.1913 106.663 20.207 106.671 20.2247C106.679 20.2424 106.683 20.2616 106.685 20.2814C106.687 20.321 106.676 20.3601 106.653 20.3904C106.63 20.4207 106.597 20.4397 106.561 20.4433C106.394 20.4747 106.235 20.5497 106.098 20.6622C105.962 20.7747 105.851 20.9216 105.775 21.0908C105.766 21.1072 105.754 21.1213 105.739 21.1322C105.725 21.1431 105.709 21.1506 105.692 21.1542Z" fill="#263238"/>
<path d="M120.061 35.9352C120.706 37.6906 121.262 39.4847 121.727 41.3091C122.219 43.1493 122.57 45.0331 122.776 46.9399C122.829 47.4255 122.845 47.9358 122.864 48.4391V48.7241C122.864 48.8262 122.848 48.9317 122.836 49.0232C122.809 49.1991 122.773 49.3731 122.728 49.5441C122.646 49.8368 122.54 50.1206 122.412 50.3922C121.974 51.2945 121.437 52.1326 120.813 52.8874C119.66 54.2985 118.39 55.5863 117.021 56.7339L116.108 55.6042C117.16 54.2353 118.222 52.8311 119.123 51.3811C119.558 50.7232 119.929 50.0153 120.229 49.2696C120.28 49.1253 120.322 48.9771 120.355 48.8262C120.364 48.775 120.369 48.7233 120.371 48.6713C120.373 48.6561 120.373 48.6408 120.371 48.6256V48.5763C120.33 48.161 120.301 47.7458 120.232 47.3199C119.96 45.5814 119.581 43.8658 119.097 42.1853C118.614 40.482 118.074 38.7541 117.517 37.1071L120.061 35.9352Z" fill="#FFC3BD"/>
<path d="M118.876 32.5038C120.039 32.898 121.435 37.3569 121.435 37.3569L116.92 40.9465C116.92 40.9465 115.273 37.2267 115.763 35.5515C116.288 33.8095 117.552 32.0534 118.876 32.5038Z" fill="#9099A5"/>
<path opacity="0.4" d="M118.876 32.5038C120.039 32.898 121.435 37.3569 121.435 37.3569L116.92 40.9465C116.92 40.9465 115.273 37.2267 115.763 35.5515C116.288 33.8095 117.552 32.0534 118.876 32.5038Z" fill="black"/>
<path d="M131.879 112.007C131.821 112.005 131.764 111.989 131.712 111.959C131.66 111.929 131.614 111.887 131.579 111.835C131.551 111.802 131.53 111.761 131.52 111.716C131.51 111.672 131.511 111.625 131.522 111.581C131.63 111.194 132.622 110.877 132.736 110.842C132.748 110.837 132.762 110.837 132.774 110.841C132.787 110.846 132.798 110.855 132.805 110.867C132.812 110.879 132.816 110.893 132.816 110.907C132.816 110.922 132.812 110.936 132.805 110.948C132.628 111.324 132.278 111.958 131.917 112.004L131.879 112.007ZM132.613 111.039C132.221 111.18 131.709 111.423 131.665 111.627C131.66 111.646 131.66 111.667 131.665 111.686C131.67 111.705 131.68 111.723 131.693 111.736C131.718 111.776 131.752 111.809 131.792 111.83C131.832 111.851 131.876 111.86 131.92 111.856C132.104 111.831 132.36 111.528 132.613 111.039Z" fill="#9099A5"/>
<path d="M132.3 111.053C132.004 111.087 131.708 110.994 131.472 110.793C131.439 110.746 131.421 110.689 131.421 110.629C131.421 110.57 131.439 110.512 131.472 110.466C131.5 110.417 131.538 110.376 131.582 110.345C131.626 110.315 131.676 110.296 131.728 110.29C132.139 110.234 132.761 110.832 132.787 110.856C132.796 110.865 132.803 110.876 132.807 110.888C132.811 110.901 132.811 110.914 132.809 110.927C132.807 110.94 132.802 110.953 132.795 110.964C132.787 110.975 132.776 110.983 132.764 110.987C132.613 111.034 132.457 111.057 132.3 111.053ZM131.797 110.438H131.753C131.721 110.442 131.69 110.454 131.662 110.472C131.634 110.491 131.61 110.517 131.592 110.547C131.545 110.628 131.56 110.67 131.592 110.698C131.715 110.878 132.278 110.944 132.619 110.874C132.385 110.649 132.102 110.498 131.797 110.438Z" fill="#9099A5"/>
<path d="M106.192 123.628C105.948 123.652 105.703 123.583 105.5 123.431C105.456 123.387 105.423 123.332 105.401 123.271C105.38 123.21 105.371 123.144 105.377 123.079C105.379 123.037 105.391 122.997 105.412 122.962C105.432 122.926 105.46 122.898 105.494 122.878C105.844 122.663 106.982 123.311 107.111 123.388C107.123 123.396 107.133 123.407 107.139 123.421C107.146 123.435 107.148 123.451 107.146 123.466C107.144 123.481 107.138 123.496 107.129 123.507C107.119 123.519 107.106 123.526 107.092 123.529C106.796 123.593 106.494 123.626 106.192 123.628ZM105.683 122.97C105.639 122.967 105.596 122.976 105.557 122.998C105.543 123.005 105.532 123.017 105.524 123.031C105.516 123.045 105.512 123.062 105.512 123.079C105.507 123.123 105.512 123.168 105.526 123.209C105.539 123.251 105.562 123.288 105.591 123.318C105.765 123.494 106.223 123.522 106.855 123.406C106.49 123.187 106.093 123.04 105.683 122.97Z" fill="#9099A5"/>
<path d="M107.08 123.526H107.051C106.71 123.353 106.037 122.667 106.103 122.308C106.103 122.224 106.17 122.115 106.356 122.093C106.423 122.086 106.492 122.093 106.556 122.115C106.621 122.138 106.681 122.175 106.732 122.224C107.089 122.558 107.156 123.413 107.159 123.452C107.16 123.465 107.158 123.478 107.153 123.49C107.148 123.501 107.14 123.511 107.13 123.519C107.123 123.524 107.114 123.527 107.106 123.528C107.097 123.53 107.088 123.529 107.08 123.526ZM106.397 122.234H106.359C106.233 122.234 106.227 122.305 106.223 122.322C106.192 122.537 106.65 123.079 106.998 123.311C106.969 122.95 106.841 122.607 106.631 122.329C106.567 122.264 106.484 122.226 106.397 122.224V122.234Z" fill="#9099A5"/>
<path d="M116.993 51.0293L117.29 52.1871C117.331 52.2751 117.236 52.3666 117.1 52.3666H105.158C105.054 52.3666 104.966 52.3103 104.959 52.2364L104.855 51.0821C104.855 51.0011 104.937 50.9342 105.054 50.9342H116.806C116.842 50.9309 116.878 50.9378 116.911 50.9545C116.943 50.9711 116.972 50.9969 116.993 51.0293Z" fill="#9099A5"/>
<path opacity="0.3" d="M116.993 51.0293L117.29 52.1871C117.331 52.2751 117.236 52.3666 117.1 52.3666H105.158C105.054 52.3666 104.966 52.3103 104.959 52.2364L104.855 51.0821C104.855 51.0011 104.937 50.9342 105.054 50.9342H116.806C116.842 50.9309 116.878 50.9378 116.911 50.9545C116.943 50.9711 116.972 50.9969 116.993 51.0293Z" fill="white"/>
<path d="M115.416 52.5072H115.732C115.792 52.5072 115.839 52.472 115.836 52.4263L115.688 50.9236C115.688 50.8813 115.631 50.8426 115.567 50.8426H115.251C115.188 50.8426 115.141 50.8813 115.147 50.9236L115.293 52.4263C115.299 52.472 115.34 52.5072 115.416 52.5072Z" fill="#263238"/>
<path d="M106.043 52.5072H106.359C106.422 52.5072 106.47 52.472 106.467 52.4263L106.318 50.9236C106.318 50.8813 106.258 50.8426 106.198 50.8426H105.882C105.819 50.8426 105.772 50.8813 105.775 50.9236L105.923 52.4263C105.926 52.472 105.98 52.5072 106.043 52.5072Z" fill="#263238"/>
<path d="M110.73 52.5072H111.046C111.109 52.5072 111.156 52.472 111.153 52.4263L111.005 50.9236C111.005 50.8813 110.948 50.8426 110.884 50.8426H110.568C110.505 50.8426 110.458 50.8813 110.464 50.9236L110.6 52.4368C110.6 52.472 110.666 52.5072 110.73 52.5072Z" fill="#263238"/>
<path d="M109.31 21.661L108.745 21.5414C108.745 21.5414 109.067 21.9918 109.31 21.661Z" fill="#263238"/>
<path opacity="0.2" d="M98.8513 66.4751C93.4976 68.7915 87.6474 69.2878 82.0404 67.9013C76.4334 66.5149 71.3215 63.3079 67.351 58.6859C63.3806 54.064 60.7299 48.2346 59.7343 41.9349C58.7386 35.6353 59.4426 29.1483 61.7573 23.2943C64.072 17.4402 67.8934 12.482 72.7383 9.04668C77.5832 5.61134 83.234 3.85311 88.9761 3.99434C94.7183 4.13556 100.294 6.1699 104.998 9.8401C109.702 13.5103 113.323 18.6515 115.403 24.6137C116.785 28.5727 117.453 32.796 117.369 37.0426C117.285 41.2891 116.451 45.4756 114.914 49.363C113.377 53.2504 111.167 56.7624 108.411 59.6986C105.655 62.6347 102.407 64.9374 98.8513 66.4751Z" fill="#9099A5"/>
<path opacity="0.1" d="M93.596 4.52221L70.8187 62.1323C70.4679 61.8367 70.1203 61.5305 69.7791 61.2208C67.5776 59.1926 65.6604 56.8096 64.0911 54.1506L83.7652 4.38848C87.0247 3.80382 90.3503 3.84906 93.596 4.52221Z" fill="white"/>
<path opacity="0.1" d="M109.788 14.5169L88.3728 68.6816C83.9246 68.6869 79.5349 67.5526 75.5432 65.3665L98.9272 6.21849C103.07 8.02283 106.786 10.8618 109.788 14.5169Z" fill="white"/>
<path d="M64.4262 14.5415C68.2958 9.27572 73.4806 5.40608 79.3249 3.42194C85.1693 1.43781 91.4107 1.42831 97.2599 3.39463C103.109 5.36096 108.303 9.2148 112.186 14.4688C116.068 19.7228 118.465 26.1411 119.072 32.9118C119.679 39.6826 118.47 46.5019 115.597 52.5073C112.725 58.5127 108.317 63.4346 102.933 66.6504C97.5483 69.8663 91.4285 71.2317 85.3472 70.5741C79.2659 69.9165 73.4963 67.2653 68.768 62.9558C62.4282 57.1764 58.4092 48.8292 57.5949 39.75C56.7807 30.6708 59.2379 21.6032 64.4262 14.5415ZM110.284 56.3361C113.836 51.5006 116.021 45.6007 116.562 39.3824C117.103 33.1641 115.977 26.9067 113.325 21.4014C110.673 15.8961 106.615 11.3902 101.664 8.45339C96.7123 5.51662 91.0903 4.28088 85.5084 4.90243C79.9265 5.52397 74.6355 7.9749 70.3043 11.9453C65.9731 15.9157 62.7964 21.2272 61.1757 27.2082C59.555 33.1893 59.5632 39.5712 61.1992 45.5471C62.8352 51.523 66.0256 56.8244 70.367 60.7809C73.2499 63.4084 76.5693 65.3776 80.1357 66.5762C83.702 67.7748 87.4455 68.1793 91.1522 67.7665C94.8589 67.3538 98.4563 66.1319 101.739 64.1706C105.022 62.2094 107.925 59.5472 110.284 56.3361Z" fill="#9099A5"/>
<path d="M113.011 56.2167C116.054 58.2402 118.948 60.4644 121.792 62.7589C124.636 65.0535 127.408 67.4431 130.135 69.896C132.862 72.3489 135.538 74.8722 138.12 77.5222C139.414 78.8454 140.678 80.2039 141.912 81.5975C143.151 83.0052 144.367 84.4129 145.515 85.9402C145.78 86.2939 145.926 86.7393 145.928 87.1999C145.93 87.6605 145.788 88.1075 145.526 88.4641C145.264 88.8206 144.899 89.0645 144.493 89.1537C144.087 89.2428 143.666 89.1718 143.303 88.9527C141.723 88.0025 140.244 86.9538 138.768 85.8804C137.292 84.807 135.851 83.6879 134.429 82.5371C131.585 80.2426 128.833 77.8248 126.137 75.3297C123.442 72.8345 120.788 70.2831 118.206 67.6296C115.624 64.9761 113.093 62.2592 110.71 59.3382C110.413 58.977 110.242 58.5083 110.23 58.0183C110.217 57.5283 110.364 57.0497 110.643 56.6704C110.922 56.291 111.314 56.0363 111.748 55.953C112.181 55.8697 112.628 55.9633 113.004 56.2167H113.011Z" fill="#9099A5"/>
<path d="M116.411 55.2522L113.359 55.7696L115.542 57.9022C115.542 57.9022 117.267 57.1984 117.438 55.8963L116.411 55.2522Z" fill="#FFC3BD"/>
<path d="M111.709 57.7228L113.627 59.3979L115.969 57.6946L113.359 55.7766L111.709 57.7228Z" fill="#FFC3BD"/>
<path d="M97.2775 61.4284C97.5563 60.5807 98.0591 59.847 98.7196 59.3237C99.3801 58.8004 100.167 58.5122 100.978 58.4969H126.274C126.711 58.4787 127.146 58.5675 127.549 58.7571C127.952 58.9468 128.313 59.2326 128.606 59.5943C128.898 59.9561 129.117 60.3851 129.244 60.851C129.372 61.3168 129.407 61.8083 129.345 62.2906L122.81 123.353C122.672 124.393 122.205 125.343 121.495 126.035C120.785 126.727 119.877 127.115 118.933 127.129H38.669C38.2334 127.148 37.7994 127.06 37.3977 126.871C36.9959 126.683 36.6361 126.399 36.3436 126.039C36.0511 125.679 35.833 125.252 35.7046 124.788C35.5763 124.324 35.5408 123.834 35.6007 123.353L41.0801 72.0495C41.2188 71.01 41.685 70.0593 42.3954 69.3675C43.1057 68.6756 44.0139 68.2878 44.9574 68.2733H88.6349C90.5276 68.2374 92.3661 67.5643 93.9088 66.3425C95.4514 65.1208 96.6258 63.4076 97.2775 61.4284Z" fill="#9099A5"/>
<path d="M37.0448 124.317H120.914L125.692 61.4706H41.8259L37.0448 124.317Z" fill="#F0F0F0"/>
<path d="M37.0448 124.317H120.914L124.371 61.4706H41.8259L37.0448 124.317Z" fill="#E0E0E0"/>
<path d="M37.0448 124.318H120.914L123.796 59.4754H39.9299L37.0448 124.318Z" fill="#F0F0F0"/>
<path d="M37.0448 124.318H120.914L122.055 59.4754H39.9299L37.0448 124.318Z" fill="#E0E0E0"/>
<path d="M37.0448 124.317H120.914L121.414 57.7155H37.5472L37.0448 124.317Z" fill="#F0F0F0"/>
<path d="M37.0448 124.317H120.914L119.192 58.9756H35.8661L37.0448 124.317Z" fill="#E0E0E0"/>
<path d="M37.0453 124.318H120.915L118.425 59.4754H34.5583L37.0453 124.318Z" fill="#F0F0F0"/>
<path d="M37.0447 124.317H120.914L116.948 60.4536H33.082L37.0447 124.317Z" fill="#E0E0E0"/>
<path d="M37.0451 124.317H120.915L116.317 60.999H32.4504L37.0451 124.317Z" fill="#F0F0F0"/>
<path d="M79.0445 65.3947C79.0492 64.9864 79.1276 64.5833 79.2751 64.2094C79.4226 63.8355 79.6361 63.4985 79.9029 63.2184C80.1697 62.9383 80.4844 62.7209 80.8283 62.579C81.1721 62.4372 81.5381 62.3738 81.9043 62.3928H107.2C108.18 62.4346 109.119 62.8375 109.87 63.5382C110.622 64.2388 111.143 65.1976 111.352 66.2639L121.347 123.276C121.72 125.412 120.469 127.147 118.551 127.147H38.2869C36.3656 127.147 34.4949 125.412 34.1315 123.276L25.887 76.2762C25.5141 74.14 26.7655 72.405 28.6836 72.405H72.3643C76.1563 72.405 78.915 69.4981 79.0445 65.3947Z" fill="#9099A5"/>
<path opacity="0.2" d="M79.0445 65.3947C79.0492 64.9864 79.1276 64.5833 79.2751 64.2094C79.4226 63.8355 79.6361 63.4985 79.9029 63.2184C80.1697 62.9383 80.4844 62.7209 80.8283 62.579C81.1721 62.4372 81.5381 62.3738 81.9043 62.3928H107.2C108.18 62.4346 109.119 62.8375 109.87 63.5382C110.622 64.2388 111.143 65.1976 111.352 66.2639L121.347 123.276C121.72 125.412 120.469 127.147 118.551 127.147H38.2869C36.3656 127.147 34.4949 125.412 34.1315 123.276L25.887 76.2762C25.5141 74.14 26.7655 72.405 28.6836 72.405H72.3643C76.1563 72.405 78.915 69.4981 79.0445 65.3947Z" fill="black"/>
</svg>
